<?xml version="1.0" standalone="no"?>
<!DOCTYPE svg PUBLIC "-//W3C//DTD SVG 1.1//EN" "http://www.w3.org/Graphics/SVG/1.1/DTD/svg11.dtd" >
<svg>
<metadata>
Created by FontForge 20110222 at Mon Mar  7 10:24:11 2011
 By www-data
VPS Font                                           
</metadata>
<defs>
<font id="VPSDongDa" horiz-adv-x="677" >
  <font-face 
    font-family="VPS Dong Da Hoa"
    font-weight="400"
    font-stretch="normal"
    units-per-em="1000"
    panose-1="0 0 0 0 0 0 0 0 0 0"
    ascent="800"
    descent="-200"
    x-height="695"
    cap-height="696"
    bbox="-165 -235 979 1115"
    underline-thickness="50"
    underline-position="-55"
    unicode-range="U+0020-2122"
  />
    <missing-glyph />
    <glyph glyph-name="space" unicode=" " horiz-adv-x="377" 
 />
    <glyph glyph-name="exclam" unicode="!" horiz-adv-x="184" 
d="M77 109l8 -7l16 -12l19 -7l7 -13l5 -13v-7l1 -6q0 -11 -4 -22l-9 -21l-9 -2l-8 -1q-11 0 -19 7l-16 16l-2 2l-11 12l-12 10v5q0 11 6 29l13 25l3 5l4 6zM90 620l6 -2l10 -3l12 -1l5 1h4l19 -16l-3 -67l-9 -68l-15 -133l-3 -27l-3 -26l-1 -18q0 -10 -4 -22l-4 -40l-4 -2
l-3 -2l-14 -6l-14 -2h-6l-6 2l-9 29l-4 30l-1 16v15v9v8v48v47l-1 31v32l1 39l1 39l1 34l8 46l5 2l6 3l7 4l9 2h5z" />
    <glyph glyph-name="quotedbl" unicode="&#x22;" horiz-adv-x="355" 
d="M70 462l-24 137v117h100v-117l-22 -137h-54zM232 462l-24 137v117h100v-117l-23 -137h-53z" />
    <glyph glyph-name="numbersign" unicode="#" horiz-adv-x="556" 
d="M50 -12l43 208h-83v73h97l37 177h-134v73h148l43 209h73l-43 -209h154l43 209h73l-42 -209h84v-73h-99l-36 -177h135v-73h-150l-42 -208h-74l42 208h-153l-42 -208h-74zM181 269h153l37 177h-154z" />
    <glyph glyph-name="dollar" unicode="$" horiz-adv-x="473" 
d="M273 575l8 -28l9 -34q6 -14 23 -21q28 0 54 -13l25 -12q15 -5 24 -14l-4 -9l-1 -9q0 -10 2 -12l4 -12l4 -14l2 -13l-1 -6l-2 -6l-4 -7l-5 -6l-20 -19l-21 -16l-2 -2l-26 -21l-11 -10l-12 -14q46 -24 72 -61q30 -39 30 -87l1 -8l1 -7q0 -22 -14 -40l-13 -15l-17 -17l-6 -5
l-5 -4l-18 -10l-21 -5l-18 -4l-11 -5q-7 -2 -20 -15l-3 -10v-12v-6l1 -7v-7v-10l1 -9q0 -12 -6.5 -22.5t-28.5 -10.5l-13 29l-7 32l-1 8v8v4l1 3v4v4l-27 7l-29 8l-28 10l-27 13q-27 14 -51 33l-22 34l28 19l11 -1l11 -1q23 0 27 -2q22 0 27 -2l19 -1h19h15h12l12 2l39 6
l14 -1l10 3l10 4l14 6l14 8q14 8 22 20l-34 8l-35 10q-57 18 -107 48t-67 93l4 6l3 7l5 12l3 13l3 13l5 14v4q0 27 19 48t44 35l17 11l17 10l36 106q12 -6 16 -20zM311 398l-3 1h-4h-4q-32 0 -64.5 -14.5t-58.5 -37.5q6 -11 27 -28l12 -7l24 -10l19 -6q15 0 18 -2l-4 10
l-1 11q0 14 7 27l17 27l5 6l5 7l4 8l5 8h-4z" />
    <glyph glyph-name="percent" unicode="%" horiz-adv-x="889" 
d="M58 544q0 76 38 129q19 26 47 40.5t65 14.5q66 0 111 -48.5t45 -140.5q0 -89 -44.5 -139t-110.5 -50q-60 0 -107 48q-22 25 -33 61t-11 85zM211 667q-33 0 -54.5 -27.5t-21.5 -104.5q0 -68 22 -96.5t54 -28.5q30 0 55 28q22 31 22 104q0 70 -23 96q-21 29 -54 29z
M211 -26l392 754h71l-390 -754h-73zM521 168q0 77 38 130.5t113 53.5q66 0 111 -48.5t45 -140.5q0 -90 -45 -141q-22 -25 -49.5 -36.5t-61.5 -11.5q-60 0 -107 48q-22 25 -33 61t-11 85zM674 292q-30 0 -54 -28q-22 -28 -22 -105q0 -65 21 -97q22 -28 55 -28t55 28t22 104
q0 70 -23 97q-21 29 -54 29z" />
    <glyph glyph-name="ampersand" unicode="&#x26;" horiz-adv-x="595" 
d="M173 598q13 6 29 9l3 -14l2 -13l3 -19q0 -15 2 -19l3 -31l7 -30q6 -23 24 -52h5q12 0 19 8l13 19l2 5l3 6l2 9l1 9q0 14 -12 31l-24 26l-4 3l-15 14l-12 16l8 2l8 1l8 1h8q27 0 53.5 -12.5t47.5 -31.5q13 -16 21 -35l6 -18l2 -20v-4l-1 -4l-1 -4v-4l-10 -20l-12 -16
l-26 -30l-22 -22l-22 -23q5 -19 21 -50l31 -47l10 -14l10 -14l7 -5l6 -7l10 -10l14 -4q7 5 12 16l7 20l1 6l1 7l-2 13l-2 4l-4 7l-7 7q-3 3 -3 10l4 4h4q9 0 17 -7l13 -16l9 -12l9 -8q9 -9 12 -22l3 -23l-1 -15l-2 -14l-1 -4v-4l-3 -18l-1 -18v-4v-7l1 -3l5 -4l5 -3l3 -3
l3 -2l17 -13q9 -6 20 -6l8 1l8 4l6 6l9 2l5 -1l3 -5l2 -4l1 -6l1 -4l-6 -19l-11 -18l-8 -12l-6 -12l-21 -16q-12 -6 -26 -6l-9 1l-9 2l-20 10l-17 14l-6 4l-5 5l-22 14q-9 6 -22 6q-35 -20 -79 -33l-45 -10l-43 -4h-6h-6l-27 1q-8 0 -17 1t-19 4q-21 3 -44 16l-19 12l-18 14
l-14 17l-13 24q0 56 29.5 104.5t70.5 97.5l22 26l21 27l2 4l4 4l-3 14q0 7 -5 16l-10 32l-7 22l-6 23l-7 33l-3 33l3 32q3 15 13 29t23 21zM228 249l-11 2l-115 -124l-3 -6l-3 -5l-5 -9l-2 -8l2 -5l1 -3l3 -3l24 3h12q8 0 12 2l6 1l7 1l40 3l40 9q35 6 68 30z" />
    <glyph glyph-name="quotesingle" unicode="'" horiz-adv-x="191" 
d="M66 462l-22 134v120h100v-120l-23 -134h-55z" />
    <glyph glyph-name="parenleft" unicode="(" horiz-adv-x="333" 
d="M234 -210q-73 91 -123 215t-50 254q0 119 37 223q44 127 136 246h63q-59 -105 -78 -145l-24 -63l-23 -78q-9 -41 -15 -88l-6 -65v-30q0 -238 146 -469h-63z" />
    <glyph glyph-name="parenright" unicode=")" horiz-adv-x="333" 
d="M100 -210h-63q146 235 146 469q0 89 -21 182l-9 34l-11 38q-9 35 -27 69q-17 42 -78 146h63q90 -120 135 -246q38 -109 38 -223q0 -126 -51 -254q-25 -63 -54.5 -115t-67.5 -100z" />
    <glyph glyph-name="asterisk" unicode="*" horiz-adv-x="389" 
d="M31 584l23 70q73 -25 113 -48l-7 64l-3 58h71l-3 -52l-4 -30q0 -8 -1 -18.5t-4 -20.5l54 24l62 23l22 -70q-58 -18 -122 -27q31 -26 84 -92l-58 -42q-23 31 -67 105q-37 -72 -64 -105l-57 42l46 55q9 11 11 13q11 12 24 24q-66 12 -120 27z" />
    <glyph glyph-name="plus" unicode="+" horiz-adv-x="584" 
d="M250 116v196h-194v82h194v195h83v-195h195v-82h-195v-196h-83z" />
    <glyph glyph-name="comma" unicode="," horiz-adv-x="163" 
d="M56 92h8h7q13 0 23 -5q9 -3 19.5 -12.5t16 -20.5t5.5 -23l-1 -9l-2 -9l-9 -6l-16 -70l-77 -62l-2 7l-1 7l1 12q2 10 5 12l1 5l2 4l3 8l3 8l3 13l6 14l2 4l5 17q3 6 3 14l-3 14q-2 6 -10 12l-3 9l-2 10l-2 10v9l1 14l6 13z" />
    <glyph glyph-name="hyphen" unicode="-" horiz-adv-x="333" 
d="M32 215v88h270v-88h-270z" />
    <glyph glyph-name="period" unicode="." horiz-adv-x="160" 
d="M101 95l19 -32l6 -17l2 -18l-1 -6v-5l-2 -8l-2 -4l-12 -5l-12 -1l-6 1h-5h-6h-5h-4h-4h-5l-4 -2q-12 6 -16 16l-3 22v5l-1 15l-3 15l-1 4v4l1 7q0 7 4 12l7 12z" />
    <glyph glyph-name="slash" unicode="/" horiz-adv-x="278" 
d="M0 -12l208 740h70l-207 -740h-71z" />
    <glyph glyph-name="zero" unicode="0" horiz-adv-x="665" 
d="M387 618l15 1q58 0 110 -30t80 -82q17 -36 24 -79l6 -41l2 -44v-9v-8q0 -49 -16 -107q-12 -55 -37 -99q-9 -31 -32 -44l-23 -10l-29 -11l-3 -1q-24 -6 -42.5 -15t-35.5 -34l-45 -11l-47 -6l-11 -1h-12l-29 1q-18 0 -42 7q-28 6 -65 24q-63 45 -90 115l-12 33l-10 36
l-6 38l-2 39v10v10v15l1 15q8 85 60 149t122 108l16 6l17 2l12 -1l12 -1l6 -2h6l18 -4l18 -1q9 0 22 6t26 25zM418 571q-15 12 -35 16l-5 -14q17 -6 31.5 -22t21.5 -38l-6 -2l-4 -1l-5 -1h-5l-14 1l-13 3l-15 3l-15 1l-9 -1l-9 -1q-65 -20 -106 -74t-63 -115l-6 -19l-6 -18
l-10 -23l-3 -21q0 -20 12.5 -45.5t27.5 -42.5l10 -14l10 -13l3 -6l4 -6q19 -14 52 -28q30 -9 61 -9l19 1l20 3q28 55 68 160l12 39l10 45l7 45l2 46l-1 30v18l-4 13l-4 31l-9 29q-6 18 -24 30z" />
    <glyph glyph-name="one" unicode="1" horiz-adv-x="326" 
d="M210 599q25 -16 42 -38l2 -10l1 -9l-3 -18l-6 -17l-1 -3q-2 -10 -5 -12l-3 -11l6 -152l4 -71l4 -72v-9l1 -8l4 -66l4 -65l5 -7l8 -5l3 -2l8 -7l4 -8l-1 -5l-2 -4l-20 -4l-20 -2h-8l-7 1q-25 3 -47.5 12t-42.5 31l-2 6v7q0 13 5 21l10 19l3 4l3 5l-11 305l-21 3h-21h-5h-4
l-43 3q-17 3 -33 26q0 15 9 20q9 3 23 3l17 2q7 0 12 5l8 3l8 3l5 1l24 9q13 5 21 17l1 9l1 10l-1 12l-1 12l-3 16v17l3 21q3 13 11 21q28 -3 51 -19z" />
    <glyph glyph-name="two" unicode="2" horiz-adv-x="581" 
d="M468 531l17 -25l6 -10l5 -10l3 -18l1 -17q0 -46 -23 -85q-21 -39 -54 -69l-193 -184v-9l37 -3l35 -1l40 1q23 0 40 4l78 12l25 6l26 6l3 5l4 5l2 2l7 8l5 10h10l1 -8l1 -8l1 -8v-8v-12q0 -8 -2 -12q0 -11 -4 -22l-4 -12l-3 -11q-33 -39 -83 -46l-49 -5l-50 -2h-6h-4h-4
l-52 -1q-22 0 -49 -6q-10 0 -12 -2l-13 -3l-23 -3l-24 -4h-13l-12 -1q-24 0 -41 5t-33 19l-5 10l-5 10l-2 5l-11 21l-5 24v4l44 23l22 21l22 22l40 38l42 39l119 114q53 55 103 121q9 15 12 32l4 33v9l-1 9q15 0 25 -13zM324 610h10h12l30 -1l10 -1l18 -6q27 -6 42 -31
q-31 0 -55 -7l-23 -9l-25 -16q-37 -26 -85 -69l-20 -19l-19 -18l-1 -4v-4q0 -8 9 -20l22 -11l12 -6l9 -5q-6 -9 -15.5 -12t-24.5 -3h-9l-10 1l-6 1h-13l-11 1l-4 3l-3 4l-25 32q-4 8 -7 18t-3 20l1 10l3 12l1 3l2 3q21 48 69 90q20 17 48 32q26 12 54 12h7z" />
    <glyph glyph-name="three" unicode="3" horiz-adv-x="522" 
d="M56 627l8 -8l6 -8q3 -3 8 -3l68 5l73 3h13l14 1l36 1l36 1h42l25 4q19 -6 30 -23q14 -15 18 -33l-3 -19l-40 -27l-41 -24l-66 -41q-15 -9 -29 -23l-30 -28l3 -11l11 -4l7 -3l5 -1l18 -4l19 -4q56 -12 105.5 -38t80.5 -80q8 -9 14 -23l6 -26q0 -11 -6 -32l-4 -13l-7 -17
l-8 -19l-6 -18q-39 -57 -108.5 -83.5t-140.5 -26.5h-6l-6 1h-6h-6l-7 1l-6 2l-15 4l-15 4q-34 9 -69.5 27t-54.5 56v4q0 11 12 23l26 13l6 3l7 2l4 2l5 2l46 7l46 2l11 -1h12l10 -1h12l-30 -18l-33 -12l-5 -2l-4 -2l-13 -4l-7 -2q-8 -3 -12 -5l-26 -16q5 -11 16 -15l24 -4h7
l7 1l16 1l15 3l8 1l7 2q67 12 126 59.5t93 116.5q-9 17 -30 28q-30 7 -45 7h-10l-10 -1h-6h-4l-16 -1h-14h-12l-10 1l-4 1h-4q-6 0 -14 -4l-12 -8l-3 -2l-11 -7q-5 -3 -11 -3l-9 3q-5 2 -10 8l-10 10l-11 10l-5 3l-23 21q-5 8 -10 27l1 7l2 8q31 15 62 43l53 55l10 12l11 12
l7 9l8 8l-17 16l-27 -3l-27 -5l-18 -3l-17 -2l-20 -2l-19 -1q-23 0 -37 4.5t-32 14.5l-10 27l-3 31l1 24l3 22q6 3 11 0z" />
    <glyph glyph-name="four" unicode="4" horiz-adv-x="640" 
d="M408 592q27 23 59 30v-4v-4v-5v-4q0 -73 25 -139.5t55 -124.5l3 -4l31 -67l27 -67q0 -26 -19 -36l-18 -5l-20 -2h-8l-7 1h-8h-8h-18l-18 -5q-6 0 -17 -17v-6v-7v-14v-13l-1 -14v-14q0 -30 2 -37l6 -34l-13 -2l-13 -1q-21 0 -34 5l-28 18q-11 12 -19 25l-4 27v8l1 8v8v8
v16l-5 16q-2 9 -17 19l-229 -9l-6 -4l-4 -4l-3 -3l-3 -3l-13 -11l-15 -5h-4l-3 1l-4 1l-3 2q-12 20 -21 42l-5 23l-2 25v12q0 10 2 12q6 6 14 7l17 2h4h10l9 3q50 58 136 149q32 34 74 71q19 17 40 34t46 36q0 30 29 56zM354 412q-6 -2 -15 -13l-4 -5l-3 -5l-10 -14l-8 -8
q-8 -16 -19 -27l-22 -22l-2 -2l-29 -30q-8 -10 -19 -36l16 -1l16 -1l6 -1l7 -1l16 -1h15l32 3q15 3 29 10v19l1 19l1 6l1 44l4 47q-3 18 -13 19zM542 294l-7 26l-1 4l-10 38l-12 34q-6 18 -15 33q-3 8 -10 15q-5 8 -13 15l-7 -5v-186l10 -11l6 -1h7l6 -1h6l26 3q12 3 22 10z
" />
    <glyph glyph-name="five" unicode="5" horiz-adv-x="511" 
d="M199 604l112 -4h4h6h28l32 -2h37l25 -4q10 -11 22 -37l6 -21l2 -23l-3 -23q-2 -11 -7 -22q-6 -3 -10 0l-4 10l-1 4l-6 10l-11 5l-44 -3l-43 -1l-77 3h-12l-21 2l-17 2l-24 6q-5 -2 -14 -16l-2 -20l1 -14l2 -14l2 -18l1 -14v-6l19 -8l22 -2h7l8 1h7h8l17 -1q10 0 16 -5
l3 -2l4 -2l19 -9l20 -10l37 -21l35 -26q29 -23 41 -73l5 -25l2 -24q0 -36 -15.5 -69.5t-43.5 -60.5q-18 -11 -45 -24t-57 -26q-65 -19 -114 -19h-16h-13l-15 2l-42 9l-9 9l-8 10l-28 33q-13 23 -13 42l1 12l5 14q23 21 59 47q29 17 67 25l-12 -14l-14 -11l-2 -2l-24 -21
q-9 -9 -12 -27l21 -3l21 -1q38 0 85 12l82 27l22 8l23 8l6 6l8 5l2 2l11 9l9 9q-27 47 -81 73l-24 8l-32 8l-29 6l-28 2l-3 1q-11 0 -18 -4l-13 -7l-2 -2l-13 -7l-13 -3l-6 1l-6 2l-6 4q-30 15 -37 43l-5 38v19v6l-1 6l-1 17q0 13 -2 17v4l1 4v7v12q0 6 -2 14l-3 26l-4 25
l-1 25q0 24 5.5 38t20.5 32l58 -14z" />
    <glyph glyph-name="six" unicode="6" horiz-adv-x="515" 
d="M413 606l6 -3l27 -18q12 -9 22 -23v-15l-4 2l-4 3l-40 20q-20 9 -41 9l-8 -1l-8 -1l-16 -6q-8 -3 -16 -11q-91 -67 -133 -171q-38 -100 -52 -214v-6q0 -34 15 -74t55 -64h5l5 -1q28 0 46 17l19 18l17 20l11 14l12 14q14 22 28 63l8 33l3 37v4v5q-3 11 -11 15l-15 4
l-10 -1l-10 -2l-6 -2l-4 -1l-12 -3l-10 -2l-7 -4l-7 -4l-17 -13q-4 -2 -11 -17q0 -11 9 -28l17 -26l3 1q9 0 13 -4l7 -9v-4h-20l-10 9l-10 10l-11 9l-10 10l-30 29l-25 33v5l-1 4q0 19 11 33t33 31l18 8l23 8l24 5l27 1q20 0 46 -6t43 -19q33 -15 48.5 -49.5t15.5 -72.5v-5
q-8 -64 -43.5 -121t-100.5 -84l-6 -2l-13 -3l-14 -2l-10 2l-10 5q-6 6 -15 9l-15 3l-15 -2l-14 -3l-16 -3l-15 -1h-7l-6 1l-5 1q-12 0 -19 2l-18 5l-24 10q-25 12 -46 45q-18 36 -27 76l-6 38l-2 42v13l1 14q0 36 7 64l9 32q4 13 6 18.5t8 18.5q27 67 71 115q52 47 113 84
t128 37l20 -1l20 -3z" />
    <glyph glyph-name="seven" unicode="7" horiz-adv-x="532" 
d="M441 594q12 -15 21 -32.5t12 -41.5l1 -8v-7v-6q-28 -9 -42 -32l-25 -49l-12 -27l-13 -22q0 -6 6 -12q6 -3 14 -3h5l17 1q13 0 17 2l31 3l29 3l-3 -6l-2 -5q-12 -27 -27.5 -48.5t-43.5 -33.5l-16 2l-14 1q-60 0 -86 -44q-20 -37 -40 -97l-1 -4l-1 -3l-7 -23
q-2 -10 -10 -28q-6 -20 -21 -43l1 -6v-4q0 -13 -8 -21q-6 -9 -23 -13l-8 1l-9 3l-19 19l-7 36l-5 36l-1 3q-6 54 -18.5 97.5t-48.5 81.5l-7 1l-6 1l-19 3l-11 12l1 12l1 12v4l3 29q3 12 16 22l45 -4h21l25 -2q25 0 30 -2h31h28l23 1q3 2 4 4q7 8 12 14l20 34l26 52l2 4l2 4
l10 22l12 23l-10 7l-35 3l-34 1l-43 -1l-25 -1h-18q-10 -3 -26 -5t-59 -11l-13 -9l-8 -13l-1 -4l-1 -3q-14 2 -21 13l-12 26l-1 3l-5 11l-5 11l-2 7l-1 8l-1 7v7l3 20q3 9 17 13l48 5l49 3l102 3l36 -1l37 -1h28h15.5t26.5 -4zM199 247l-14 1q-10 0 -12 2l-13 2l-12 1
l-15 -3l-5 -3l-5 -6l8 -14l7 -14l1 -4l2 -4l10 -23l18 -14l11 14l12 19q9 18 9 39v4z" />
    <glyph glyph-name="eight" unicode="8" horiz-adv-x="529" 
d="M304 601l25 -12l38 -19l43 -10q18 -6 30 -21t18 -36l1 -12l1 -10q0 -32 -21 -64l-21 -26l-24 -26l-18 -18l-16 -16q8 -12 21 -18l28 -11l25 -10q13 -5 21 -14q8 -6 15.5 -16.5t19.5 -28.5l9 -29l4 -30v-6l-1 -6l-1 -7v-6l-5 -14l-4 -14q-9 -26 -29 -53q-16 -25 -53 -38
q-13 -6 -26 -9l-27 -2h-5h-5q-25 0 -56.5 15.5t-57.5 39.5l-9 11l7 -2h8l6 -1h8q28 0 51.5 10.5t43.5 28.5l10 10l10 11l35 45q8 15 12 27.5t4 28.5v6l-1 7l-7 3l-6 3l-37 16l-18 5l-20 2l-9 -1l-8 -1l-9 -3l-9 -4l-157 -134l-1 -6v-5q0 -11 9 -28l21 -24l4 -5l5 -5l5 -6
l5 -6l40 -24q27 -10 46 -10q2 -4 2 -15l-10 -7l-8 -2l-3 -3l-26 -3l-25 -2q-39 0 -76.5 13t-66.5 41l-12 18l-11 24l-5 22l-2 25l1 26l6 28q14 37 42.5 70.5t64.5 60.5q0 15 -9 30l-21 23l-2 2l-3 3l-16 17l-13 20l-6 21l-1 22q0 20 6 44t17 40q21 35 60 55q20 10 39 15
t41 5q17 0 22 -2l22 -3q13 -3 25 -10zM349 550l-15 4l-14 -3l-15 -5l-4 -2l-18 -8l-14 -4l-9 -6l-8 -6l-13 -8l-12 -7q-27 -17 -49.5 -37.5t-22.5 -52.5l1 -11l2 -11l8 -4l9 -6l11 -7l13 -3l7 1l3 1l3 2l12 10l14 11l16 11l18 13q28 19 54.5 46t33.5 67q-3 11 -11 15z" />
    <glyph glyph-name="nine" unicode="9" horiz-adv-x="574" 
d="M197 598q59 17 109 17q49 0 86 -11q38 -9 79 -33l-6 -8l-11 -1h-6l-14 -2q-6 -2 -9 -11l3 -5l4 -5l5 -6l5 -6q30 -42 60 -92.5t30 -107.5l-1 -21l-3 -21q-18 -101 -101 -173.5t-181 -107.5l-15 -4l-14 -4l-10 3l-10 1l-5 1l-4 1l-24 6l-22 8q-21 9 -36 27q30 30 67 52
l73 45l3 2l3 1q32 18 55 32q27 17 44 30q46 32 81 82q-12 0 -27 -6l-25 -14l-4 -2l-3 -2l-18 -11l-18 -8l-44 -7l-43 -3h-17q-9 0 -25 2q-16 0 -43 8q-44 11 -75 32l-7 7l-6 7l-32 43q-15 21 -15 48v4l1 4v4l1 4l2 20l5 22q6 26 21 56.5t42 53.5q42 30 95 49zM442 349
q0 10 2 12l1 10v11q0 45 -21 87q-18 42 -55 76l-31 -12l-33 -12l-61 -27q-10 -5 -27.5 -15.5t-29.5 -19.5q-50 -35 -79 -102q9 -7 29.5 -17t42.5 -18l41 -7l44 -3h13l13 1l35 1l36 6l38 8l40 11z" />
    <glyph glyph-name="colon" unicode=":" horiz-adv-x="205" 
d="M62 125l18 2l10 -1q7 0 11 -2q18 -3 35 -16q17 -11 27 -25l-1 -16v-18q0 -16 -3.5 -28t-20.5 -21l-8 3l-6 2q-7 0 -9 -2l-8 -4l-2 -2l-10 -5q-3 -3 -10 -3l-5 1l-6 2q-22 3 -32 12t-11 23l2 17l6 20l2 6l2 7l3 14l1 15v6l-1 5zM78 378l8 1q18 0 29 -10l21 -22l2 -2l2 -2
l11 -14l14 -12l-5 -14l-4 -16l-1 -5l-1 -5l-10 -32q-6 -15 -23 -22q-17 0 -31 13l-26 28l-5 6l-6 7l1 11l1 13l1 11l1 10l4 30l9 25z" />
    <glyph glyph-name="semicolon" unicode=";" horiz-adv-x="261" 
d="M115 93l16 3l14 8l6 2l5 4l7 3l8 1l8 -1l8 -4v-5q0 -12 -4 -23l-9 -20l-9 -21l-4 -23v-4q-6 0 -11 -5l-1 -11l-2 -11l-6 -7l-17 -25l-18 -26l-37 -49q-19 -28 -41 -42l-11 -1l7 19l8 18l6 17l8 19l16 36l48 148h5zM132 356l9 1q13 0 21 -7l17 -16l2 -2l12 -13q6 -6 15 -9
l4 -7l3 -6l1 -7v-6l-3 -18l-6 -18l-5 -13l-3 -12q-3 -7 -13 -14q-2 -2 -16 -5l-13 2l-12 8q-12 9 -19 23l-4 27l1 14q0 12 2 16v8l1 8l1 8v8v6l-1 8l-1 7l-2 7z" />
    <glyph glyph-name="less" unicode="&#x3c;" horiz-adv-x="584" 
d="M55 313v82l474 200v-87l-376 -154l376 -156v-88z" />
    <glyph glyph-name="equal" unicode="=" horiz-adv-x="584" 
d="M528 421h-472v82h472v-82zM528 204h-472v82h472v-82z" />
    <glyph glyph-name="greater" unicode="&#x3e;" horiz-adv-x="584" 
d="M529 313l-474 -203v88l375 156l-375 154v87l474 -200v-82z" />
    <glyph glyph-name="question" unicode="?" horiz-adv-x="351" 
d="M117 111l7 -3l3 -6l3 -7l4 -4q3 -6 13 -13l18 -7l3 -2l3 -1q13 -3 21 -10q9 -5 9 -17l-1 -7l-3 -9q-3 -12 -15 -21l-23 -13l-3 -1l-3 -1l-5 -2l-5 -3l-9 3l-8 3q-15 6 -26.5 15t-16.5 27v7q0 11 6 28l14 26l6 8l5 9zM153 594l23 8l24 6h9l9 1q20 0 38 -6.5t31 -22.5
q8 -8 17 -29l8 -31v-4l1 -3l1 -6l1 -5l-21 -50l-14 -25l-15 -24l-64 -92l-2 -3l-2 -2l-28 -38l-26 -38l7 -2h8l20 3l20 9l12 4l12 5l20 6l19 10l16 9l17 6l8 2l9 1l-6 -11l-8 -11l-8 -13l-7 -12q-15 -30 -43.5 -55.5t-67.5 -39.5h-5h-4q-31 0 -58 17q-24 18 -46 40l10 25
l13 23l31 45l2 3l3 3l25 37l23 40l12 21l14 20l2 4l4 4l21 36q10 23 10 40v4v4l-8 3l-7 1q-10 0 -12 -2l-11 -3l-5 -2l-5 -2l-3 -2q-37 -17 -61.5 -35t-48.5 -51l1 -7l1 -8l1 -18q0 -6 11 -10l2 -3l1 -4v-4l-1 -3q-16 -3 -30 14l-13 19l-7 14l-2 4l-1 4l-2 10v10q0 36 21 66
t51 57l7 7l7 6q7 7 39 26z" />
    <glyph glyph-name="at" unicode="@" horiz-adv-x="1015" 
d="M567 80q-26 -32 -67.5 -56.5t-82.5 -24.5q-42 0 -84 24q-39 24 -66 78.5t-27 116.5q0 75 39 154t99 118t116 39q45 0 81 -23q38 -21 66 -67l17 76h87l-70 -327l-15 -76q0 -12 10 -23q11 -9 24 -9q27 0 68 29q53 37 87 104t34 137q0 83 -40 150.5t-125 112.5t-184 45
q-115 0 -209 -53t-146.5 -156t-52.5 -212q0 -117 51 -204t150 -129t220 -42q126 0 211.5 41.5t132.5 105.5h88q-25 -53 -83.5 -104t-145.5 -84q-46 -15 -92 -24l-50 -5l-60 -2q-109 0 -199 27.5t-154 81.5t-100 131q-41 94 -41 199q0 120 49 227q57 130 168.5 201.5
t266.5 71.5q121 0 217.5 -48.5t152.5 -148.5q47 -86 47 -184q0 -141 -100 -251q-89 -99 -194 -99h-13q-7 0 -19 2t-23 8q-18 11 -30 30zM331 212q0 -68 31.5 -104.5t72.5 -36.5q27 0 57.5 15.5t56.5 46.5t45 84t19 100l-1 32q0 11 -7 26q-6 25 -25 45q-32 37 -80 37
q-31 0 -59 -17q-31 -15 -54 -49q-10 -15 -20.5 -36t-20.5 -51l-12 -48z" />
    <glyph glyph-name="A" unicode="A" horiz-adv-x="786" 
d="M415 684l41 -19l20 -11l19 -8l19 -62l19 -62l2 -8l2 -8l36 -117q18 -57 42 -114q5 -9 12 -12l17 -2h4l5 1h4h5q7 0 11 -2q6 0 10 -4l9 -6l9 -5l30 -23q14 -12 25 -32l-10 -4l-12 -1h-11l-10 2l-12 1l-12 1h-5l-4 -1q-7 3 -12 -2l-9 -9l-2 -2l10 -25l9 -25l2 -5l18 -49
q11 -23 32 -40l1 -5l1 -3q0 -8 -6 -17q-6 -6 -15 -6l-5 1l-111 17l-104 21q-108 21 -208 61h-12l-11 2h-4l-11 1h-7h-6l-2 -4l-1 -4l-9 -21l-14 -23q-14 -22 -32 -40l-6 -1h-5q-15 0 -30 6l-26 15l-12 6l-10 7l3 17l7 18l4 8l3 10l2 8l1 9v4l-1 4l-1 4l-1 4q-25 3 -45 23
q-21 18 -31 41l-1 4q12 9 30 12l35 5h12h13h18q13 0 17 2l10 24l10 25l96 217l51 107l19 38l37 68q16 -3 44 -12zM605 99l-8 20l-2 3q-3 13 -10 21q-3 9 -14 20l-30 -1l-62 -9l-90 -13l-21 -4l-21 -3q-21 0 -37 -5l-37 -5v-9l16 -4l17 -3l132 -26q66 -12 138 -12l7 -1h6
l6 -1h6l12 3l4 11zM411 510q-19 -29 -44 -80l-35 -84l-23 -58l-26 -57h28l19 4l49 8l57 9l59 4l4 1l6 1l11 3q6 3 6 11l-31 57l-20 62l-8 25l-6 18l-8 18q-9 26 -30 58h-8z" />
    <glyph glyph-name="B" unicode="B" horiz-adv-x="657" 
d="M139 681q57 15 116 15l16 -1h18q36 0 65 -7q32 -6 67 -19q66 -18 119 -52q25 -15 47 -45l14 -27l12 -33q-6 -55 -30.5 -102.5t-75.5 -79.5v-7l19 -17l19 -16l5 -4l6 -3l22 -17l17 -18q18 -18 28 -47l3 -22l1 -21l-1 -14l-1 -13l-3 -14l-3 -14q-57 -60 -138 -81l-83 -16
q-42 -6 -79 -6h-6l-5 1h-15l-14 1h-26l-18 4l-27 6l-20 8q-38 15 -62 64q0 7 -4 12l-5 14l-7 18l-3 19l1 9l3 9q10 0 18 -8l15 -13l3 -3l15 -14l17 -5l10 2l10 6v7l1 8v8v8l-1 39l-3 39l-3 34l-3 34l-1 19q0 13 -4 24l-3 42q-33 12 -55 43l-21 29l-18 33l-3 4l-2 5l-8 15
l-14 21q-7 14 -25 35l-1 6l-1 7l-1 3v4l-2 10l-1 9v6l3 6l1 3l2 3q38 25 103 47zM452 256q-29 11 -71 19l-10 1l-10 1q-5 -6 -14 -9q-12 0 -16 -2h-4l-15 -1q-7 0 -10 -2v-10v-10l-1 -28l-1 -26l-3 -34l-3 -35l12 -14l16 -3l15 2l16 4l15 4l15 2l19 6l20 8q30 12 53.5 30
t31.5 51q-18 30 -55 46zM418 586l-44 10l-43 5h-16l-14 2h-4l-7 -40l-1 -39v-15l1 -15v-23q0 -17 2 -22l1 -38l1 -39l-1 -3v-4l3 -10l11 -6l5 1l16 10l17 11q48 29 88.5 67.5t53.5 98.5q-25 32 -69 49zM222 601l-7 -1l-6 -2l-6 -1l-41 -12q-22 -6 -36 -20v-5v-4l-1 -5v-4
l1 -9l3 -8l16 -26l12 -27l1 -4l2 -3l10 -25l12 -22l-5 19l-1 20v7v7v9v9l1 18l1 18q0 11 8 18l17 16l18 16q3 3 8 19v4z" />
    <glyph glyph-name="C" unicode="C" horiz-adv-x="587" 
d="M440 690h5q25 0 46 -14q17 -9 37 -33q-6 -2 -10 -8l-4 -12q0 -10 2 -12l6 -13l2 -3l4 -8l3 -8l5 -20l1 -20v-20l-5 -21l-9 -24q-21 -28 -50 -49q-19 -15 -64 -26q8 14 12 33l4 28l1 15v7l-1 8q0 12 -2 15l-3 15q-6 18 -23 35l-15 14l-17 13q-102 -60 -167.5 -166
t-65.5 -223v-15l1 -15l19 -11l30 -10q13 -3 20 -4t23 -1h20l21 3q14 0 29 4l29 5l23 5l23 4q36 6 68 25l26 17l33 24l22 17l24 17l3 1l11 -5l4 -10l-1 -6l-3 -5q-12 -64 -56 -119t-110 -89q-24 -9 -54 -15l-57 -9l-17 -1h-16q-41 0 -78.5 9t-72.5 37q-31 40 -53 100l-12 54
l-4 56l1 31l3 32l12 63l18 63l7 14l8 14q12 24 27 45q5 8 15 21.5t20 23.5q36 46 89 66l2 3l3 2l6 5l1 7q-3 5 -12 6l-12 1l-14 2q-6 0 -11 5q12 8 33 18q9 4 27 11l33 5l34 2l19 -1l20 -1l12 -1l13 -1q23 0 27 -2l26 -1z" />
    <glyph glyph-name="D" unicode="D" horiz-adv-x="679" 
d="M566 550l44 -65l7 -14l7 -12v-5l2 -14l6 -12l5 -14l3 -13l-1 -5l-1 -6v-5v-4l-1 -5v-4l1 -22q0 -17 2 -21l2 -13l2 -13q0 -15 2 -18l3 -18q-15 -82 -66.5 -140.5t-130.5 -100.5l-69 -18l-38 -5l-38 -3h-8h-7q-44 0 -79 7l-22 3q-3 1 -7.5 1.5t-12.5 3.5t-30 15
q-19 14 -44 48q-11 21 -22 58h5q12 0 16 -2l17 -5l3 -2h4l13 -4l14 -1l15 3q8 3 15 13q0 12 -2 15v16l-9 121l-4 122v21l1 22v21q0 17 2 21q0 12 5 17l11 13l5 6l5 6l4 7l2 8l-1 6l-4 6h-5q-32 -3 -54 -17q-20 -8 -38 -39l8 -32l12 -30l2 -6l2 -5l12 -36q6 -18 6 -37v-4v-4
q-12 3 -20 17l-11 29l-6 16l-5 13l-10 18l-10 20l-31 62l-8 27l-5 39q0 20 2 25l9 26q35 22 82 37l43 8l47 3l21 -1l21 -1q25 0 35.5 -1.5t35 -7.5t64.5 -23q66 -24 120 -57q30 -21 55 -55zM497 459q-72 63 -159 93l-19 6l-18 6l-12 -6l-7 -32l-3 -32l-1 -16v-16l1 -47
l4 -47l3 -47l2 -47v-15v-12l-2 -13l-1 -19q0 -9 -4 -20l-6 -12l-7 -11l-2 -4l-2 -3l-9 -16l-3 -15l1 -4l1 -5h8l8 1q46 0 87 11.5t94 36.5q87 42 132 126q-12 97 -86 159z" />
    <glyph glyph-name="E" unicode="E" horiz-adv-x="722" 
d="M609 683l14 -26l7 -28l-1 -6l-1 -4q0 -12 -10 -21l-21 -13l-5 -2h-4l-326 -115q21 14 45 24l52 21l11 4l12 5l57 24q27 12 52 31l-1 5l-7 8l-10 4l-40 -3l-41 -3l-85 -6l-85 -3l-2 -4v-7v-9l1 -5l2 -8l2 -8l3 -14l2 -15l-2 -11l-3 -11v-4q0 -6 4 -13l12 -5l-2 -4l-3 -5
l-3 -5l-1 -4l-2 -4v-4l2 -7l9 -5h20h17l17 2l55 4h6l7 1l61 3l62 2l48 -1l25 -1q13 0 22 -3.5t13 -11.5l2 -15l2 -14q0 -6 5 -10q-28 -28 -70 -43l-82 -16l-3 -1l-63 -12q-25 -6 -55 -21l-18 -9l-20 -6q-21 -3 -35 -13q-16 -6 -24 -26l1 -8v-8l-1 -12v-11l-1 -12v-12l3 -28
q3 -13 13 -21h9h8h27h24l14 2q19 0 29 2l35 7q75 11 127 25l82 17l82 13l3 -6l1 -6l-1 -7l-3 -6l-3 -6l-3 -5l-6 -8l-3 -7q-24 -62 -82 -86q-49 -14 -122 -25l-5 -1h-4l-52 -7q-28 -3 -49 -10q-25 0 -32 -2q-25 0 -31 -2l-56 -4l-55 -2h-27l-26 3l-27 3l-26 5q-16 9 -24 22
q-6 7 -14 31l-4 13l-1 13q0 27 15.5 45.5t34.5 33.5l3 2l22 20l19 24q0 15 -2 19v21q0 36 -5 51q-3 20 -27 35q-13 2 -21 10l-10 22q0 17 10 27l22 19l4 3l14 10l10 12l-6 125l-14 10l-15 5l-18 6q-1 1 -2 1q-6 4 -12 11q0 12 -2 15l-3 17l-2 3l-3 16l-1 13q0 12 2 15l9 13
l38 -11l12 -1h13h12h13l44 1l45 1l89 5h18h15l17 2l50 3l46 1l46 1h16l18 -1l16 -1h17zM131 159q0 8 -7 14l-15 6l-13 -3q-7 -3 -9 -8l-2 -5l-2 -7l-2 -2l-2 -9l-1 -6l2 -8l10 -5l7 -2l8 -1q9 0 17 5q6 6 9 19v4l-1 4zM333 320l-9 -1l-15 1l-14 2h-4l-14 1l-12 1
q-15 0 -25.5 -7t-10.5 -26l1 -4v-5l6 -7l6 -4l3 -1q9 0 17 4l16 10l4 2l4 3l9 5l10 3l8 5l10 3h4l13 3q2 8 2 14z" />
    <glyph glyph-name="F" unicode="F" horiz-adv-x="671" 
d="M44 693l14 2l4 -1h5l13 -5l13 -8l86 1l42 1l43 1h67h25h26l16 2l43 1l46 1l90 4q21 -3 32 -20l13 -34l6 -23l12 -19l-72 -45l-75 -41q-55 -27 -153 -67l-26 -11l-26 -10q-7 -4 -13 -15l-3 -20v-4v-5v-6v-5v-9l-2 -8l8 -9h12h11l69 2l53 3h33l21 4l32 5l32 9l3 4l3 4l6 9
q3 3 9 3h4l4 -2q6 -6 8 -10l2 -11l-1 -7v-7l-2 -8v-7v-5l3 -8l8 -7l1 -8v-8v-4v-4q0 -10 -2 -14l-7 -17q-5 -11 -22 -18q-10 0 -12 -2h-13l-61 -6l-60 -5q-30 0 -37 -2h-36h-23l-24 1q-6 -8 -9 -17l-2 -16q0 -18 5 -28l12 -27l9 -18l6 -17l3 -11l5 -12l2 -8l3 -8l3 -11
l1 -10q0 -9 -3.5 -15.5t-16.5 -13.5l-25 -8l-28 -4l-8 -1h-7q-22 0 -37 4t-27 19l-3 32l-3 32l-4 47l-2 45v6v6v5l1 6q0 18 -15 30l-27 18l-3 1l-28 18q-12 9 -15 23l-3 15v6q0 15 10 24l24 17l9 5l9 5q6 0 12 7.5t9 18.5l1 3l-1 10v11l-2 23v25v5v6q0 31 5 47q3 20 15 43
q-3 6 -13 7l-14 3l-15 3q-7 2 -12 7q-16 6 -32 21l-20 30l-12 18q-3 9 -13 16l-2 2l-3 6v4zM151 346l-3 10q-3 3 -8 3l-4 -1l-2 -2l-2 -2l-5 -7l-2 -7l1 -3l2 -4l14 -3l7 5l1 8zM512 567l-28 2l-28 1l-32 -1l-32 -1q-25 0 -32 -2h-32h-8h-8h-8l-8 1q-8 -5 -17 -23l-4 -28
l1 -19l3 -18l2 -20l1 -18v-6l-1 -3l15 -2l36 19l37 19l7 4l8 4l62 32l32 18l28 20z" />
    <glyph glyph-name="G" unicode="G" horiz-adv-x="796" 
d="M347 691l40 5q42 0 86 -18l42 -18q7 -3 42 -22l13 -8l14 -7q28 -18 48 -49q22 -31 22 -64v-6v-4l-1 -5l-1 -5l-1 -4v-4l-6 -22q-2 -5 -13 -11q-25 6 -43 20l-38 27l-51 34q-16 11 -56 20q-72 -12 -135 -60.5t-111 -110.5l-10 -20l-10 -20l-30 -68q-13 -39 -13 -74v-10
l1 -10q40 -34 108 -62q62 -18 129 -18l54 3l54 7l8 1l10 2q19 5 36.5 16.5t24.5 30.5l-11 9l-27 3l-27 1h-15h-16l-15 -1h-16l-45 3l-20 4l-21 7q-38 15 -48 73v12v13q0 18 6 36t29 18l17 1l14 1l13 1h14q27 0 57 -6q29 -3 51 -21l-7 2l-7 2l-25 4l-27 4h-5h-4l-26 -3
q-8 0 -22 -9q0 -7 9 -13l19 -2l11 -1l8 -2l55 -1h25l29 -2l31 -1l32 -1l33 -1h34l47 1h18h15l17 2l-3 -22l-2 -20q-3 -24 -16 -47q-7 -18 -36 -35l-8 -3l-8 -1h-8l-8 2l-8 1l-8 1q-7 0 -12 -3.5t-9 -11.5q5 -5 6 -11l2 -10q0 -9 -5 -17q-3 -8 -10 -15l-7 -11l-5 -10
q-41 -37 -106 -58q-31 -9 -63 -14t-64 -5q-50 0 -98 9q-23 5 -45 11t-48 17l-24 11l-25 14q-37 20 -69 49q-26 26 -35 72l-1 13v14l-1 12v14q0 98 31 185t116 149q18 14 40 21l45 14l3 1l4 1l21 6q16 3 21 8q-11 6 -16 14l-4 14l3 13l7 15l22 8z" />
    <glyph glyph-name="H" unicode="H" horiz-adv-x="864" 
d="M198 679l12 -6l36 -27q10 -8 26 -33v-69v-68v-54v-55l66 -15l75 -13l102 -15l45 -1q8 0 14 11l3 20v10l3 10l-1 26v26l1 55l1 31v22q3 11 4 16v18t4 30l8 42l3 22l4 24l3 1l3 1l5 1l9 -3l9 -5l9 -7l9 -2l6 -2l7 -2l3 -2q18 -3 31 -13q8 -3 14 -25l-1 -44l-1 -43l-1 -38
v-26q-3 -13 -4 -19l-1 -13l-1 -14l-4 -49v-18v-15l-2 -16q6 -15 22 -19l32 -2h5h4q14 0 25.5 -3.5t20.5 -18.5v-4l2 -11l4 -11l2 -4l2 -4l7 -15l3 -13q-1 -5 -2 -6l-4 -7l-20 -10l-10 1h-9l-14 -1l-12 -1h-4l-14 -1h-15h-5h-5q-6 -13 -9 -26l-2 -27v-9l1 -8v-14l2 -13
q0 -17 2 -21l1 -20v-6l6 -15l3 -16v-4l-1 -4l-1 -5l-2 -4l-13 -9l-13 -2l-15 2l-16 7l-5 3l-6 3l-17 9l-17 6l-5 2l-5 2l-4 2l-4 2l-20 10l-18 15q12 6 19 19l5 24l-1 13l-2 14l-2 17v15v9q0 7 2 9l-18 18l-32 3l-32 3l-95 9l-41 3l-56 8l-2 -12l6 -10l3 -4l52 -32l55 -28
l9 -4l9 -5l50 -25l48 -27l-33 9l-33 13l-11 5l-11 5l-33 15l-33 12q-9 0 -12 2l-12 6l-22 12l-29 15q-12 6 -30 9l-6 -22l-1 -23v-19q0 -15 2 -18v-7l1 -6v-13l1 -12q0 -20 -3.5 -33.5t-16.5 -29.5q-28 6 -54 25q-24 20 -45 45l-7 168l-18 14l-20 12l-40 27q-18 15 -18 46
l-1 17l-3 16l-2 10l-1 10l-1 5v5v6l1 6l1 5l2 6h4l9 -1l9 -3l9 -4l10 -4l17 -8l16 -4l12 3q3 1 11 15l7 57l3 55v11v44q-3 16 -4 23l-3 35q0 16 -2 20l-6 24l9 7l10 2l6 -1l5 -1l6 -1l6 -2l5 -2l5 -2z" />
    <glyph glyph-name="I" unicode="I" horiz-adv-x="193" 
d="M60 690l14 -6l2 -2l3 -1l38 -21q14 -7 26 -33l8 -109l5 -111l1 -45l1 -47l1 -45l1 -46l3 -2l3 -2l6 -3l6 -1l6 1q0 -16 -4 -29l-8 -28l-4 -10l-3 -10l-4 -18l-2 -19l1 -17l6 -16l-2 -13v-15q0 -16 -3.5 -29t-25.5 -13q-31 0 -68.5 15t-57.5 44q10 28 19 71l4 33l1 41
l-1 38v14v11l-2 13l-1 55l-1 56l-3 109l-1 40v23q-3 17 -4 25l-3 54l-5 34q0 9 7 12l15 5l7 1l7 2z" />
    <glyph glyph-name="J" unicode="J" horiz-adv-x="456" 
d="M330 676q30 -6 45 -31l10 -18l16 -33l3 -6l2 -6l6 -17l8 -16l7 -57l3 -57v-10l-1 -9l-1 -10v-9q0 -12 -2 -16l-1 -14q-12 -111 -43 -212t-115 -182l-4 -2l-4 -4l-4 -2l-3 -3l-17 -11q-9 -6 -19 -6h-5l-4 1q-3 18 -13 18q-10 -2 -20 -8l-10 -4l-10 -3h-4l-5 1l-4 1
q-14 0 -29 11q-13 7 -25 24l-2 3l-2 2l-17 44l-5 26l-3 24v6v7q0 20 6 45t19 45q9 12 26 19l30 9l7 1l7 1l2 -9l1 -9l-1 -11l-2 -11l-2 -12l-1 -10l1 -10l1 -9l2 -14l2 -14l5 -34l10 -37q7 -23 36 -52q9 0 15 7l10 15l2 5l2 5l3 5l23 94l21 108q18 102 18 207l-3 74v18
q0 11 -2 21q0 11 -6 37l-20 8l-24 2l-14 -1h-13l-13 -1h-12l-14 -5l-14 -4l-6 -2l-5 -1l-16 -4q-7 0 -22 -7l-31 -18l-3 -6l-1 -5l3 -9l7 -7l2 -2l8 -9q3 -3 -2 -10l-5 1q-16 3 -32.5 15.5t-30.5 37.5l-8 21l-3 25v9q0 7 2 9q35 35 84 52t95 17l27 -1h16l12 -4l27 -4l27 -9z
" />
    <glyph glyph-name="K" unicode="K" horiz-adv-x="588" 
d="M476 681l20 -22l6 -8l6 -8l13 -21q6 -12 6 -26q0 -10 -2 -12l-3 -11q-54 -63 -123 -120l-67 -55l-71 -55l-21 -16l-21 -15l-16 -13l-16 -12v-17l33 -28l35 -26l71 -46l6 -4l6 -4l33 -21l33 -21l3 -1l11 3l5 8q0 6 -4 14l-5 13l-7 12l-3 12l17 -10l18 -10l9 -5l8 -4
l38 -21l23 -17q31 -21 45 -56q0 -23 -12.5 -35.5t-32.5 -22.5h-5h-6q-60 0 -105 26q-53 30 -94 62l-9 6l-8 7l-12 8l-11 8l-18 12l-17 14l-25 19q-13 10 -26 15l-7 -26v-12l-2 -17v-4v-12q0 -7 -2 -13q0 -13 -5 -23l-7 -13l-5 -15l-5 -15t-6 -10q-4 -9 -18 -12l-10 2l-13 7
l-9 7l-9 7l-4 3l-4 3l-17 13l-16 16q-15 15 -15 37v6l2 8q24 12 31 34l6 21l2 23l-1 16l-1 16l-1 4v4l-2 20l-1 19l-3 4l-3 3l-3 3l-2 3l-12 15l-4 18v4l2 6l30 33v19l-1 18l-1 14v31l-4 20l-3 35l-4 36l-7 66l-5 67l6 7q3 3 10 3l4 -1h4l9 -5l9 -4l7 -6l7 -3q31 -25 44 -65
l8 -29l12 -54v-4l5 -32l7 -30h15q69 45 135 104t120 126v5q0 7 2 11l7 7q5 -1 23 -15z" />
    <glyph glyph-name="L" unicode="L" horiz-adv-x="577" 
d="M212 691l27 4l27 1q37 0 79 -11.5t69 -35.5q11 -15 15 -35l4 -39v-12q0 -6 -2 -14l-3 -23l-3 -1l-9 1l-7 5l-7 6l-7 8l-12 11l-13 8l-3 1l-3 2l-47 18l-24 6l-26 2h-6l-5 -1l-6 -1h-6q-12 -24 -23 -74l-5 -39l-2 -40v-8v-7v-36q0 -27 2 -34v-33l1 -31l-4 -4l-1 -4l1 -6
l4 -3l1 -8v-9v-8v-7l-1 -8v-7q0 -21 6 -39t30 -24l7 2h8h4h4l4 -1l5 -1l11 -1h9h4l3 1l4 -6l7 1h8q20 0 25 -2l26 -3l25 -4l25 -1q24 0 43 9t35 43q0 18 2 23l3 23v4l5 44l3 47h18l-5 -44v-16l-1 -13l-1 -14v-11l-2 -21v-11l-2 -21l16 -15l5 -19l-3 -14l-7 -13
q-5 -5 -14 -25l-3 -31v-6v-5l2 -17q0 -12 2 -16l1 -10l1 -9l-13 -7l-13 -2h-8l-7 2l-8 1l-7 2l-8 2l-7 2q-12 29 -40 39.5t-57 10.5l-18 -1h-19l-5 -1h-4l-23 -2h-22h-16l-15 2l-11 -8l-8 -10l-2 -2l-16 -17q-6 -6 -20 -7l-9 1l-11 5q-42 18 -76.5 44.5t-60.5 75.5
q0 11 9 20l19 5l10 -1h11l3 -1h4l7 -1h7q10 0 14 2l12 6l-7 41l-7 44l-7 44l-6 46l-4 36l-1 36q0 38 9 78t33 81l4 3l3 2l4 2l13 9q7 7 9 14l-6 5l-9 1h-6h-4q-10 0 -13 2l-5 9v4q0 16 8 24l20 17l3 2l3 3l3 2l4 3l19 7z" />
    <glyph glyph-name="M" unicode="M" horiz-adv-x="791" 
d="M725 622l3 -89l4 -89v-8l1 -8l7 -195l3 -81l11 -112l1 -6l1 -4l-3 -18q-3 -7 -10 -12l-13 3l-12 3l-7 1l-6 2l-46 15q-19 9 -31 36l-4 47l-4 79v124v44l1 45l1 67l1 69l-1 73l-3 74l10 4l11 2q12 0 23 -8q8 -3 23 -16l3 -3l3 -2zM49 666l25 20q12 7 31 10l40 -57l37 -56
l14 -25l16 -24l51 -80l53 -77l70 -94q11 7 22 24l14 32l1 3l7 19l10 19l20 39l17 42l1 3l2 4l36 78q20 43 53 69h4h4q8 0 16 -5l3 -3q6 -5 8 -9l2 -20l1 -20v-38q-3 -15 -4.5 -24.5t-4.5 -21.5t-11 -30l-19 -51l-22 -56l-5 -14l-6 -14l-13 -32l-12 -32l-40 -83l3 -9l7 -7
l2 -2q16 0 26 17l11 32l1 4l1 4l2 8l2 7l6 2l1 -9l1 -9l-1 -11l-1 -11l-6 -23l-7 -21l-4 -10l-3 -10l-1 -4l-1 -7l-1 -7q-2 -11 -3.5 -15.5t-4.5 -12.5t-17 -18l-6 -1l-14 3l-12 7l-14 7l-12 4q-7 0 -12 -4l-10 -12l-4 -1h-4q-12 0 -21 6l-17 15l-3 3l-2 3l-10 8l-10 9
l-2 10l-1 12l1 15l3 16v4l2 5l2 11q0 7 2 11l-26 36l-26 35l-11 13l-10 13l-31 40l-30 42q-6 0 -10 -4l-2 -9v-6l1 -4v-6v-5l-1 -8l-2 -6l-13 -50l-8 -53q-6 -59 -22 -105q-14 -52 -65 -81l-11 -6l-13 -1l-13 1l-10 6l22 107l19 110q0 7 2 11q0 10 2 12l17 103q9 57 22 101
q-3 16 -11 24l-13 20l-4 4l-2 4l-12 17l-11 21l-5 13l-5 14l-11 26l-4 29l1 12l3 12z" />
    <glyph glyph-name="N" unicode="N" horiz-adv-x="709" 
d="M57 694l7 2q8 0 12 -8l9 -19l1 -4l1 -3l8 -19q3 -9 13 -13l11 5l10 6l2 2l12 7l15 3h6l6 -2q27 -15 34 -43l5 -28l2 -28v-4v-34q0 -16 5 -29l32 -41l32 -42l52 -62l56 -63q49 -52 130 -107q3 -3 8 0l6 7l2 4l-3 179l-3 79q0 27 -3 53t-5 41l-7 77l-7 77l6 1l7 1l6 1h7
q27 0 55 -15t50 -40l6 -34l5 -37l3 -70v-23v-23l-2 -14v-36l-4 -23l-1 -16l-1 -14l-6 -75l-2 -75v-14l1 -14v-14l1 -14l2 -3l4 1h5l8 14l4 16v5v6v6v6l-1 5v6l1 16q0 10 5 16l6 -3l3 -40l2 -40v-20q0 -16 -2 -24q0 -13 -6.5 -42t-30.5 -61l-20 -3h-19q-66 0 -125 39l-54 42
l-54 50l-24 23l-23 23l-15 15l-13 15l-8 10l-8 10l-26 29q-8 9 -30 25l-2 -52v-54v-15v-14v-11v-12l7 -16l6 -24l5 -25l1 -23l-1 -16q0 -12 -2 -16q-10 0 -12 -2l-12 -1q-27 0 -57 15.5t-48 37.5v8v9v8v9l1 70l3 73l3 72l1 74v22l-1 23l-1 22l-1 22l-3 3l-2 4l-30 41l-19 31
l-16 40q-6 21 -6 43l1 20l6 22l4 10l5 11z" />
    <glyph glyph-name="O" unicode="O" 
d="M517 635q31 -28 71 -76q23 -37 41 -101l12 -57l4 -27l1 -27v-7v-7q0 -45 -9 -90.5t-28 -80.5q-11 -17 -36 -31q-3 -1 -16.5 -4.5t-26.5 -6.5l-8 -1h-7h-4h-4l-9 -15l-6 -17l-1 -4l-4 -12l-8 -16q-3 -8 -19 -17q-19 -14 -62 -29q-33 -9 -68 -9h-6h-5h-16h-11q-7 2 -10 2
l-26 6l-22 7q-33 10 -74 36q-63 48 -96 120t-33 154v22l4 31l3 27l8 26q18 62 59 121.5t105 94.5q11 6 23 9l26 4l5 1q18 0 38 6t35 28l13 1h14h8l9 -1q13 0 26 -4q13 -2 25 -7q45 -14 85 -49zM489 455l-8 17l-24 39q-10 19 -29 39q-28 36 -85 47q-102 -48 -144 -145
q-17 -43 -31 -100q-5 -24 -8 -52.5t-3 -56.5q9 -22 29 -40l40 -32l14 -10l14 -10q17 -9 37 -15l40 -4h5h5q19 0 31.5 2t29.5 9q31 9 54 25l5 12l1 13l-2 17l-5 17l-5 19l-2 18l1 7l1 6q12 -9 19 -26l10 -33l1 -6l7 -25l12 -22h4l9 37l6 39l2 25l1 26q0 35 -6 73.5t-18 73.5z
" />
    <glyph glyph-name="P" unicode="P" horiz-adv-x="618" 
d="M157 690q42 6 84 6q93 0 176 -33.5t138 -116.5q15 -16 25 -45.5t10 -58.5v-6v-7q0 -31 -13 -67l-12 -32l-14 -29q-45 -60 -116.5 -90t-152.5 -39l-11 -2h-10l-4 -7l-2 -6l-2 -7v-6q0 -12 4 -23l10 -21l4 -10l4 -8l1 -10l2 -10l1 -4l4 -20l2 -16l-1 -9l-2 -9l-8 -2l-7 -1
l-8 -1h-8q-26 0 -50.5 9t-45.5 25l-4 15l-2 22v40v11v10v19q0 15 -2 19l-15 9l-15 7l-28 14q-12 6 -19 23l-3 16q0 12 -2 16v8v8l3 39l9 36l7 -6l7 -8l2 -5l4 -4l13 -16l20 -8q9 0 12 3l5 14l-1 5l-1 6l-2 10v7l1 7l3 6l1 16v17l-1 20v22l-1 21v22v5v6v24l1 17l8 29
q6 22 28 47q-3 5 -8 6l-9 2l-8 -1l-7 -2q-7 0 -9 -2l-8 -1l-6 -2l-5 -1l-6 -3l-7 -2q-12 -3 -21.5 -9.5t-18.5 -21.5l3 -25l4 -19l11 -43l9 -34l7 -32h-6q0 19 -13 42l-22 46l-4 6l-3 8l-20 44q-8 22 -8 42t9 36t41 36l33 8zM407 520q-60 56 -137 75l-9 -40l-2 -36v-81v-21
v-18v-18v-14l-2 -15l-1 -18l-3 -27l11 -10h4l6 1q62 7 117 23.5t99 67.5q-21 75 -83 131z" />
    <glyph glyph-name="Q" unicode="Q" horiz-adv-x="663" 
d="M532 628l17 -23l15 -25l4 -8l5 -8l22 -68l8 -38l4 -34l1 -18l1 -18q0 -58 -18.5 -111.5t-59.5 -97.5l-6 -7l-7 -7l-22 -20l-24 -18q0 -6 5 -11l12 -4l7 -2l5 -2l14 -3l16 -3l10 -2q7 0 11 -2l14 -2h13q16 0 25.5 3.5t22.5 19.5l6 -2q-9 -33 -27 -59.5t-55 -47.5l-30 -8
l-29 -2q-33 0 -48 5l-46 12h-4l-4 2l-44 11l-43 7l-62 20l-64 13l-16 -18l-9 -21l-10 6l-2 11v6l2 6l1 9v7q0 7 -3.5 12t-17.5 6q-42 18 -67 55q-23 37 -23 84v12q0 6 -2 12v24v18l1 20v24.5t4 27.5q3 20 9 37l18 46q27 66 80 110q21 13 58 28l31 8l34 3q20 0 24 -2l24 -6
l33 -23q-94 -39 -154.5 -129.5t-72.5 -198.5v-5l1 -4l6 -40q3 -14 18 -34l6 -1q7 0 11 2l10 7l4 2l3 2l16 10l18 4l9 -1l10 -4q13 -9 32 -17l21 -5l20 -1l37 3l36 7q10 0 12 2l12 3q25 40 50 109q15 60 15 122l-1 36q0 19 -2 27l-4 28q-1 7 -4.5 20.5t-9.5 29.5
q-9 32 -35 52q-24 21 -54 39l-3 1l-2 2l-23 5l-22 1h-10l-9 -1l-37 -6l-35 -9v8l31 11l34 14l37 14q18 8 39 12l24 5l24 2l21 -1q7 0 25 -7q16 -3 38 -22q24 -15 44 -38z" />
    <glyph glyph-name="R" unicode="R" horiz-adv-x="661" 
d="M487 616q45 -39 84 -96l8 -22l3 -23v-6v-6l-6 -28l-8 -26q-39 -38 -95 -59q-50 -18 -119 -29q-20 0 -24 -2l-23 -1v-14l69 -47l70 -47l8 -6l8 -5l62 -42l62 -41q6 2 9 8l7 12l9 15q3 6 11 6l4 -1l5 -1q0 -32 -11 -60l-18 -56l-6 -18l-6 -17l-6 -2l-5 -1l-6 -1h-5
q-11 0 -22 4l-20 10l-7 4l-6 4l-15 8l-14 7l-51 32l-46 36l-93 72l-23 18l-22 18l-10 -16l-2 -16v-9l2 -10v-9l1 -10q0 -10 -2 -12l-3 -11l-2 -4v-4l-6 -17l-8 -19q-6 -19 -23 -30l-11 -3l-10 -3l-14 -4l-13 -2h-6l-4 1l-5 2l-5 3l5 52l1 50v12v12v8v8l1 56l1 29v18l4 13
q-3 6 -13 13l-15 10l-4 2l-20 12q-9 8 -9 21l1 11l6 13l2 4l4 7l13 10l5 3l7 -1h6l4 -2h5l6 2l4 6l2 20l1 22v5v5v24q0 12 8.5 36t43.5 36l6 -2h7l11 1l11 3l10 3l9 1q6 0 10.5 -3.5t8.5 -11.5v-6l1 -5v-6v-6v-16v-13l-2 -13l-6 -40l-3 -21l-4 -20l3 -7l1 -7l-1 -7v-7l-1 -3
q0 -7 -2 -9v-8l1 -11l10 -8q35 0 64.5 13.5t59.5 41.5q51 47 77 115l1 4q0 12 -7 18l-15 8l-4 2l-11 6l-9 8q-33 14 -75 24l-44 8l-42 4h-10h-10q-49 0 -91.5 -12.5t-74.5 -44.5v-5l1 -10q0 -7 2 -9l1 -6l2 -6v-4v-5q-20 19 -36 50q-8 17 -12 32.5t-4 33.5l1 14l3 15
q33 36 79 52q51 14 96 14h13l13 -1l32 -1q11 0 33 -7l27 -4q11 0 35 -7l5 -2l6 -1q68 -15 114 -57z" />
    <glyph glyph-name="S" unicode="S" horiz-adv-x="615" 
d="M226 440l135 -20q7 0 11 -2l12 -1l5 -2h5l27 -6l27 -6q42 -9 80 -34q38 -21 48 -72l1 -4v-4l-1 -7v-6l-1 -8v-6l2 -14q2 -6 9 -12v-5v-6q0 -54 -29.5 -94.5t-79.5 -69.5q-18 -8 -49 -19t-64 -22l-63 -15q-32 -3 -36 -5h-22h-10h-9h-36l-23 4q-25 3 -58 15l-10 12l-10 12
l-2 2q-23 28 -40 53.5t-17 58.5v5l1 5v4l1 6q23 44 68.5 66.5t93.5 22.5h5l6 -6q-34 -15 -50.5 -40.5t-33.5 -63.5l-5 -14l-4 -13l36 -4l36 -1q94 0 182 35.5t154 100.5q0 11 -7 15l-15 8l-9 3l-7 4l-22 6l-41 8l-66 9q-70 9 -142.5 30t-111.5 92l1 41q62 -24 128 -36z
M475 692l13 -2q27 -6 51 -21q24 -12 34 -43v-5v-6q0 -37 -16.5 -67t-47.5 -56h-11l1 8l1 9l1 3l1 10l1 10l-3 15l-6 14l-5 3l-4 3q-13 8 -41 14l-45 2h-8h-7l-13 -2l-13 -1l-35 -4l-24 -6q-31 -6 -59 -16q-57 -18 -101 -62l-20 7l-15 13v7l1 16q0 12 2 16q2 16 7 32t17 28
q56 47 134.5 66t157.5 19h10h10l10 -1h10z" />
    <glyph glyph-name="T" unicode="T" horiz-adv-x="572" 
d="M273 672l53 5l55 1h13h14h13h14l55 1l24 1l28 6l3 -11l1 -12l-2 -20l-5 -20l-2 -4l-1 -3l-5 -17l-3 -16q-17 -21 -43 -27l-52 -4h-4h-4h-7h-7h-8h-6l-5 -1h-4h-6l-6 1h-6h-5l-13 -3l-4 -10v-5l1 -4l3 -440q0 -11 4 -19l9 -15l8 -16l4 -14l-1 -6l-3 -5l-5 -6l-8 -6l-15 -2
l-16 -1q-36 0 -69 15t-54 47l-1 5v5q0 9 4 17l11 15l2 3l8 14l4 15l-1 8l-3 8l-4 21l-3 22q0 7 -2 11q0 10 -2 12l-25 137q-12 77 -35 134l2 8q15 -3 19 -16l5 -22l3 -16l7 -13l3 -9l3 -8l4 -12l4 -11l6 -21l8 -18l7 -19q3 -10 10 -18l2 36q0 30 2 38v22q0 20 2 24l3 55
l9 53l-1 4l-2 3l-4 3l-2 2l-22 2h-21h-30h-29h-24l-34 5l-18 3q-12 2 -22 7.5t-19 22.5l-4 26v9l1 9q0 7 2 11l3 12q0 12 2 15l3 14l7 4l6 2l7 -2l6 -4l3 -4l4 -3l12 -9l14 -4h6l6 2h165z" />
    <glyph glyph-name="U" unicode="U" horiz-adv-x="587" 
d="M117 653l3 -8l4 -7l2 -4l13 -29q5 -13 5 -33v-7l1 -77l1 -36l1 -38v-50v-23l2 -27v-25v-24l-1 -47l-1 -46q17 -12 47 -16l54 -2h8h6h16l15 -1l18 3q15 0 19 2l5 1h6l42 9q21 6 34 25l-1 55v55l-1 42l-1 43v83l3 100l9 103q1 2 3.5 5t5.5 6l15 3l10 -1l10 -3l8 -5l9 -5
q10 -6 21 -13t22 -16q20 -14 30 -37q0 -44 -10 -78l-18 -74l-1 -3l-10 -38l-8 -38l1 -67l-1 -68v-35v-34l1 -80l6 -74l-1 -4l-1 -3l-2 -7l-6 -5q-19 3 -37.5 17t-33.5 33l-4 11l-1 12l-1 3l-3 19q0 5 -13 11q-21 -44 -60.5 -56.5t-83.5 -12.5l-20 -1l-18 1h-17h-16
q-34 0 -73 21q-33 21 -57 48q-12 22 -22 56l-6 28l-5 40l-2 23v23v19l1 18l3 90l1 92l-1 85l-3 83l-3 4l-2 4l-6 8l1 11l8 4l10 1q10 0 12 -2q10 0 12 -2l4 -2l4 -1l8 -3l8 -2z" />
    <glyph glyph-name="V" unicode="V" horiz-adv-x="645" 
d="M600 674l11 -28l5 -28l-1 -7v-7l-2 -8l-3 -6q-7 -42 -17 -74.5t-27 -67.5l-63 -135l-25 -50l-24 -50l-24 -34l-22 -32l-2 -4l-2 -3l-25 -36l-26 -37l3 -2l4 -2l4 -1l7 6l4 6l2 4l9 13q3 3 18 8h6l1 -4v-4q0 -19 -11 -33l-24 -28l-10 -9l-9 -8l-16 -10q-6 -3 -14 -3
q-12 0 -16 2l-14 7l-4 2l-3 2l-19 8l-20 4l-13 -2l-14 -6q-9 3 -14 8l-5 9q0 7 5 13l11 14l11 14l5 16l-9 20l-8 22l-14 35l-15 36q-45 111 -87 225l-39 114l-35 118v10l1 10l7 4l3 1q6 0 8 -2l3 -6v-4q37 -9 60 -28l30 -20l18 -16l22 -74l21 -75l1 -5l1 -4l37 -134
q20 -73 49 -129l12 4l59 129l57 131l22 52l22 52l19 45l20 46l5 9l1 11l3 17l13 11l17 -3l17 -6l16 -7l18 -3h4z" />
    <glyph glyph-name="W" unicode="W" horiz-adv-x="937" 
d="M263 141l-17 47l-16 43l-7 17l-10 25l-33 74l-30 76l-5 11l-4 12q-21 58 -46 113l-24 54q-3 8 -6 14.5t-8 13.5l-14 26v4q0 6 5 9l12 5l8 -1l6 1h6q29 0 59 -18q27 -15 46 -44q18 -44 33.5 -84t26.5 -71l54 -158l4 -11l4 -11l9 -29l10 -28l1 -5v-6l-1 -3l1 -9l5 -5h8
q17 37 27 74l15 80q0 16 2.5 29.5t7.5 35.5l12 63l16 90l5 33l5 59l7 5l10 1l11 -1q7 0 11.5 -4t14.5 -22l8 -27l6 -20l7 -17q12 3 19 14l10 23l8 19q5 10 13 15l6 -1l6 -1q14 -3 26 -14q8 -5 17 -26l5 -10l4 -10l1 -11l1 -10q0 -13 -6 -34l-4 -15q0 -7 -7 -18l-8 -20
l-6 -19l-28 -66q0 -12 6 -32l13 -30l1 -3l2 -2l9 -22l6 -22q0 -35 11.5 -65t27.5 -57q9 0 14 8l7 15l2 7v4l2 4l36 127l39 127l1 5l2 5l35 112l32 114l7 2h8h6q12 -3 32 -15l26 -26l2 -3l2 -2l3 -27v-26v-22q0 -16 -2 -25l-6 -38q-2 -13 -6.5 -35.5t-12.5 -47.5l-4 -17
l-4 -17l-5 -17l-4 -16l-21 -61l-18 -61l-25 -80q-8 -31 -30 -77l-17 -20l-20 -16l-5 -4l-5 -4l-19 -16l-13 -16l-10 -5l-11 -1l-10 1l-8 5q-7 6 -11.5 11.5t-12.5 17.5l-20 34l-30 69l-4 9l-3 9l-21 48l-10 22l-13 24q-11 -5 -26 -25l-17 -33l-10 -19l-10 -17l-3 -6l-2 -5
l-3 -7l-2 -6l-15 -27q-7 -10 -27 -19l-6 -1l-7 2l-4 1l-4 1l-5 -2l-4 -4l1 -8l2 -7l2 -3l2 -8l2 -7l-3 -8l-8 -5l-6 -2l-6 -1h-6q-17 0 -28 11l-20 24l-1 3l-2 2l-9 12l-9 10zM441 482l-2 7l-5 12l-8 5l-4 -17l-5 -17l-1 -3l-11 -39l-4 -39l1 -6v-4l8 -3l36 98z" />
    <glyph glyph-name="X" unicode="X" horiz-adv-x="697" 
d="M660 504l-7 -31l-7 -46l-7 -81l-1 -19l-1 -19l-6 -69l-2 -29q0 -21 -5 -36l-21 -160l-14 -11l-16 -3h-8l-9 2l-12 4l-11 4l-8 4l-8 3q-57 35 -105 84l-51 59l-35 43h-16l-28 -28l-26 -28l-5 -6l-5 -5l-60 -64q-26 -26 -69 -49l-3 -1h-5q-11 0 -19 4l-13 11l-3 2l-12 8
l-13 4l-6 -1l-6 -2l-4 13l-1 14v6l1 5v5v6q0 14 -2 19q0 6 -8 13q0 6 7 10l15 7l8 2l7 4l19 19l19 20l18 17l18 18l48 48l43 51v4q0 14 -9 35l-18 30l-2 3l-3 3l-16 23l-11 26l-19 32l-14 34l-2 3l-1 4l-15 33l-19 32q-6 3 -13 0l-10 -9l-2 -3l-9 -8l-12 3q12 30 38 53
q26 25 59 36q21 -3 38 -18l26 -38l4 -7l4 -6l8 -14l10 -13l16 -31l19 -32l19 -32l21 -31h11l44 45l43 48l31 35l55 56q44 44 100 72l4 -1h9l6 2l6 1l7 1l4 -1l6 -2l28 -31zM623 541l-9 4l-7 -2l-6 -2l-8 -4l-6 -5l-3 -2l-2 -2q-18 -29 -40 -55l-43 -50l-12 -13l-11 -12
l-44 -52q-15 -18 -35 -53l8 -11l8 -11l2 -2l2 -2l39 -52l43 -47l12 -9l11 -10l2 -2l3 -2l24 -19q2 -2 6 -3t21 -5q26 76 39.5 166t13.5 173v18v18l-1 17l-1 18q0 5 -6 13z" />
    <glyph glyph-name="Y" unicode="Y" horiz-adv-x="734" 
d="M626 696h6h5h14l20 -4q15 -3 30 -15v-5v-4q0 -79 -43 -145t-107 -113l-6 -14l-6 -15q-31 -68 -67.5 -134.5t-88.5 -121.5l3 -13l9 -2l29 3h11l19 2h27l37 5q8 0 20 4t23 11v-15l-15 -19l-16 -21l-39 -41q-15 -14 -44 -29l-90 -7l-91 -3l-49 1l-21 1l-26 4l-8 2l-7 3
q-15 5 -25.5 14.5t-10.5 26.5q2 15 5 18l5 20l8 29l7 30q9 0 13 -5l5 -11l5 -12l9 -7l12 -3l13 -4l10 -3q7 0 11 -2l8 -2h8q10 0 14 2l14 8l9 16l9 17l7 12l7 13l21 39l17 42l-9 2l-9 1l-10 -1l-9 -1l-10 -2h-10h-5l-4 1l-10 3l-8 5q-36 47 -57 89l-46 95l-3 6l-3 8l-38 79
q-18 40 -43 76l-4 1l-7 -1h-4l-5 -2h-4l-5 1l9 23l15 26l7 11l6 11l15 8l17 3l4 -1h5q9 0 20 -4l19 -6q32 -36 53.5 -82t40.5 -96l16 -45l19 -43l15 -19l14 -20l25 -35q9 -11 29 -26q18 3 25.5 17t11.5 29l1 3l1 4l3 9l3 9l18 39l18 42l4 10l4 11l28 61q5 11 13.5 26.5
t20.5 33.5q36 57 109 88h4zM630 560l-18 -36l-16 -32l-18 -26l3 -3l6 4l6 5q23 23 42.5 54.5t19.5 64.5q-15 -12 -25 -31z" />
    <glyph glyph-name="Z" unicode="Z" horiz-adv-x="841" 
d="M746 665l11 -18l10 -20l11 -23l13 -19l-3 -18l-52 -43l-55 -39l-9 -7l-10 -7l-73 -53l-35 -28l-31 -31l42 -7l40 -2h8h9l24 1h12q8 0 12 2h14h11l12 2l41 1h5l7 1l8 2l4 2q7 0 9 2l9 2q6 0 9 -6l4 -7l-4 -13l-3 -13l-1 -4q-6 -25 -15.5 -45t-36.5 -32l-10 -1h-8l-19 -1
l-16 -3l-8 -3l-8 -3l7 -6l7 -6l35 -33l31 -35q29 -35 29 -86v-5q-11 -23 -43 -35l-27 -5l-29 -2h-13l-13 1h-14l-12 1q-23 0 -28 -2q-13 0 -26 -5l-64 1l-64 1l-126 3l-45 1l-45 1l-45 1l-46 1q-7 0 -12 -4l-11 -5l-3 -1l-3 -2l-20 -9l-20 -4l-9 1l-9 3l-6 14l-5 14l-5 19
l-2 20l1 11l2 13q6 8 25 17l28 6l3 1h4l8 1l8 1l183 142q-3 8 -13 17l-19 9l-4 1l-20 10l-14 15l-5 11l-7 11l-12 25l-5 27l1 10l3 11l31 7l32 3l18 -1l20 -2q27 -3 68 -18l28 -11l35 -15l38 31l38 32l57 51l57 54v11l-73 3l-76 1h-34h-33h-12h-12l-69 2l-71 2l-32 1h-19
q-11 3 -15 4l-37 8l-29 9q-11 5 -20 27l-9 37l-4 19l-5 19h4h4l12 -1l13 -3l6 -2l6 -1l18 -6l20 -2h5l6 1q23 0 28 -2q23 0 29 -2l28 -1h28h15h14h12l41 1q22 0 41 4l61 3l62 8l93 9l92 6q18 -12 31 -31zM629 235q-59 9 -124 9h-4h-14h-12l-49 1l-22 1q-8 0 -23 7l-29 -21
l-26 -19l-16 -12l-16 -12l-29 -23l-30 -27h18h20l18 -1h19l72 1l35 1l36 1h7h7l52 1l54 1h111l6 1l7 1l18 3q6 3 7 13v4q-33 56 -93 70zM341 394q-33 9 -71 9h-6v-12q15 -11 45 -22l33 -5h21h10q10 0 12 2h10l11 1q-31 18 -65 27z" />
    <glyph glyph-name="bracketleft" unicode="[" horiz-adv-x="278" 
d="M68 -199v915h194v-73h-106v-769h106v-73h-194z" />
    <glyph glyph-name="backslash" unicode="\" horiz-adv-x="278" 
d="M208 -12l-208 740h71l207 -740h-70z" />
    <glyph glyph-name="bracketright" unicode="]" horiz-adv-x="278" 
d="M213 -199h-194v73h106v769h-106v73h194v-915z" />
    <glyph glyph-name="asciicircum" unicode="^" horiz-adv-x="469" 
d="M117 337h-91l173 391h71l173 -391h-89l-120 291z" />
    <glyph glyph-name="underscore" unicode="_" horiz-adv-x="556" 
d="M-15 -199v64h582v-64h-582z" />
    <glyph glyph-name="grave" unicode="`" horiz-adv-x="333" 
d="M227 583h-71l-113 137h118z" />
    <glyph glyph-name="a" unicode="a" horiz-adv-x="786" 
d="M415 684l41 -19l20 -11l19 -8l19 -62l19 -62l2 -8l2 -8l36 -117q18 -57 42 -114q5 -9 12 -12l17 -2h4l5 1h4h5q7 0 11 -2q6 0 10 -4l9 -6l9 -5l30 -23q14 -12 25 -32l-10 -4l-12 -1h-11l-10 2l-12 1l-12 1h-5l-4 -1q-7 3 -12 -2l-9 -9l-2 -2l10 -25l9 -25l2 -5l18 -49
q11 -23 32 -40l1 -5l1 -3q0 -8 -6 -17q-6 -6 -15 -6l-5 1l-111 17l-104 21q-108 21 -208 61h-12l-11 2h-4l-11 1h-7h-6l-2 -4l-1 -4l-9 -21l-14 -23q-14 -22 -32 -40l-6 -1h-5q-15 0 -30 6l-26 15l-12 6l-10 7l3 17l7 18l4 8l3 10l2 8l1 9v4l-1 4l-1 4l-1 4q-25 3 -45 23
q-21 18 -31 41l-1 4q12 9 30 12l35 5h12h13h18q13 0 17 2l10 24l10 25l96 217l51 107l19 38l37 68q16 -3 44 -12zM605 99l-8 20l-2 3q-3 13 -10 21q-3 9 -14 20l-30 -1l-62 -9l-90 -13l-21 -4l-21 -3q-21 0 -37 -5l-37 -5v-9l16 -4l17 -3l132 -26q66 -12 138 -12l7 -1h6
l6 -1h6l12 3l4 11zM411 510q-19 -29 -44 -80l-35 -84l-23 -58l-26 -57h28l19 4l49 8l57 9l59 4l4 1l6 1l11 3q6 3 6 11l-31 57l-20 62l-8 25l-6 18l-8 18q-9 26 -30 58h-8z" />
    <glyph glyph-name="b" unicode="b" horiz-adv-x="657" 
d="M139 681q57 15 116 15l16 -1h18q36 0 65 -7q32 -6 67 -19q66 -18 119 -52q25 -15 47 -45l14 -27l12 -33q-6 -55 -30.5 -102.5t-75.5 -79.5v-7l19 -17l19 -16l5 -4l6 -3l22 -17l17 -18q18 -18 28 -47l3 -22l1 -21l-1 -14l-1 -13l-3 -14l-3 -14q-57 -60 -138 -81l-83 -16
q-42 -6 -79 -6h-6l-5 1h-15l-14 1h-26l-18 4l-27 6l-20 8q-38 15 -62 64q0 7 -4 12l-5 14l-7 18l-3 19l1 9l3 9q10 0 18 -8l15 -13l3 -3l15 -14l17 -5l10 2l10 6v7l1 8v8v8l-1 39l-3 39l-3 34l-3 34l-1 19q0 13 -4 24l-3 42q-33 12 -55 43l-21 29l-18 33l-3 4l-2 5l-8 15
l-14 21q-7 14 -25 35l-1 6l-1 7l-1 3v4l-2 10l-1 9v6l3 6l1 3l2 3q38 25 103 47zM452 256q-29 11 -71 19l-10 1l-10 1q-5 -6 -14 -9q-12 0 -16 -2h-4l-15 -1q-7 0 -10 -2v-10v-10l-1 -28l-1 -26l-3 -34l-3 -35l12 -14l16 -3l15 2l16 4l15 4l15 2l19 6l20 8q30 12 53.5 30
t31.5 51q-18 30 -55 46zM418 586l-44 10l-43 5h-16l-14 2h-4l-7 -40l-1 -39v-15l1 -15v-23q0 -17 2 -22l1 -38l1 -39l-1 -3v-4l3 -10l11 -6l5 1l16 10l17 11q48 29 88.5 67.5t53.5 98.5q-25 32 -69 49zM222 601l-7 -1l-6 -2l-6 -1l-41 -12q-22 -6 -36 -20v-5v-4l-1 -5v-4
l1 -9l3 -8l16 -26l12 -27l1 -4l2 -3l10 -25l12 -22l-5 19l-1 20v7v7v9v9l1 18l1 18q0 11 8 18l17 16l18 16q3 3 8 19v4z" />
    <glyph glyph-name="c" unicode="c" horiz-adv-x="587" 
d="M440 690h5q25 0 46 -14q17 -9 37 -33q-6 -2 -10 -8l-4 -12q0 -10 2 -12l6 -13l2 -3l4 -8l3 -8l5 -20l1 -20v-20l-5 -21l-9 -24q-21 -28 -50 -49q-19 -15 -64 -26q8 14 12 33l4 28l1 15v7l-1 8q0 12 -2 15l-3 15q-6 18 -23 35l-15 14l-17 13q-102 -60 -167.5 -166
t-65.5 -223v-15l1 -15l19 -11l30 -10q13 -3 20 -4t23 -1h20l21 3q14 0 29 4l29 5l23 5l23 4q36 6 68 25l26 17l33 24l22 17l24 17l3 1l11 -5l4 -10l-1 -6l-3 -5q-12 -64 -56 -119t-110 -89q-24 -9 -54 -15l-57 -9l-17 -1h-16q-41 0 -78.5 9t-72.5 37q-31 40 -53 100l-12 54
l-4 56l1 31l3 32l12 63l18 63l7 14l8 14q12 24 27 45q5 8 15 21.5t20 23.5q36 46 89 66l2 3l3 2l6 5l1 7q-3 5 -12 6l-12 1l-14 2q-6 0 -11 5q12 8 33 18q9 4 27 11l33 5l34 2l19 -1l20 -1l12 -1l13 -1q23 0 27 -2l26 -1z" />
    <glyph glyph-name="d" unicode="d" horiz-adv-x="679" 
d="M566 550l44 -65l7 -14l7 -12v-5l2 -14l6 -12l5 -14l3 -13l-1 -5l-1 -6v-5v-4l-1 -5v-4l1 -22q0 -17 2 -21l2 -13l2 -13q0 -15 2 -18l3 -18q-15 -82 -66.5 -140.5t-130.5 -100.5l-69 -18l-38 -5l-38 -3h-8h-7q-44 0 -79 7l-22 3q-3 1 -7.5 1.5t-12.5 3.5t-30 15
q-19 14 -44 48q-11 21 -22 58h5q12 0 16 -2l17 -5l3 -2h4l13 -4l14 -1l15 3q8 3 15 13q0 12 -2 15v16l-9 121l-4 122v21l1 22v21q0 17 2 21q0 12 5 17l11 13l5 6l5 6l4 7l2 8l-1 6l-4 6h-5q-32 -3 -54 -17q-20 -8 -38 -39l8 -32l12 -30l2 -6l2 -5l12 -36q6 -18 6 -37v-4v-4
q-12 3 -20 17l-11 29l-6 16l-5 13l-10 18l-10 20l-31 62l-8 27l-5 39q0 20 2 25l9 26q35 22 82 37l43 8l47 3l21 -1l21 -1q25 0 35.5 -1.5t35 -7.5t64.5 -23q66 -24 120 -57q30 -21 55 -55zM497 459q-72 63 -159 93l-19 6l-18 6l-12 -6l-7 -32l-3 -32l-1 -16v-16l1 -47
l4 -47l3 -47l2 -47v-15v-12l-2 -13l-1 -19q0 -9 -4 -20l-6 -12l-7 -11l-2 -4l-2 -3l-9 -16l-3 -15l1 -4l1 -5h8l8 1q46 0 87 11.5t94 36.5q87 42 132 126q-12 97 -86 159z" />
    <glyph glyph-name="e" unicode="e" horiz-adv-x="722" 
d="M609 683l14 -26l7 -28l-1 -6l-1 -4q0 -12 -10 -21l-21 -13l-5 -2h-4l-326 -115q21 14 45 24l52 21l11 4l12 5l57 24q27 12 52 31l-1 5l-7 8l-10 4l-40 -3l-41 -3l-85 -6l-85 -3l-2 -4v-7v-9l1 -5l2 -8l2 -8l3 -14l2 -15l-2 -11l-3 -11v-4q0 -6 4 -13l12 -5l-2 -4l-3 -5
l-3 -5l-1 -4l-2 -4v-4l2 -7l9 -5h20h17l17 2l55 4h6l7 1l61 3l62 2l48 -1l25 -1q13 0 22 -3.5t13 -11.5l2 -15l2 -14q0 -6 5 -10q-28 -28 -70 -43l-82 -16l-3 -1l-63 -12q-25 -6 -55 -21l-18 -9l-20 -6q-21 -3 -35 -13q-16 -6 -24 -26l1 -8v-8l-1 -12v-11l-1 -12v-12l3 -28
q3 -13 13 -21h9h8h27h24l14 2q19 0 29 2l35 7q75 11 127 25l82 17l82 13l3 -6l1 -6l-1 -7l-3 -6l-3 -6l-3 -5l-6 -8l-3 -7q-24 -62 -82 -86q-49 -14 -122 -25l-5 -1h-4l-52 -7q-28 -3 -49 -10q-25 0 -32 -2q-25 0 -31 -2l-56 -4l-55 -2h-27l-26 3l-27 3l-26 5q-16 9 -24 22
q-6 7 -14 31l-4 13l-1 13q0 27 15.5 45.5t34.5 33.5l3 2l22 20l19 24q0 15 -2 19v21q0 36 -5 51q-3 20 -27 35q-13 2 -21 10l-10 22q0 17 10 27l22 19l4 3l14 10l10 12l-6 125l-14 10l-15 5l-18 6q-1 1 -2 1q-6 4 -12 11q0 12 -2 15l-3 17l-2 3l-3 16l-1 13q0 12 2 15l9 13
l38 -11l12 -1h13h12h13l44 1l45 1l89 5h18h15l17 2l50 3l46 1l46 1h16l18 -1l16 -1h17zM131 159q0 8 -7 14l-15 6l-13 -3q-7 -3 -9 -8l-2 -5l-2 -7l-2 -2l-2 -9l-1 -6l2 -8l10 -5l7 -2l8 -1q9 0 17 5q6 6 9 19v4l-1 4zM333 320l-9 -1l-15 1l-14 2h-4l-14 1l-12 1
q-15 0 -25.5 -7t-10.5 -26l1 -4v-5l6 -7l6 -4l3 -1q9 0 17 4l16 10l4 2l4 3l9 5l10 3l8 5l10 3h4l13 3q2 8 2 14z" />
    <glyph glyph-name="f" unicode="f" horiz-adv-x="671" 
d="M44 693l14 2l4 -1h5l13 -5l13 -8l86 1l42 1l43 1h67h25h26l16 2l43 1l46 1l90 4q21 -3 32 -20l13 -34l6 -23l12 -19l-72 -45l-75 -41q-55 -27 -153 -67l-26 -11l-26 -10q-7 -4 -13 -15l-3 -20v-4v-5v-6v-5v-9l-2 -8l8 -9h12h11l69 2l53 3h33l21 4l32 5l32 9l3 4l3 4l6 9
q3 3 9 3h4l4 -2q6 -6 8 -10l2 -11l-1 -7v-7l-2 -8v-7v-5l3 -8l8 -7l1 -8v-8v-4v-4q0 -10 -2 -14l-7 -17q-5 -11 -22 -18q-10 0 -12 -2h-13l-61 -6l-60 -5q-30 0 -37 -2h-36h-23l-24 1q-6 -8 -9 -17l-2 -16q0 -18 5 -28l12 -27l9 -18l6 -17l3 -11l5 -12l2 -8l3 -8l3 -11
l1 -10q0 -9 -3.5 -15.5t-16.5 -13.5l-25 -8l-28 -4l-8 -1h-7q-22 0 -37 4t-27 19l-3 32l-3 32l-4 47l-2 45v6v6v5l1 6q0 18 -15 30l-27 18l-3 1l-28 18q-12 9 -15 23l-3 15v6q0 15 10 24l24 17l9 5l9 5q6 0 12 7.5t9 18.5l1 3l-1 10v11l-2 23v25v5v6q0 31 5 47q3 20 15 43
q-3 6 -13 7l-14 3l-15 3q-7 2 -12 7q-16 6 -32 21l-20 30l-12 18q-3 9 -13 16l-2 2l-3 6v4zM151 346l-3 10q-3 3 -8 3l-4 -1l-2 -2l-2 -2l-5 -7l-2 -7l1 -3l2 -4l14 -3l7 5l1 8zM512 567l-28 2l-28 1l-32 -1l-32 -1q-25 0 -32 -2h-32h-8h-8h-8l-8 1q-8 -5 -17 -23l-4 -28
l1 -19l3 -18l2 -20l1 -18v-6l-1 -3l15 -2l36 19l37 19l7 4l8 4l62 32l32 18l28 20z" />
    <glyph glyph-name="g" unicode="g" horiz-adv-x="796" 
d="M347 691l40 5q42 0 86 -18l42 -18q7 -3 42 -22l13 -8l14 -7q28 -18 48 -49q22 -31 22 -64v-6v-4l-1 -5l-1 -5l-1 -4v-4l-6 -22q-2 -5 -13 -11q-25 6 -43 20l-38 27l-51 34q-16 11 -56 20q-72 -12 -135 -60.5t-111 -110.5l-10 -20l-10 -20l-30 -68q-13 -39 -13 -74v-10
l1 -10q40 -34 108 -62q62 -18 129 -18l54 3l54 7l8 1l10 2q19 5 36.5 16.5t24.5 30.5l-11 9l-27 3l-27 1h-15h-16l-15 -1h-16l-45 3l-20 4l-21 7q-38 15 -48 73v12v13q0 18 6 36t29 18l17 1l14 1l13 1h14q27 0 57 -6q29 -3 51 -21l-7 2l-7 2l-25 4l-27 4h-5h-4l-26 -3
q-8 0 -22 -9q0 -7 9 -13l19 -2l11 -1l8 -2l55 -1h25l29 -2l31 -1l32 -1l33 -1h34l47 1h18h15l17 2l-3 -22l-2 -20q-3 -24 -16 -47q-7 -18 -36 -35l-8 -3l-8 -1h-8l-8 2l-8 1l-8 1q-7 0 -12 -3.5t-9 -11.5q5 -5 6 -11l2 -10q0 -9 -5 -17q-3 -8 -10 -15l-7 -11l-5 -10
q-41 -37 -106 -58q-31 -9 -63 -14t-64 -5q-50 0 -98 9q-23 5 -45 11t-48 17l-24 11l-25 14q-37 20 -69 49q-26 26 -35 72l-1 13v14l-1 12v14q0 98 31 185t116 149q18 14 40 21l45 14l3 1l4 1l21 6q16 3 21 8q-11 6 -16 14l-4 14l3 13l7 15l22 8z" />
    <glyph glyph-name="h" unicode="h" horiz-adv-x="864" 
d="M198 679l12 -6l36 -27q10 -8 26 -33v-69v-68v-54v-55l66 -15l75 -13l102 -15l45 -1q8 0 14 11l3 20v10l3 10l-1 26v26l1 55l1 31v22q3 11 4 16v18t4 30l8 42l3 22l4 24l3 1l3 1l5 1l9 -3l9 -5l9 -7l9 -2l6 -2l7 -2l3 -2q18 -3 31 -13q8 -3 14 -25l-1 -44l-1 -43l-1 -38
v-26q-3 -13 -4 -19l-1 -13l-1 -14l-4 -49v-18v-15l-2 -16q6 -15 22 -19l32 -2h5h4q14 0 25.5 -3.5t20.5 -18.5v-4l2 -11l4 -11l2 -4l2 -4l7 -15l3 -13q-1 -5 -2 -6l-4 -7l-20 -10l-10 1h-9l-14 -1l-12 -1h-4l-14 -1h-15h-5h-5q-6 -13 -9 -26l-2 -27v-9l1 -8v-14l2 -13
q0 -17 2 -21l1 -20v-6l6 -15l3 -16v-4l-1 -4l-1 -5l-2 -4l-13 -9l-13 -2l-15 2l-16 7l-5 3l-6 3l-17 9l-17 6l-5 2l-5 2l-4 2l-4 2l-20 10l-18 15q12 6 19 19l5 24l-1 13l-2 14l-2 17v15v9q0 7 2 9l-18 18l-32 3l-32 3l-95 9l-41 3l-56 8l-2 -12l6 -10l3 -4l52 -32l55 -28
l9 -4l9 -5l50 -25l48 -27l-33 9l-33 13l-11 5l-11 5l-33 15l-33 12q-9 0 -12 2l-12 6l-22 12l-29 15q-12 6 -30 9l-6 -22l-1 -23v-19q0 -15 2 -18v-7l1 -6v-13l1 -12q0 -20 -3.5 -33.5t-16.5 -29.5q-28 6 -54 25q-24 20 -45 45l-7 168l-18 14l-20 12l-40 27q-18 15 -18 46
l-1 17l-3 16l-2 10l-1 10l-1 5v5v6l1 6l1 5l2 6h4l9 -1l9 -3l9 -4l10 -4l17 -8l16 -4l12 3q3 1 11 15l7 57l3 55v11v44q-3 16 -4 23l-3 35q0 16 -2 20l-6 24l9 7l10 2l6 -1l5 -1l6 -1l6 -2l5 -2l5 -2z" />
    <glyph glyph-name="i" unicode="i" horiz-adv-x="193" 
d="M60 690l14 -6l2 -2l3 -1l38 -21q14 -7 26 -33l8 -109l5 -111l1 -45l1 -47l1 -45l1 -46l3 -2l3 -2l6 -3l6 -1l6 1q0 -16 -4 -29l-8 -28l-4 -10l-3 -10l-4 -18l-2 -19l1 -17l6 -16l-2 -13v-15q0 -16 -3.5 -29t-25.5 -13q-31 0 -68.5 15t-57.5 44q10 28 19 71l4 33l1 41
l-1 38v14v11l-2 13l-1 55l-1 56l-3 109l-1 40v23q-3 17 -4 25l-3 54l-5 34q0 9 7 12l15 5l7 1l7 2z" />
    <glyph glyph-name="j" unicode="j" horiz-adv-x="456" 
d="M330 676q30 -6 45 -31l10 -18l16 -33l3 -6l2 -6l6 -17l8 -16l7 -57l3 -57v-10l-1 -9l-1 -10v-9q0 -12 -2 -16l-1 -14q-12 -111 -43 -212t-115 -182l-4 -2l-4 -4l-4 -2l-3 -3l-17 -11q-9 -6 -19 -6h-5l-4 1q-3 18 -13 18q-10 -2 -20 -8l-10 -4l-10 -3h-4l-5 1l-4 1
q-14 0 -29 11q-13 7 -25 24l-2 3l-2 2l-17 44l-5 26l-3 24v6v7q0 20 6 45t19 45q9 12 26 19l30 9l7 1l7 1l2 -9l1 -9l-1 -11l-2 -11l-2 -12l-1 -10l1 -10l1 -9l2 -14l2 -14l5 -34l10 -37q7 -23 36 -52q9 0 15 7l10 15l2 5l2 5l3 5l23 94l21 108q18 102 18 207l-3 74v18
q0 11 -2 21q0 11 -6 37l-20 8l-24 2l-14 -1h-13l-13 -1h-12l-14 -5l-14 -4l-6 -2l-5 -1l-16 -4q-7 0 -22 -7l-31 -18l-3 -6l-1 -5l3 -9l7 -7l2 -2l8 -9q3 -3 -2 -10l-5 1q-16 3 -32.5 15.5t-30.5 37.5l-8 21l-3 25v9q0 7 2 9q35 35 84 52t95 17l27 -1h16l12 -4l27 -4l27 -9z
" />
    <glyph glyph-name="k" unicode="k" horiz-adv-x="588" 
d="M476 681l20 -22l6 -8l6 -8l13 -21q6 -12 6 -26q0 -10 -2 -12l-3 -11q-54 -63 -123 -120l-67 -55l-71 -55l-21 -16l-21 -15l-16 -13l-16 -12v-17l33 -28l35 -26l71 -46l6 -4l6 -4l33 -21l33 -21l3 -1l11 3l5 8q0 6 -4 14l-5 13l-7 12l-3 12l17 -10l18 -10l9 -5l8 -4
l38 -21l23 -17q31 -21 45 -56q0 -23 -12.5 -35.5t-32.5 -22.5h-5h-6q-60 0 -105 26q-53 30 -94 62l-9 6l-8 7l-12 8l-11 8l-18 12l-17 14l-25 19q-13 10 -26 15l-7 -26v-12l-2 -17v-4v-12q0 -7 -2 -13q0 -13 -5 -23l-7 -13l-5 -15l-5 -15t-6 -10q-4 -9 -18 -12l-10 2l-13 7
l-9 7l-9 7l-4 3l-4 3l-17 13l-16 16q-15 15 -15 37v6l2 8q24 12 31 34l6 21l2 23l-1 16l-1 16l-1 4v4l-2 20l-1 19l-3 4l-3 3l-3 3l-2 3l-12 15l-4 18v4l2 6l30 33v19l-1 18l-1 14v31l-4 20l-3 35l-4 36l-7 66l-5 67l6 7q3 3 10 3l4 -1h4l9 -5l9 -4l7 -6l7 -3q31 -25 44 -65
l8 -29l12 -54v-4l5 -32l7 -30h15q69 45 135 104t120 126v5q0 7 2 11l7 7q5 -1 23 -15z" />
    <glyph glyph-name="l" unicode="l" horiz-adv-x="577" 
d="M212 691l27 4l27 1q37 0 79 -11.5t69 -35.5q11 -15 15 -35l4 -39v-12q0 -6 -2 -14l-3 -23l-3 -1l-9 1l-7 5l-7 6l-7 8l-12 11l-13 8l-3 1l-3 2l-47 18l-24 6l-26 2h-6l-5 -1l-6 -1h-6q-12 -24 -23 -74l-5 -39l-2 -40v-8v-7v-36q0 -27 2 -34v-33l1 -31l-4 -4l-1 -4l1 -6
l4 -3l1 -8v-9v-8v-7l-1 -8v-7q0 -21 6 -39t30 -24l7 2h8h4h4l4 -1l5 -1l11 -1h9h4l3 1l4 -6l7 1h8q20 0 25 -2l26 -3l25 -4l25 -1q24 0 43 9t35 43q0 18 2 23l3 23v4l5 44l3 47h18l-5 -44v-16l-1 -13l-1 -14v-11l-2 -21v-11l-2 -21l16 -15l5 -19l-3 -14l-7 -13
q-5 -5 -14 -25l-3 -31v-6v-5l2 -17q0 -12 2 -16l1 -10l1 -9l-13 -7l-13 -2h-8l-7 2l-8 1l-7 2l-8 2l-7 2q-12 29 -40 39.5t-57 10.5l-18 -1h-19l-5 -1h-4l-23 -2h-22h-16l-15 2l-11 -8l-8 -10l-2 -2l-16 -17q-6 -6 -20 -7l-9 1l-11 5q-42 18 -76.5 44.5t-60.5 75.5
q0 11 9 20l19 5l10 -1h11l3 -1h4l7 -1h7q10 0 14 2l12 6l-7 41l-7 44l-7 44l-6 46l-4 36l-1 36q0 38 9 78t33 81l4 3l3 2l4 2l13 9q7 7 9 14l-6 5l-9 1h-6h-4q-10 0 -13 2l-5 9v4q0 16 8 24l20 17l3 2l3 3l3 2l4 3l19 7z" />
    <glyph glyph-name="m" unicode="m" horiz-adv-x="791" 
d="M725 622l3 -89l4 -89v-8l1 -8l7 -195l3 -81l11 -112l1 -6l1 -4l-3 -18q-3 -7 -10 -12l-13 3l-12 3l-7 1l-6 2l-46 15q-19 9 -31 36l-4 47l-4 79v124v44l1 45l1 67l1 69l-1 73l-3 74l10 4l11 2q12 0 23 -8q8 -3 23 -16l3 -3l3 -2zM49 666l25 20q12 7 31 10l40 -57l37 -56
l14 -25l16 -24l51 -80l53 -77l70 -94q11 7 22 24l14 32l1 3l7 19l10 19l20 39l17 42l1 3l2 4l36 78q20 43 53 69h4h4q8 0 16 -5l3 -3q6 -5 8 -9l2 -20l1 -20v-38q-3 -15 -4.5 -24.5t-4.5 -21.5t-11 -30l-19 -51l-22 -56l-5 -14l-6 -14l-13 -32l-12 -32l-40 -83l3 -9l7 -7
l2 -2q16 0 26 17l11 32l1 4l1 4l2 8l2 7l6 2l1 -9l1 -9l-1 -11l-1 -11l-6 -23l-7 -21l-4 -10l-3 -10l-1 -4l-1 -7l-1 -7q-2 -11 -3.5 -15.5t-4.5 -12.5t-17 -18l-6 -1l-14 3l-12 7l-14 7l-12 4q-7 0 -12 -4l-10 -12l-4 -1h-4q-12 0 -21 6l-17 15l-3 3l-2 3l-10 8l-10 9
l-2 10l-1 12l1 15l3 16v4l2 5l2 11q0 7 2 11l-26 36l-26 35l-11 13l-10 13l-31 40l-30 42q-6 0 -10 -4l-2 -9v-6l1 -4v-6v-5l-1 -8l-2 -6l-13 -50l-8 -53q-6 -59 -22 -105q-14 -52 -65 -81l-11 -6l-13 -1l-13 1l-10 6l22 107l19 110q0 7 2 11q0 10 2 12l17 103q9 57 22 101
q-3 16 -11 24l-13 20l-4 4l-2 4l-12 17l-11 21l-5 13l-5 14l-11 26l-4 29l1 12l3 12z" />
    <glyph glyph-name="n" unicode="n" horiz-adv-x="709" 
d="M57 694l7 2q8 0 12 -8l9 -19l1 -4l1 -3l8 -19q3 -9 13 -13l11 5l10 6l2 2l12 7l15 3h6l6 -2q27 -15 34 -43l5 -28l2 -28v-4v-34q0 -16 5 -29l32 -41l32 -42l52 -62l56 -63q49 -52 130 -107q3 -3 8 0l6 7l2 4l-3 179l-3 79q0 27 -3 53t-5 41l-7 77l-7 77l6 1l7 1l6 1h7
q27 0 55 -15t50 -40l6 -34l5 -37l3 -70v-23v-23l-2 -14v-36l-4 -23l-1 -16l-1 -14l-6 -75l-2 -75v-14l1 -14v-14l1 -14l2 -3l4 1h5l8 14l4 16v5v6v6v6l-1 5v6l1 16q0 10 5 16l6 -3l3 -40l2 -40v-20q0 -16 -2 -24q0 -13 -6.5 -42t-30.5 -61l-20 -3h-19q-66 0 -125 39l-54 42
l-54 50l-24 23l-23 23l-15 15l-13 15l-8 10l-8 10l-26 29q-8 9 -30 25l-2 -52v-54v-15v-14v-11v-12l7 -16l6 -24l5 -25l1 -23l-1 -16q0 -12 -2 -16q-10 0 -12 -2l-12 -1q-27 0 -57 15.5t-48 37.5v8v9v8v9l1 70l3 73l3 72l1 74v22l-1 23l-1 22l-1 22l-3 3l-2 4l-30 41l-19 31
l-16 40q-6 21 -6 43l1 20l6 22l4 10l5 11z" />
    <glyph glyph-name="o" unicode="o" 
d="M517 635q31 -28 71 -76q23 -37 41 -101l12 -57l4 -27l1 -27v-7v-7q0 -45 -9 -90.5t-28 -80.5q-11 -17 -36 -31q-3 -1 -16.5 -4.5t-26.5 -6.5l-8 -1h-7h-4h-4l-9 -15l-6 -17l-1 -4l-4 -12l-8 -16q-3 -8 -19 -17q-19 -14 -62 -29q-33 -9 -68 -9h-6h-5h-16h-11q-7 2 -10 2
l-26 6l-22 7q-33 10 -74 36q-63 48 -96 120t-33 154v22l4 31l3 27l8 26q18 62 59 121.5t105 94.5q11 6 23 9l26 4l5 1q18 0 38 6t35 28l13 1h14h8l9 -1q13 0 26 -4q13 -2 25 -7q45 -14 85 -49zM489 455l-8 17l-24 39q-10 19 -29 39q-28 36 -85 47q-102 -48 -144 -145
q-17 -43 -31 -100q-5 -24 -8 -52.5t-3 -56.5q9 -22 29 -40l40 -32l14 -10l14 -10q17 -9 37 -15l40 -4h5h5q19 0 31.5 2t29.5 9q31 9 54 25l5 12l1 13l-2 17l-5 17l-5 19l-2 18l1 7l1 6q12 -9 19 -26l10 -33l1 -6l7 -25l12 -22h4l9 37l6 39l2 25l1 26q0 35 -6 73.5t-18 73.5z
" />
    <glyph glyph-name="p" unicode="p" horiz-adv-x="618" 
d="M157 690q42 6 84 6q93 0 176 -33.5t138 -116.5q15 -16 25 -45.5t10 -58.5v-6v-7q0 -31 -13 -67l-12 -32l-14 -29q-45 -60 -116.5 -90t-152.5 -39l-11 -2h-10l-4 -7l-2 -6l-2 -7v-6q0 -12 4 -23l10 -21l4 -10l4 -8l1 -10l2 -10l1 -4l4 -20l2 -16l-1 -9l-2 -9l-8 -2l-7 -1
l-8 -1h-8q-26 0 -50.5 9t-45.5 25l-4 15l-2 22v40v11v10v19q0 15 -2 19l-15 9l-15 7l-28 14q-12 6 -19 23l-3 16q0 12 -2 16v8v8l3 39l9 36l7 -6l7 -8l2 -5l4 -4l13 -16l20 -8q9 0 12 3l5 14l-1 5l-1 6l-2 10v7l1 7l3 6l1 16v17l-1 20v22l-1 21v22v5v6v24l1 17l8 29
q6 22 28 47q-3 5 -8 6l-9 2l-8 -1l-7 -2q-7 0 -9 -2l-8 -1l-6 -2l-5 -1l-6 -3l-7 -2q-12 -3 -21.5 -9.5t-18.5 -21.5l3 -25l4 -19l11 -43l9 -34l7 -32h-6q0 19 -13 42l-22 46l-4 6l-3 8l-20 44q-8 22 -8 42t9 36t41 36l33 8zM407 520q-60 56 -137 75l-9 -40l-2 -36v-81v-21
v-18v-18v-14l-2 -15l-1 -18l-3 -27l11 -10h4l6 1q62 7 117 23.5t99 67.5q-21 75 -83 131z" />
    <glyph glyph-name="q" unicode="q" horiz-adv-x="663" 
d="M532 628l17 -23l15 -25l4 -8l5 -8l22 -68l8 -38l4 -34l1 -18l1 -18q0 -58 -18.5 -111.5t-59.5 -97.5l-6 -7l-7 -7l-22 -20l-24 -18q0 -6 5 -11l12 -4l7 -2l5 -2l14 -3l16 -3l10 -2q7 0 11 -2l14 -2h13q16 0 25.5 3.5t22.5 19.5l6 -2q-9 -33 -27 -59.5t-55 -47.5l-30 -8
l-29 -2q-33 0 -48 5l-46 12h-4l-4 2l-44 11l-43 7l-62 20l-64 13l-16 -18l-9 -21l-10 6l-2 11v6l2 6l1 9v7q0 7 -3.5 12t-17.5 6q-42 18 -67 55q-23 37 -23 84v12q0 6 -2 12v24v18l1 20v24.5t4 27.5q3 20 9 37l18 46q27 66 80 110q21 13 58 28l31 8l34 3q20 0 24 -2l24 -6
l33 -23q-94 -39 -154.5 -129.5t-72.5 -198.5v-5l1 -4l6 -40q3 -14 18 -34l6 -1q7 0 11 2l10 7l4 2l3 2l16 10l18 4l9 -1l10 -4q13 -9 32 -17l21 -5l20 -1l37 3l36 7q10 0 12 2l12 3q25 40 50 109q15 60 15 122l-1 36q0 19 -2 27l-4 28q-1 7 -4.5 20.5t-9.5 29.5
q-9 32 -35 52q-24 21 -54 39l-3 1l-2 2l-23 5l-22 1h-10l-9 -1l-37 -6l-35 -9v8l31 11l34 14l37 14q18 8 39 12l24 5l24 2l21 -1q7 0 25 -7q16 -3 38 -22q24 -15 44 -38z" />
    <glyph glyph-name="r" unicode="r" horiz-adv-x="661" 
d="M487 616q45 -39 84 -96l8 -22l3 -23v-6v-6l-6 -28l-8 -26q-39 -38 -95 -59q-50 -18 -119 -29q-20 0 -24 -2l-23 -1v-14l69 -47l70 -47l8 -6l8 -5l62 -42l62 -41q6 2 9 8l7 12l9 15q3 6 11 6l4 -1l5 -1q0 -32 -11 -60l-18 -56l-6 -18l-6 -17l-6 -2l-5 -1l-6 -1h-5
q-11 0 -22 4l-20 10l-7 4l-6 4l-15 8l-14 7l-51 32l-46 36l-93 72l-23 18l-22 18l-10 -16l-2 -16v-9l2 -10v-9l1 -10q0 -10 -2 -12l-3 -11l-2 -4v-4l-6 -17l-8 -19q-6 -19 -23 -30l-11 -3l-10 -3l-14 -4l-13 -2h-6l-4 1l-5 2l-5 3l5 52l1 50v12v12v8v8l1 56l1 29v18l4 13
q-3 6 -13 13l-15 10l-4 2l-20 12q-9 8 -9 21l1 11l6 13l2 4l4 7l13 10l5 3l7 -1h6l4 -2h5l6 2l4 6l2 20l1 22v5v5v24q0 12 8.5 36t43.5 36l6 -2h7l11 1l11 3l10 3l9 1q6 0 10.5 -3.5t8.5 -11.5v-6l1 -5v-6v-6v-16v-13l-2 -13l-6 -40l-3 -21l-4 -20l3 -7l1 -7l-1 -7v-7l-1 -3
q0 -7 -2 -9v-8l1 -11l10 -8q35 0 64.5 13.5t59.5 41.5q51 47 77 115l1 4q0 12 -7 18l-15 8l-4 2l-11 6l-9 8q-33 14 -75 24l-44 8l-42 4h-10h-10q-49 0 -91.5 -12.5t-74.5 -44.5v-5l1 -10q0 -7 2 -9l1 -6l2 -6v-4v-5q-20 19 -36 50q-8 17 -12 32.5t-4 33.5l1 14l3 15
q33 36 79 52q51 14 96 14h13l13 -1l32 -1q11 0 33 -7l27 -4q11 0 35 -7l5 -2l6 -1q68 -15 114 -57z" />
    <glyph glyph-name="s" unicode="s" horiz-adv-x="615" 
d="M226 440l135 -20q7 0 11 -2l12 -1l5 -2h5l27 -6l27 -6q42 -9 80 -34q38 -21 48 -72l1 -4v-4l-1 -7v-6l-1 -8v-6l2 -14q2 -6 9 -12v-5v-6q0 -54 -29.5 -94.5t-79.5 -69.5q-18 -8 -49 -19t-64 -22l-63 -15q-32 -3 -36 -5h-22h-10h-9h-36l-23 4q-25 3 -58 15l-10 12l-10 12
l-2 2q-23 28 -40 53.5t-17 58.5v5l1 5v4l1 6q23 44 68.5 66.5t93.5 22.5h5l6 -6q-34 -15 -50.5 -40.5t-33.5 -63.5l-5 -14l-4 -13l36 -4l36 -1q94 0 182 35.5t154 100.5q0 11 -7 15l-15 8l-9 3l-7 4l-22 6l-41 8l-66 9q-70 9 -142.5 30t-111.5 92l1 41q62 -24 128 -36z
M475 692l13 -2q27 -6 51 -21q24 -12 34 -43v-5v-6q0 -37 -16.5 -67t-47.5 -56h-11l1 8l1 9l1 3l1 10l1 10l-3 15l-6 14l-5 3l-4 3q-13 8 -41 14l-45 2h-8h-7l-13 -2l-13 -1l-35 -4l-24 -6q-31 -6 -59 -16q-57 -18 -101 -62l-20 7l-15 13v7l1 16q0 12 2 16q2 16 7 32t17 28
q56 47 134.5 66t157.5 19h10h10l10 -1h10z" />
    <glyph glyph-name="t" unicode="t" horiz-adv-x="572" 
d="M273 672l53 5l55 1h13h14h13h14l55 1l24 1l28 6l3 -11l1 -12l-2 -20l-5 -20l-2 -4l-1 -3l-5 -17l-3 -16q-17 -21 -43 -27l-52 -4h-4h-4h-7h-7h-8h-6l-5 -1h-4h-6l-6 1h-6h-5l-13 -3l-4 -10v-5l1 -4l3 -440q0 -11 4 -19l9 -15l8 -16l4 -14l-1 -6l-3 -5l-5 -6l-8 -6l-15 -2
l-16 -1q-36 0 -69 15t-54 47l-1 5v5q0 9 4 17l11 15l2 3l8 14l4 15l-1 8l-3 8l-4 21l-3 22q0 7 -2 11q0 10 -2 12l-25 137q-12 77 -35 134l2 8q15 -3 19 -16l5 -22l3 -16l7 -13l3 -9l3 -8l4 -12l4 -11l6 -21l8 -18l7 -19q3 -10 10 -18l2 36q0 30 2 38v22q0 20 2 24l3 55
l9 53l-1 4l-2 3l-4 3l-2 2l-22 2h-21h-30h-29h-24l-34 5l-18 3q-12 2 -22 7.5t-19 22.5l-4 26v9l1 9q0 7 2 11l3 12q0 12 2 15l3 14l7 4l6 2l7 -2l6 -4l3 -4l4 -3l12 -9l14 -4h6l6 2h165z" />
    <glyph glyph-name="u" unicode="u" horiz-adv-x="587" 
d="M117 653l3 -8l4 -7l2 -4l13 -29q5 -13 5 -33v-7l1 -77l1 -36l1 -38v-50v-23l2 -27v-25v-24l-1 -47l-1 -46q17 -12 47 -16l54 -2h8h6h16l15 -1l18 3q15 0 19 2l5 1h6l42 9q21 6 34 25l-1 55v55l-1 42l-1 43v83l3 100l9 103q1 2 3.5 5t5.5 6l15 3l10 -1l10 -3l8 -5l9 -5
q10 -6 21 -13t22 -16q20 -14 30 -37q0 -44 -10 -78l-18 -74l-1 -3l-10 -38l-8 -38l1 -67l-1 -68v-35v-34l1 -80l6 -74l-1 -4l-1 -3l-2 -7l-6 -5q-19 3 -37.5 17t-33.5 33l-4 11l-1 12l-1 3l-3 19q0 5 -13 11q-21 -44 -60.5 -56.5t-83.5 -12.5l-20 -1l-18 1h-17h-16
q-34 0 -73 21q-33 21 -57 48q-12 22 -22 56l-6 28l-5 40l-2 23v23v19l1 18l3 90l1 92l-1 85l-3 83l-3 4l-2 4l-6 8l1 11l8 4l10 1q10 0 12 -2q10 0 12 -2l4 -2l4 -1l8 -3l8 -2z" />
    <glyph glyph-name="v" unicode="v" horiz-adv-x="645" 
d="M600 674l11 -28l5 -28l-1 -7v-7l-2 -8l-3 -6q-7 -42 -17 -74.5t-27 -67.5l-63 -135l-25 -50l-24 -50l-24 -34l-22 -32l-2 -4l-2 -3l-25 -36l-26 -37l3 -2l4 -2l4 -1l7 6l4 6l2 4l9 13q3 3 18 8h6l1 -4v-4q0 -19 -11 -33l-24 -28l-10 -9l-9 -8l-16 -10q-6 -3 -14 -3
q-12 0 -16 2l-14 7l-4 2l-3 2l-19 8l-20 4l-13 -2l-14 -6q-9 3 -14 8l-5 9q0 7 5 13l11 14l11 14l5 16l-9 20l-8 22l-14 35l-15 36q-45 111 -87 225l-39 114l-35 118v10l1 10l7 4l3 1q6 0 8 -2l3 -6v-4q37 -9 60 -28l30 -20l18 -16l22 -74l21 -75l1 -5l1 -4l37 -134
q20 -73 49 -129l12 4l59 129l57 131l22 52l22 52l19 45l20 46l5 9l1 11l3 17l13 11l17 -3l17 -6l16 -7l18 -3h4z" />
    <glyph glyph-name="w" unicode="w" horiz-adv-x="937" 
d="M263 141l-17 47l-16 43l-7 17l-10 25l-33 74l-30 76l-5 11l-4 12q-21 58 -46 113l-24 54q-3 8 -6 14.5t-8 13.5l-14 26v4q0 6 5 9l12 5l8 -1l6 1h6q29 0 59 -18q27 -15 46 -44q18 -44 33.5 -84t26.5 -71l54 -158l4 -11l4 -11l9 -29l10 -28l1 -5v-6l-1 -3l1 -9l5 -5h8
q17 37 27 74l15 80q0 16 2.5 29.5t7.5 35.5l12 63l16 90l5 33l5 59l7 5l10 1l11 -1q7 0 11.5 -4t14.5 -22l8 -27l6 -20l7 -17q12 3 19 14l10 23l8 19q5 10 13 15l6 -1l6 -1q14 -3 26 -14q8 -5 17 -26l5 -10l4 -10l1 -11l1 -10q0 -13 -6 -34l-4 -15q0 -7 -7 -18l-8 -20
l-6 -19l-28 -66q0 -12 6 -32l13 -30l1 -3l2 -2l9 -22l6 -22q0 -35 11.5 -65t27.5 -57q9 0 14 8l7 15l2 7v4l2 4l36 127l39 127l1 5l2 5l35 112l32 114l7 2h8h6q12 -3 32 -15l26 -26l2 -3l2 -2l3 -27v-26v-22q0 -16 -2 -25l-6 -38q-2 -13 -6.5 -35.5t-12.5 -47.5l-4 -17
l-4 -17l-5 -17l-4 -16l-21 -61l-18 -61l-25 -80q-8 -31 -30 -77l-17 -20l-20 -16l-5 -4l-5 -4l-19 -16l-13 -16l-10 -5l-11 -1l-10 1l-8 5q-7 6 -11.5 11.5t-12.5 17.5l-20 34l-30 69l-4 9l-3 9l-21 48l-10 22l-13 24q-11 -5 -26 -25l-17 -33l-10 -19l-10 -17l-3 -6l-2 -5
l-3 -7l-2 -6l-15 -27q-7 -10 -27 -19l-6 -1l-7 2l-4 1l-4 1l-5 -2l-4 -4l1 -8l2 -7l2 -3l2 -8l2 -7l-3 -8l-8 -5l-6 -2l-6 -1h-6q-17 0 -28 11l-20 24l-1 3l-2 2l-9 12l-9 10zM441 482l-2 7l-5 12l-8 5l-4 -17l-5 -17l-1 -3l-11 -39l-4 -39l1 -6v-4l8 -3l36 98z" />
    <glyph glyph-name="x" unicode="x" horiz-adv-x="697" 
d="M660 504l-7 -31l-7 -46l-7 -81l-1 -19l-1 -19l-6 -69l-2 -29q0 -21 -5 -36l-21 -160l-14 -11l-16 -3h-8l-9 2l-12 4l-11 4l-8 4l-8 3q-57 35 -105 84l-51 59l-35 43h-16l-28 -28l-26 -28l-5 -6l-5 -5l-60 -64q-26 -26 -69 -49l-3 -1h-5q-11 0 -19 4l-13 11l-3 2l-12 8
l-13 4l-6 -1l-6 -2l-4 13l-1 14v6l1 5v5v6q0 14 -2 19q0 6 -8 13q0 6 7 10l15 7l8 2l7 4l19 19l19 20l18 17l18 18l48 48l43 51v4q0 14 -9 35l-18 30l-2 3l-3 3l-16 23l-11 26l-19 32l-14 34l-2 3l-1 4l-15 33l-19 32q-6 3 -13 0l-10 -9l-2 -3l-9 -8l-12 3q12 30 38 53
q26 25 59 36q21 -3 38 -18l26 -38l4 -7l4 -6l8 -14l10 -13l16 -31l19 -32l19 -32l21 -31h11l44 45l43 48l31 35l55 56q44 44 100 72l4 -1h9l6 2l6 1l7 1l4 -1l6 -2l28 -31zM623 541l-9 4l-7 -2l-6 -2l-8 -4l-6 -5l-3 -2l-2 -2q-18 -29 -40 -55l-43 -50l-12 -13l-11 -12
l-44 -52q-15 -18 -35 -53l8 -11l8 -11l2 -2l2 -2l39 -52l43 -47l12 -9l11 -10l2 -2l3 -2l24 -19q2 -2 6 -3t21 -5q26 76 39.5 166t13.5 173v18v18l-1 17l-1 18q0 5 -6 13z" />
    <glyph glyph-name="y" unicode="y" horiz-adv-x="734" 
d="M626 696h6h5h14l20 -4q15 -3 30 -15v-5v-4q0 -79 -43 -145t-107 -113l-6 -14l-6 -15q-31 -68 -67.5 -134.5t-88.5 -121.5l3 -13l9 -2l29 3h11l19 2h27l37 5q8 0 20 4t23 11v-15l-15 -19l-16 -21l-39 -41q-15 -14 -44 -29l-90 -7l-91 -3l-49 1l-21 1l-26 4l-8 2l-7 3
q-15 5 -25.5 14.5t-10.5 26.5q2 15 5 18l5 20l8 29l7 30q9 0 13 -5l5 -11l5 -12l9 -7l12 -3l13 -4l10 -3q7 0 11 -2l8 -2h8q10 0 14 2l14 8l9 16l9 17l7 12l7 13l21 39l17 42l-9 2l-9 1l-10 -1l-9 -1l-10 -2h-10h-5l-4 1l-10 3l-8 5q-36 47 -57 89l-46 95l-3 6l-3 8l-38 79
q-18 40 -43 76l-4 1l-7 -1h-4l-5 -2h-4l-5 1l9 23l15 26l7 11l6 11l15 8l17 3l4 -1h5q9 0 20 -4l19 -6q32 -36 53.5 -82t40.5 -96l16 -45l19 -43l15 -19l14 -20l25 -35q9 -11 29 -26q18 3 25.5 17t11.5 29l1 3l1 4l3 9l3 9l18 39l18 42l4 10l4 11l28 61q5 11 13.5 26.5
t20.5 33.5q36 57 109 88h4zM630 560l-18 -36l-16 -32l-18 -26l3 -3l6 4l6 5q23 23 42.5 54.5t19.5 64.5q-15 -12 -25 -31z" />
    <glyph glyph-name="z" unicode="z" horiz-adv-x="841" 
d="M746 665l11 -18l10 -20l11 -23l13 -19l-3 -18l-52 -43l-55 -39l-9 -7l-10 -7l-73 -53l-35 -28l-31 -31l42 -7l40 -2h8h9l24 1h12q8 0 12 2h14h11l12 2l41 1h5l7 1l8 2l4 2q7 0 9 2l9 2q6 0 9 -6l4 -7l-4 -13l-3 -13l-1 -4q-6 -25 -15.5 -45t-36.5 -32l-10 -1h-8l-19 -1
l-16 -3l-8 -3l-8 -3l7 -6l7 -6l35 -33l31 -35q29 -35 29 -86v-5q-11 -23 -43 -35l-27 -5l-29 -2h-13l-13 1h-14l-12 1q-23 0 -28 -2q-13 0 -26 -5l-64 1l-64 1l-126 3l-45 1l-45 1l-45 1l-46 1q-7 0 -12 -4l-11 -5l-3 -1l-3 -2l-20 -9l-20 -4l-9 1l-9 3l-6 14l-5 14l-5 19
l-2 20l1 11l2 13q6 8 25 17l28 6l3 1h4l8 1l8 1l183 142q-3 8 -13 17l-19 9l-4 1l-20 10l-14 15l-5 11l-7 11l-12 25l-5 27l1 10l3 11l31 7l32 3l18 -1l20 -2q27 -3 68 -18l28 -11l35 -15l38 31l38 32l57 51l57 54v11l-73 3l-76 1h-34h-33h-12h-12l-69 2l-71 2l-32 1h-19
q-11 3 -15 4l-37 8l-29 9q-11 5 -20 27l-9 37l-4 19l-5 19h4h4l12 -1l13 -3l6 -2l6 -1l18 -6l20 -2h5l6 1q23 0 28 -2q23 0 29 -2l28 -1h28h15h14h12l41 1q22 0 41 4l61 3l62 8l93 9l92 6q18 -12 31 -31zM629 235q-59 9 -124 9h-4h-14h-12l-49 1l-22 1q-8 0 -23 7l-29 -21
l-26 -19l-16 -12l-16 -12l-29 -23l-30 -27h18h20l18 -1h19l72 1l35 1l36 1h7h7l52 1l54 1h111l6 1l7 1l18 3q6 3 7 13v4q-33 56 -93 70zM341 394q-33 9 -71 9h-6v-12q15 -11 45 -22l33 -5h21h10q10 0 12 2h10l11 1q-31 18 -65 27z" />
    <glyph glyph-name="braceleft" unicode="{" horiz-adv-x="334" 
d="M28 299q34 0 56.5 17.5t36.5 55.5l5 47l3 68l1 65v23.5t3.5 36.5t15 49t29 38.5t45.5 23.5l24 4l36 1h28v-77h-16q-49 0 -68 -19q-16 -19 -16 -81v-31v-24v-20v-15v-13v-11q0 -38 -5 -47q-5 -28 -11.5 -45.5t-17.5 -33.5q-20 -27 -68 -52q55 -21 78.5 -67t23.5 -153
q0 -93 3 -118.5t19.5 -40t61.5 -14.5h16v-76h-28q-50 0 -74 7.5t-43.5 32t-30.5 69.5q-6 39 -6 125l-2 74q0 18 -2 26l-4 22q-6 33 -32 53q-12 9 -27 15l-22 4l-12 1v80z" />
    <glyph glyph-name="bar" unicode="|" horiz-adv-x="260" 
d="M92 -210v938h76v-938h-76z" />
    <glyph glyph-name="braceright" unicode="}" horiz-adv-x="334" 
d="M306 299v-80q-38 0 -61 -20q-21 -15 -31 -46l-7 -54l-2 -68v-19v-16v-13q0 -42 -3 -60q0 -36 -17 -64q-12 -24 -29 -41q-12 -10 -45 -23l-24 -4l-37 -1h-27v76h15q51 0 67 19q17 17 17 82l1 94l3 61q6 52 30 85t68 52q-54 24 -78 69t-24 151v22v18v14v11v9v8v5v13
q0 10 -2 14q-3 28 -18.5 43t-63.5 15h-15v77h27q52 0 75 -10q27 -9 44.5 -31.5t28.5 -66.5l5 -52l2 -74v-39q0 -28 2 -36q0 -27 6 -47q6 -29 31 -53q12 -9 27 -15l21 -5h14z" />
    <glyph glyph-name="asciitilde" unicode="~" horiz-adv-x="584" 
d="M42 272v100q53 59 136 59q26 0 61 -9q37 -8 93 -34l29 -11l21 -7l21 -5h13q26 0 61 18t65 49v-103q-30 -27 -62 -43q-36 -13 -73 -13l-29 1l-27 6q-22 5 -26 6q-12 6 -18 8l-40 18q-58 26 -97 26q-32 0 -59 -14q-28 -12 -69 -52z" />
    <glyph glyph-name="quotesinglbase" unicode="&#x201a;" horiz-adv-x="786" 
d="M415 684l41 -19l20 -11l19 -8l19 -62l19 -62l2 -8l2 -8l36 -117q18 -57 42 -114q5 -9 12 -12l17 -2h4l5 1h4h5q7 0 11 -2q6 0 10 -4l9 -6l9 -5l30 -23q14 -12 25 -32l-10 -4l-12 -1h-11l-10 2l-12 1l-12 1h-5l-4 -1q-7 3 -12 -2l-9 -9l-2 -2l10 -25l9 -25l2 -5l18 -49
q11 -23 32 -40l1 -5l1 -3q0 -8 -6 -17q-6 -6 -15 -6l-5 1l-111 17l-104 21q-108 21 -208 61h-12l-11 2h-4l-11 1h-7h-6l-2 -4l-1 -4l-9 -21l-14 -23q-14 -22 -32 -40l-6 -1h-5q-15 0 -30 6l-26 15l-12 6l-10 7l3 17l7 18l4 8l3 10l2 8l1 9v4l-1 4l-1 4l-1 4q-25 3 -45 23
q-21 18 -31 41l-1 4q12 9 30 12l35 5h12h13h18q13 0 17 2l10 24l10 25l96 217l51 107l19 38l37 68q16 -3 44 -12zM605 99l-8 20l-2 3q-3 13 -10 21q-3 9 -14 20l-30 -1l-62 -9l-90 -13l-21 -4l-21 -3q-21 0 -37 -5l-37 -5v-9l16 -4l17 -3l132 -26q66 -12 138 -12l7 -1h6
l6 -1h6l12 3l4 11zM411 510q-19 -29 -44 -80l-35 -84l-23 -58l-26 -57h28l19 4l49 8l57 9l59 4l4 1l6 1l11 3q6 3 6 11l-31 57l-20 62l-8 25l-6 18l-8 18q-9 26 -30 58h-8zM592 900l20 -11q-25 -51 -44 -69q-28 -26 -60 -26q-12 0 -27.5 3.5t-52.5 15.5q-60 19 -80 19
q-23 0 -38 -10.5t-34 -40.5l-19 13q23 48 46 73q25 25 66 25q30 0 85.5 -19t70.5 -19q17 0 32 9z" />
    <glyph glyph-name="florin" unicode="&#x192;" horiz-adv-x="786" 
d="M415 684l41 -19l20 -11l19 -8l19 -62l19 -62l2 -8l2 -8l36 -117q18 -57 42 -114q5 -9 12 -12l17 -2h4l5 1h4h5q7 0 11 -2q6 0 10 -4l9 -6l9 -5l30 -23q14 -12 25 -32l-10 -4l-12 -1h-11l-10 2l-12 1l-12 1h-5l-4 -1q-7 3 -12 -2l-9 -9l-2 -2l10 -25l9 -25l2 -5l18 -49
q11 -23 32 -40l1 -5l1 -3q0 -8 -6 -17q-6 -6 -15 -6l-5 1l-111 17l-104 21q-108 21 -208 61h-12l-11 2h-4l-11 1h-7h-6l-2 -4l-1 -4l-9 -21l-14 -23q-14 -22 -32 -40l-6 -1h-5q-15 0 -30 6l-26 15l-12 6l-10 7l3 17l7 18l4 8l3 10l2 8l1 9v4l-1 4l-1 4l-1 4q-25 3 -45 23
q-21 18 -31 41l-1 4q12 9 30 12l35 5h12h13h18q13 0 17 2l10 24l10 25l96 217l51 107l19 38l37 68q16 -3 44 -12zM605 99l-8 20l-2 3q-3 13 -10 21q-3 9 -14 20l-30 -1l-62 -9l-90 -13l-21 -4l-21 -3q-21 0 -37 -5l-37 -5v-9l16 -4l17 -3l132 -26q66 -12 138 -12l7 -1h6
l6 -1h6l12 3l4 11zM411 510q-19 -29 -44 -80l-35 -84l-23 -58l-26 -57h28l19 4l49 8l57 9l59 4l4 1l6 1l11 3q6 3 6 11l-31 57l-20 62l-8 25l-6 18l-8 18q-9 26 -30 58h-8zM432 822l-56 -83h-100l105 136h94l110 -136h-100zM534 888l65 136h116l-108 -136h-73z" />
    <glyph glyph-name="quotedblbase" unicode="&#x201e;" horiz-adv-x="786" 
d="M415 684l41 -19l20 -11l19 -8l19 -62l19 -62l2 -8l2 -8l36 -117q18 -57 42 -114q5 -9 12 -12l17 -2h4l5 1h4h5q7 0 11 -2q6 0 10 -4l9 -6l9 -5l30 -23q14 -12 25 -32l-10 -4l-12 -1h-11l-10 2l-12 1l-12 1h-5l-4 -1q-7 3 -12 -2l-9 -9l-2 -2l10 -25l9 -25l2 -5l18 -49
q11 -23 32 -40l1 -5l1 -3q0 -8 -6 -17q-6 -6 -15 -6l-5 1l-111 17l-104 21q-108 21 -208 61h-12l-11 2h-4l-11 1h-7h-6l-2 -4l-1 -4l-9 -21l-14 -23q-14 -22 -32 -40l-6 -1h-5q-15 0 -30 6l-26 15l-12 6l-10 7l3 17l7 18l4 8l3 10l2 8l1 9v4l-1 4l-1 4l-1 4q-25 3 -45 23
q-21 18 -31 41l-1 4q12 9 30 12l35 5h12h13h18q13 0 17 2l10 24l10 25l96 217l51 107l19 38l37 68q16 -3 44 -12zM605 99l-8 20l-2 3q-3 13 -10 21q-3 9 -14 20l-30 -1l-62 -9l-90 -13l-21 -4l-21 -3q-21 0 -37 -5l-37 -5v-9l16 -4l17 -3l132 -26q66 -12 138 -12l7 -1h6
l6 -1h6l12 3l4 11zM411 510q-19 -29 -44 -80l-35 -84l-23 -58l-26 -57h28l19 4l49 8l57 9l59 4l4 1l6 1l11 3q6 3 6 11l-31 57l-20 62l-8 25l-6 18l-8 18q-9 26 -30 58h-8zM432 822l-56 -83h-100l105 136h94l110 -136h-100zM336 876l-15 -21l-151 84q-55 31 -55 55
q0 14 13.5 28t24.5 15q23 0 64 -41z" />
    <glyph glyph-name="ellipsis" unicode="&#x2026;" horiz-adv-x="786" 
d="M415 684l41 -19l20 -11l19 -8l19 -62l19 -62l2 -8l2 -8l36 -117q18 -57 42 -114q5 -9 12 -12l17 -2h4l5 1h4h5q7 0 11 -2q6 0 10 -4l9 -6l9 -5l30 -23q14 -12 25 -32l-10 -4l-12 -1h-11l-10 2l-12 1l-12 1h-5l-4 -1q-7 3 -12 -2l-9 -9l-2 -2l10 -25l9 -25l2 -5l18 -49
q11 -23 32 -40l1 -5l1 -3q0 -8 -6 -17q-6 -6 -15 -6l-5 1l-111 17l-104 21q-108 21 -208 61h-12l-11 2h-4l-11 1h-7h-6l-2 -4l-1 -4l-9 -21l-14 -23q-14 -22 -32 -40l-6 -1h-5q-15 0 -30 6l-26 15l-12 6l-10 7l3 17l7 18l4 8l3 10l2 8l1 9v4l-1 4l-1 4l-1 4q-25 3 -45 23
q-21 18 -31 41l-1 4q12 9 30 12l35 5h12h13h18q13 0 17 2l10 24l10 25l96 217l51 107l19 38l37 68q16 -3 44 -12zM605 99l-8 20l-2 3q-3 13 -10 21q-3 9 -14 20l-30 -1l-62 -9l-90 -13l-21 -4l-21 -3q-21 0 -37 -5l-37 -5v-9l16 -4l17 -3l132 -26q66 -12 138 -12l7 -1h6
l6 -1h6l12 3l4 11zM411 510q-19 -29 -44 -80l-35 -84l-23 -58l-26 -57h28l19 4l49 8l57 9l59 4l4 1l6 1l11 3q6 3 6 11l-31 57l-20 62l-8 25l-6 18l-8 18q-9 26 -30 58h-8zM432 822l-56 -83h-100l105 136h94l110 -136h-100zM681 996l4 -24q0 -19 -7 -30q-14 -21 -39 -32
q-11 -3 -21 -19l-7 -33l-37 -1l-2 17q0 25 11 42l12 16l8 10l6 11l3 7l1 9v6q-3 19 -35 19q-15 0 -28 -7l-12 -3l-8 -1q-22 0 -22 32l1 10l1 8q32 30 57 30q42 0 68 -16q26 -12 46 -51z" />
    <glyph glyph-name="dagger" unicode="&#x2020;" 
d="M517 635q31 -28 71 -76q23 -37 41 -101l12 -57l4 -27l1 -27v-7v-7q0 -45 -9 -90.5t-28 -80.5q-11 -17 -36 -31q-3 -1 -16.5 -4.5t-26.5 -6.5l-8 -1h-7h-4h-4l-9 -15l-6 -17l-1 -4l-4 -12l-8 -16q-3 -8 -19 -17q-19 -14 -62 -29q-33 -9 -68 -9h-6h-5h-16h-11q-7 2 -10 2
l-26 6l-22 7q-33 10 -74 36q-63 48 -96 120t-33 154v22l4 31l3 27l8 26q18 62 59 121.5t105 94.5q11 6 23 9l26 4l5 1q18 0 38 6t35 28l13 1h14h8l9 -1q13 0 26 -4q13 -2 25 -7q45 -14 85 -49zM489 455l-8 17l-24 39q-10 19 -29 39q-28 36 -85 47q-102 -48 -144 -145
q-17 -43 -31 -100q-5 -24 -8 -52.5t-3 -56.5q9 -22 29 -40l40 -32l14 -10l14 -10q17 -9 37 -15l40 -4h5h5q19 0 31.5 2t29.5 9q31 9 54 25l5 12l1 13l-2 17l-5 17l-5 19l-2 18l1 7l1 6q12 -9 19 -26l10 -33l1 -6l7 -25l12 -22h4l9 37l6 39l2 25l1 26q0 35 -6 73.5t-18 73.5z
M417 -108l4 -21q0 -18 -11 -34.5t-34 -27.5l-21 -4q-19 0 -34.5 11.5t-26.5 33.5l-4 22q0 19 11.5 35.5t29.5 24.5l24 5q19 0 35 -11t27 -34z" />
    <glyph glyph-name="daggerdbl" unicode="&#x2021;" 
d="M517 635q31 -28 71 -76q23 -37 41 -101l12 -57l4 -27l1 -27v-7v-7q0 -45 -9 -90.5t-28 -80.5q-11 -17 -36 -31q-3 -1 -16.5 -4.5t-26.5 -6.5l-8 -1h-7h-4h-4l-9 -15l-6 -17l-1 -4l-4 -12l-8 -16q-3 -8 -19 -17q-19 -14 -62 -29q-33 -9 -68 -9h-6h-5h-16h-11q-7 2 -10 2
l-26 6l-22 7q-33 10 -74 36q-63 48 -96 120t-33 154v22l4 31l3 27l8 26q18 62 59 121.5t105 94.5q11 6 23 9l26 4l5 1q18 0 38 6t35 28l13 1h14h8l9 -1q13 0 26 -4q13 -2 25 -7q45 -14 85 -49zM489 455l-8 17l-24 39q-10 19 -29 39q-28 36 -85 47q-102 -48 -144 -145
q-17 -43 -31 -100q-5 -24 -8 -52.5t-3 -56.5q9 -22 29 -40l40 -32l14 -10l14 -10q17 -9 37 -15l40 -4h5h5q19 0 31.5 2t29.5 9q31 9 54 25l5 12l1 13l-2 17l-5 17l-5 19l-2 18l1 7l1 6q12 -9 19 -26l10 -33l1 -6l7 -25l12 -22h4l9 37l6 39l2 25l1 26q0 35 -6 73.5t-18 73.5z
M361 822l-55 -83h-100l105 137h94l110 -137h-100zM541 1038l20 -10q-25 -49 -44 -70q-28 -26 -60 -26l-27 4l-50 15q-63 19 -83 19q-24 0 -37 -9.5t-35 -40.5l-19 12q23 48 46.5 73.5t65.5 25.5q30 0 79 -20l76 -19q20 0 33 10l15 14z" />
    <glyph glyph-name="circumflex" unicode="&#x2c6;" horiz-adv-x="786" 
d="M415 684l41 -19l20 -11l19 -8l19 -62l19 -62l2 -8l2 -8l36 -117q18 -57 42 -114q5 -9 12 -12l17 -2h4l5 1h4h5q7 0 11 -2q6 0 10 -4l9 -6l9 -5l30 -23q14 -12 25 -32l-10 -4l-12 -1h-11l-10 2l-12 1l-12 1h-5l-4 -1q-7 3 -12 -2l-9 -9l-2 -2l10 -25l9 -25l2 -5l18 -49
q11 -23 32 -40l1 -5l1 -3q0 -8 -6 -17q-6 -6 -15 -6l-5 1l-111 17l-104 21q-108 21 -208 61h-12l-11 2h-4l-11 1h-7h-6l-2 -4l-1 -4l-9 -21l-14 -23q-14 -22 -32 -40l-6 -1h-5q-15 0 -30 6l-26 15l-12 6l-10 7l3 17l7 18l4 8l3 10l2 8l1 9v4l-1 4l-1 4l-1 4q-25 3 -45 23
q-21 18 -31 41l-1 4q12 9 30 12l35 5h12h13h18q13 0 17 2l10 24l10 25l96 217l51 107l19 38l37 68q16 -3 44 -12zM605 99l-8 20l-2 3q-3 13 -10 21q-3 9 -14 20l-30 -1l-62 -9l-90 -13l-21 -4l-21 -3q-21 0 -37 -5l-37 -5v-9l16 -4l17 -3l132 -26q66 -12 138 -12l7 -1h6
l6 -1h6l12 3l4 11zM411 510q-19 -29 -44 -80l-35 -84l-23 -58l-26 -57h28l19 4l49 8l57 9l59 4l4 1l6 1l11 3q6 3 6 11l-31 57l-20 62l-8 25l-6 18l-8 18q-9 26 -30 58h-8zM431 751q-78 0 -110 36q-27 36 -27 100h24q3 -24 28 -49q25 -22 85 -22q57 0 86 23q24 24 27 48h24
q0 -37 -9 -66t-40 -51q-33 -19 -88 -19z" />
    <glyph glyph-name="perthousand" unicode="&#x2030;" horiz-adv-x="722" 
d="M609 683l14 -26l7 -28l-1 -6l-1 -4q0 -12 -10 -21l-21 -13l-5 -2h-4l-326 -115q21 14 45 24l52 21l11 4l12 5l57 24q27 12 52 31l-1 5l-7 8l-10 4l-40 -3l-41 -3l-85 -6l-85 -3l-2 -4v-7v-9l1 -5l2 -8l2 -8l3 -14l2 -15l-2 -11l-3 -11v-4q0 -6 4 -13l12 -5l-2 -4l-3 -5
l-3 -5l-1 -4l-2 -4v-4l2 -7l9 -5h20h17l17 2l55 4h6l7 1l61 3l62 2l48 -1l25 -1q13 0 22 -3.5t13 -11.5l2 -15l2 -14q0 -6 5 -10q-28 -28 -70 -43l-82 -16l-3 -1l-63 -12q-25 -6 -55 -21l-18 -9l-20 -6q-21 -3 -35 -13q-16 -6 -24 -26l1 -8v-8l-1 -12v-11l-1 -12v-12l3 -28
q3 -13 13 -21h9h8h27h24l14 2q19 0 29 2l35 7q75 11 127 25l82 17l82 13l3 -6l1 -6l-1 -7l-3 -6l-3 -6l-3 -5l-6 -8l-3 -7q-24 -62 -82 -86q-49 -14 -122 -25l-5 -1h-4l-52 -7q-28 -3 -49 -10q-25 0 -32 -2q-25 0 -31 -2l-56 -4l-55 -2h-27l-26 3l-27 3l-26 5q-16 9 -24 22
q-6 7 -14 31l-4 13l-1 13q0 27 15.5 45.5t34.5 33.5l3 2l22 20l19 24q0 15 -2 19v21q0 36 -5 51q-3 20 -27 35q-13 2 -21 10l-10 22q0 17 10 27l22 19l4 3l14 10l10 12l-6 125l-14 10l-15 5l-18 6q-1 1 -2 1q-6 4 -12 11q0 12 -2 15l-3 17l-2 3l-3 16l-1 13q0 12 2 15l9 13
l38 -11l12 -1h13h12h13l44 1l45 1l89 5h18h15l17 2l50 3l46 1l46 1h16l18 -1l16 -1h17zM131 159q0 8 -7 14l-15 6l-13 -3q-7 -3 -9 -8l-2 -5l-2 -7l-2 -2l-2 -9l-1 -6l2 -8l10 -5l7 -2l8 -1q9 0 17 5q6 6 9 19v4l-1 4zM333 320l-9 -1l-15 1l-14 2h-4l-14 1l-12 1
q-15 0 -25.5 -7t-10.5 -26l1 -4v-5l6 -7l6 -4l3 -1q9 0 17 4l16 10l4 2l4 3l9 5l10 3l8 5l10 3h4l13 3q2 8 2 14zM333 825l-56 -83h-100l105 136h94l110 -136h-100zM473 887l-15 20l119 120q41 41 64 41q12 0 26 -14q9 -11 13 -29q0 -25 -56 -54z" />
    <glyph glyph-name="Scaron" unicode="&#x160;" horiz-adv-x="722" 
d="M609 683l14 -26l7 -28l-1 -6l-1 -4q0 -12 -10 -21l-21 -13l-5 -2h-4l-326 -115q21 14 45 24l52 21l11 4l12 5l57 24q27 12 52 31l-1 5l-7 8l-10 4l-40 -3l-41 -3l-85 -6l-85 -3l-2 -4v-7v-9l1 -5l2 -8l2 -8l3 -14l2 -15l-2 -11l-3 -11v-4q0 -6 4 -13l12 -5l-2 -4l-3 -5
l-3 -5l-1 -4l-2 -4v-4l2 -7l9 -5h20h17l17 2l55 4h6l7 1l61 3l62 2l48 -1l25 -1q13 0 22 -3.5t13 -11.5l2 -15l2 -14q0 -6 5 -10q-28 -28 -70 -43l-82 -16l-3 -1l-63 -12q-25 -6 -55 -21l-18 -9l-20 -6q-21 -3 -35 -13q-16 -6 -24 -26l1 -8v-8l-1 -12v-11l-1 -12v-12l3 -28
q3 -13 13 -21h9h8h27h24l14 2q19 0 29 2l35 7q75 11 127 25l82 17l82 13l3 -6l1 -6l-1 -7l-3 -6l-3 -6l-3 -5l-6 -8l-3 -7q-24 -62 -82 -86q-49 -14 -122 -25l-5 -1h-4l-52 -7q-28 -3 -49 -10q-25 0 -32 -2q-25 0 -31 -2l-56 -4l-55 -2h-27l-26 3l-27 3l-26 5q-16 9 -24 22
q-6 7 -14 31l-4 13l-1 13q0 27 15.5 45.5t34.5 33.5l3 2l22 20l19 24q0 15 -2 19v21q0 36 -5 51q-3 20 -27 35q-13 2 -21 10l-10 22q0 17 10 27l22 19l4 3l14 10l10 12l-6 125l-14 10l-15 5l-18 6q-1 1 -2 1q-6 4 -12 11q0 12 -2 15l-3 17l-2 3l-3 16l-1 13q0 12 2 15l9 13
l38 -11l12 -1h13h12h13l44 1l45 1l89 5h18h15l17 2l50 3l46 1l46 1h16l18 -1l16 -1h17zM131 159q0 8 -7 14l-15 6l-13 -3q-7 -3 -9 -8l-2 -5l-2 -7l-2 -2l-2 -9l-1 -6l2 -8l10 -5l7 -2l8 -1q9 0 17 5q6 6 9 19v4l-1 4zM333 320l-9 -1l-15 1l-14 2h-4l-14 1l-12 1
q-15 0 -25.5 -7t-10.5 -26l1 -4v-5l6 -7l6 -4l3 -1q9 0 17 4l16 10l4 2l4 3l9 5l10 3l8 5l10 3h4l13 3q2 8 2 14zM333 825l-56 -83h-100l105 136h94l110 -136h-100zM236 888l-15 -21l-151 84q-55 31 -55 55q0 14 13.5 28t24.5 15q23 0 64 -41z" />
    <glyph glyph-name="guilsinglleft" unicode="&#x2039;" horiz-adv-x="722" 
d="M609 683l14 -26l7 -28l-1 -6l-1 -4q0 -12 -10 -21l-21 -13l-5 -2h-4l-326 -115q21 14 45 24l52 21l11 4l12 5l57 24q27 12 52 31l-1 5l-7 8l-10 4l-40 -3l-41 -3l-85 -6l-85 -3l-2 -4v-7v-9l1 -5l2 -8l2 -8l3 -14l2 -15l-2 -11l-3 -11v-4q0 -6 4 -13l12 -5l-2 -4l-3 -5
l-3 -5l-1 -4l-2 -4v-4l2 -7l9 -5h20h17l17 2l55 4h6l7 1l61 3l62 2l48 -1l25 -1q13 0 22 -3.5t13 -11.5l2 -15l2 -14q0 -6 5 -10q-28 -28 -70 -43l-82 -16l-3 -1l-63 -12q-25 -6 -55 -21l-18 -9l-20 -6q-21 -3 -35 -13q-16 -6 -24 -26l1 -8v-8l-1 -12v-11l-1 -12v-12l3 -28
q3 -13 13 -21h9h8h27h24l14 2q19 0 29 2l35 7q75 11 127 25l82 17l82 13l3 -6l1 -6l-1 -7l-3 -6l-3 -6l-3 -5l-6 -8l-3 -7q-24 -62 -82 -86q-49 -14 -122 -25l-5 -1h-4l-52 -7q-28 -3 -49 -10q-25 0 -32 -2q-25 0 -31 -2l-56 -4l-55 -2h-27l-26 3l-27 3l-26 5q-16 9 -24 22
q-6 7 -14 31l-4 13l-1 13q0 27 15.5 45.5t34.5 33.5l3 2l22 20l19 24q0 15 -2 19v21q0 36 -5 51q-3 20 -27 35q-13 2 -21 10l-10 22q0 17 10 27l22 19l4 3l14 10l10 12l-6 125l-14 10l-15 5l-18 6q-1 1 -2 1q-6 4 -12 11q0 12 -2 15l-3 17l-2 3l-3 16l-1 13q0 12 2 15l9 13
l38 -11l12 -1h13h12h13l44 1l45 1l89 5h18h15l17 2l50 3l46 1l46 1h16l18 -1l16 -1h17zM131 159q0 8 -7 14l-15 6l-13 -3q-7 -3 -9 -8l-2 -5l-2 -7l-2 -2l-2 -9l-1 -6l2 -8l10 -5l7 -2l8 -1q9 0 17 5q6 6 9 19v4l-1 4zM333 320l-9 -1l-15 1l-14 2h-4l-14 1l-12 1
q-15 0 -25.5 -7t-10.5 -26l1 -4v-5l6 -7l6 -4l3 -1q9 0 17 4l16 10l4 2l4 3l9 5l10 3l8 5l10 3h4l13 3q2 8 2 14zM333 825l-56 -83h-100l105 136h94l110 -136h-100zM561 1032l4 -24q0 -19 -7 -30q-14 -21 -39 -32q-11 -3 -21 -19l-7 -33l-37 -1l-2 17q0 25 11 42l12 16l8 10
l6 11l3 7l1 9v6q-3 19 -35 19q-15 0 -28 -7l-12 -3l-8 -1q-22 0 -22 32l1 10l1 8q32 30 57 30q42 0 68 -16q26 -12 46 -51z" />
    <glyph glyph-name="OE" unicode="&#x152;" horiz-adv-x="722" 
d="M609 683l14 -26l7 -28l-1 -6l-1 -4q0 -12 -10 -21l-21 -13l-5 -2h-4l-326 -115q21 14 45 24l52 21l11 4l12 5l57 24q27 12 52 31l-1 5l-7 8l-10 4l-40 -3l-41 -3l-85 -6l-85 -3l-2 -4v-7v-9l1 -5l2 -8l2 -8l3 -14l2 -15l-2 -11l-3 -11v-4q0 -6 4 -13l12 -5l-2 -4l-3 -5
l-3 -5l-1 -4l-2 -4v-4l2 -7l9 -5h20h17l17 2l55 4h6l7 1l61 3l62 2l48 -1l25 -1q13 0 22 -3.5t13 -11.5l2 -15l2 -14q0 -6 5 -10q-28 -28 -70 -43l-82 -16l-3 -1l-63 -12q-25 -6 -55 -21l-18 -9l-20 -6q-21 -3 -35 -13q-16 -6 -24 -26l1 -8v-8l-1 -12v-11l-1 -12v-12l3 -28
q3 -13 13 -21h9h8h27h24l14 2q19 0 29 2l35 7q75 11 127 25l82 17l82 13l3 -6l1 -6l-1 -7l-3 -6l-3 -6l-3 -5l-6 -8l-3 -7q-24 -62 -82 -86q-49 -14 -122 -25l-5 -1h-4l-52 -7q-28 -3 -49 -10q-25 0 -32 -2q-25 0 -31 -2l-56 -4l-55 -2h-27l-26 3l-27 3l-26 5q-16 9 -24 22
q-6 7 -14 31l-4 13l-1 13q0 27 15.5 45.5t34.5 33.5l3 2l22 20l19 24q0 15 -2 19v21q0 36 -5 51q-3 20 -27 35q-13 2 -21 10l-10 22q0 17 10 27l22 19l4 3l14 10l10 12l-6 125l-14 10l-15 5l-18 6q-1 1 -2 1q-6 4 -12 11q0 12 -2 15l-3 17l-2 3l-3 16l-1 13q0 12 2 15l9 13
l38 -11l12 -1h13h12h13l44 1l45 1l89 5h18h15l17 2l50 3l46 1l46 1h16l18 -1l16 -1h17zM131 159q0 8 -7 14l-15 6l-13 -3q-7 -3 -9 -8l-2 -5l-2 -7l-2 -2l-2 -9l-1 -6l2 -8l10 -5l7 -2l8 -1q9 0 17 5q6 6 9 19v4l-1 4zM333 320l-9 -1l-15 1l-14 2h-4l-14 1l-12 1
q-15 0 -25.5 -7t-10.5 -26l1 -4v-5l6 -7l6 -4l3 -1q9 0 17 4l16 10l4 2l4 3l9 5l10 3l8 5l10 3h4l13 3q2 8 2 14zM414 -111l5 -26q0 -24 -12 -42t-37 -30l-26 -5q-23 0 -40.5 12t-30.5 37l-5 19v8q0 21 12 42q11 16 36 29l26 5q24 0 42 -12t30 -37zM333 825l-56 -83h-100
l105 136h94l110 -136h-100z" />
    <glyph glyph-name="quoteleft" unicode="&#x2018;" horiz-adv-x="222" 
d="M157 596v-102h-94v80q0 35 3 56t12 39q21 37 65 59l22 -34q-27 -9 -40 -34l-11 -28l-3 -36h46z" />
    <glyph glyph-name="quoteright" unicode="&#x2019;" horiz-adv-x="222" 
d="M61 621v102h94v-80q0 -62 -16 -96t-65 -58l-21 34q24 9 39 34l6 15l5 13l3 36h-45z" />
    <glyph glyph-name="quotedblleft" unicode="&#x201c;" horiz-adv-x="722" 
d="M609 683l14 -26l7 -28l-1 -6l-1 -4q0 -12 -10 -21l-21 -13l-5 -2h-4l-326 -115q21 14 45 24l52 21l11 4l12 5l57 24q27 12 52 31l-1 5l-7 8l-10 4l-40 -3l-41 -3l-85 -6l-85 -3l-2 -4v-7v-9l1 -5l2 -8l2 -8l3 -14l2 -15l-2 -11l-3 -11v-4q0 -6 4 -13l12 -5l-2 -4l-3 -5
l-3 -5l-1 -4l-2 -4v-4l2 -7l9 -5h20h17l17 2l55 4h6l7 1l61 3l62 2l48 -1l25 -1q13 0 22 -3.5t13 -11.5l2 -15l2 -14q0 -6 5 -10q-28 -28 -70 -43l-82 -16l-3 -1l-63 -12q-25 -6 -55 -21l-18 -9l-20 -6q-21 -3 -35 -13q-16 -6 -24 -26l1 -8v-8l-1 -12v-11l-1 -12v-12l3 -28
q3 -13 13 -21h9h8h27h24l14 2q19 0 29 2l35 7q75 11 127 25l82 17l82 13l3 -6l1 -6l-1 -7l-3 -6l-3 -6l-3 -5l-6 -8l-3 -7q-24 -62 -82 -86q-49 -14 -122 -25l-5 -1h-4l-52 -7q-28 -3 -49 -10q-25 0 -32 -2q-25 0 -31 -2l-56 -4l-55 -2h-27l-26 3l-27 3l-26 5q-16 9 -24 22
q-6 7 -14 31l-4 13l-1 13q0 27 15.5 45.5t34.5 33.5l3 2l22 20l19 24q0 15 -2 19v21q0 36 -5 51q-3 20 -27 35q-13 2 -21 10l-10 22q0 17 10 27l22 19l4 3l14 10l10 12l-6 125l-14 10l-15 5l-18 6q-1 1 -2 1q-6 4 -12 11q0 12 -2 15l-3 17l-2 3l-3 16l-1 13q0 12 2 15l9 13
l38 -11l12 -1h13h12h13l44 1l45 1l89 5h18h15l17 2l50 3l46 1l46 1h16l18 -1l16 -1h17zM131 159q0 8 -7 14l-15 6l-13 -3q-7 -3 -9 -8l-2 -5l-2 -7l-2 -2l-2 -9l-1 -6l2 -8l10 -5l7 -2l8 -1q9 0 17 5q6 6 9 19v4l-1 4zM333 320l-9 -1l-15 1l-14 2h-4l-14 1l-12 1
q-15 0 -25.5 -7t-10.5 -26l1 -4v-5l6 -7l6 -4l3 -1q9 0 17 4l16 10l4 2l4 3l9 5l10 3l8 5l10 3h4l13 3q2 8 2 14zM333 825l-56 -83h-100l105 136h94l110 -136h-100zM236 888l-15 -21l-151 84q-55 31 -55 55q0 14 13.5 28t24.5 15q23 0 64 -41z" />
    <glyph glyph-name="quotedblright" unicode="&#x201d;" horiz-adv-x="722" 
d="M609 683l14 -26l7 -28l-1 -6l-1 -4q0 -12 -10 -21l-21 -13l-5 -2h-4l-326 -115q21 14 45 24l52 21l11 4l12 5l57 24q27 12 52 31l-1 5l-7 8l-10 4l-40 -3l-41 -3l-85 -6l-85 -3l-2 -4v-7v-9l1 -5l2 -8l2 -8l3 -14l2 -15l-2 -11l-3 -11v-4q0 -6 4 -13l12 -5l-2 -4l-3 -5
l-3 -5l-1 -4l-2 -4v-4l2 -7l9 -5h20h17l17 2l55 4h6l7 1l61 3l62 2l48 -1l25 -1q13 0 22 -3.5t13 -11.5l2 -15l2 -14q0 -6 5 -10q-28 -28 -70 -43l-82 -16l-3 -1l-63 -12q-25 -6 -55 -21l-18 -9l-20 -6q-21 -3 -35 -13q-16 -6 -24 -26l1 -8v-8l-1 -12v-11l-1 -12v-12l3 -28
q3 -13 13 -21h9h8h27h24l14 2q19 0 29 2l35 7q75 11 127 25l82 17l82 13l3 -6l1 -6l-1 -7l-3 -6l-3 -6l-3 -5l-6 -8l-3 -7q-24 -62 -82 -86q-49 -14 -122 -25l-5 -1h-4l-52 -7q-28 -3 -49 -10q-25 0 -32 -2q-25 0 -31 -2l-56 -4l-55 -2h-27l-26 3l-27 3l-26 5q-16 9 -24 22
q-6 7 -14 31l-4 13l-1 13q0 27 15.5 45.5t34.5 33.5l3 2l22 20l19 24q0 15 -2 19v21q0 36 -5 51q-3 20 -27 35q-13 2 -21 10l-10 22q0 17 10 27l22 19l4 3l14 10l10 12l-6 125l-14 10l-15 5l-18 6q-1 1 -2 1q-6 4 -12 11q0 12 -2 15l-3 17l-2 3l-3 16l-1 13q0 12 2 15l9 13
l38 -11l12 -1h13h12h13l44 1l45 1l89 5h18h15l17 2l50 3l46 1l46 1h16l18 -1l16 -1h17zM131 159q0 8 -7 14l-15 6l-13 -3q-7 -3 -9 -8l-2 -5l-2 -7l-2 -2l-2 -9l-1 -6l2 -8l10 -5l7 -2l8 -1q9 0 17 5q6 6 9 19v4l-1 4zM333 320l-9 -1l-15 1l-14 2h-4l-14 1l-12 1
q-15 0 -25.5 -7t-10.5 -26l1 -4v-5l6 -7l6 -4l3 -1q9 0 17 4l16 10l4 2l4 3l9 5l10 3l8 5l10 3h4l13 3q2 8 2 14zM333 825l-56 -83h-100l105 136h94l110 -136h-100zM561 1032l4 -24q0 -19 -7 -30q-14 -21 -39 -32q-11 -3 -21 -19l-7 -33l-37 -1l-2 17q0 25 11 42l12 16l8 10
l6 11l3 7l1 9v6q-3 19 -35 19q-15 0 -28 -7l-12 -3l-8 -1q-22 0 -22 32l1 10l1 8q32 30 57 30q42 0 68 -16q26 -12 46 -51z" />
    <glyph glyph-name="bullet" unicode="&#x2022;" horiz-adv-x="722" 
d="M609 683l14 -26l7 -28l-1 -6l-1 -4q0 -12 -10 -21l-21 -13l-5 -2h-4l-326 -115q21 14 45 24l52 21l11 4l12 5l57 24q27 12 52 31l-1 5l-7 8l-10 4l-40 -3l-41 -3l-85 -6l-85 -3l-2 -4v-7v-9l1 -5l2 -8l2 -8l3 -14l2 -15l-2 -11l-3 -11v-4q0 -6 4 -13l12 -5l-2 -4l-3 -5
l-3 -5l-1 -4l-2 -4v-4l2 -7l9 -5h20h17l17 2l55 4h6l7 1l61 3l62 2l48 -1l25 -1q13 0 22 -3.5t13 -11.5l2 -15l2 -14q0 -6 5 -10q-28 -28 -70 -43l-82 -16l-3 -1l-63 -12q-25 -6 -55 -21l-18 -9l-20 -6q-21 -3 -35 -13q-16 -6 -24 -26l1 -8v-8l-1 -12v-11l-1 -12v-12l3 -28
q3 -13 13 -21h9h8h27h24l14 2q19 0 29 2l35 7q75 11 127 25l82 17l82 13l3 -6l1 -6l-1 -7l-3 -6l-3 -6l-3 -5l-6 -8l-3 -7q-24 -62 -82 -86q-49 -14 -122 -25l-5 -1h-4l-52 -7q-28 -3 -49 -10q-25 0 -32 -2q-25 0 -31 -2l-56 -4l-55 -2h-27l-26 3l-27 3l-26 5q-16 9 -24 22
q-6 7 -14 31l-4 13l-1 13q0 27 15.5 45.5t34.5 33.5l3 2l22 20l19 24q0 15 -2 19v21q0 36 -5 51q-3 20 -27 35q-13 2 -21 10l-10 22q0 17 10 27l22 19l4 3l14 10l10 12l-6 125l-14 10l-15 5l-18 6q-1 1 -2 1q-6 4 -12 11q0 12 -2 15l-3 17l-2 3l-3 16l-1 13q0 12 2 15l9 13
l38 -11l12 -1h13h12h13l44 1l45 1l89 5h18h15l17 2l50 3l46 1l46 1h16l18 -1l16 -1h17zM131 159q0 8 -7 14l-15 6l-13 -3q-7 -3 -9 -8l-2 -5l-2 -7l-2 -2l-2 -9l-1 -6l2 -8l10 -5l7 -2l8 -1q9 0 17 5q6 6 9 19v4l-1 4zM333 320l-9 -1l-15 1l-14 2h-4l-14 1l-12 1
q-15 0 -25.5 -7t-10.5 -26l1 -4v-5l6 -7l6 -4l3 -1q9 0 17 4l16 10l4 2l4 3l9 5l10 3l8 5l10 3h4l13 3q2 8 2 14zM333 825l-56 -83h-100l105 136h94l110 -136h-100zM170 920q0 48 27.5 79.5t72.5 31.5q14 0 34 -7q16 -4 23.5 -7.5t25.5 -12.5q28 -14 45 -14q16 0 24 8.5
t12 34.5h63q0 -26 -6 -46l-10 -23l-12 -15q-28 -28 -68 -28q-31 0 -81 28q-26 14 -48 17q-12 0 -24.5 -11.5t-12.5 -34.5h-65z" />
    <glyph glyph-name="endash" unicode="&#x2013;" 
d="M517 635q31 -28 71 -76q23 -37 41 -101l12 -57l4 -27l1 -27v-7v-7q0 -45 -9 -90.5t-28 -80.5q-11 -17 -36 -31q-3 -1 -16.5 -4.5t-26.5 -6.5l-8 -1h-7h-4h-4l-9 -15l-6 -17l-1 -4l-4 -12l-8 -16q-3 -8 -19 -17q-19 -14 -62 -29q-33 -9 -68 -9h-6h-5h-16h-11q-7 2 -10 2
l-26 6l-22 7q-33 10 -74 36q-63 48 -96 120t-33 154v22l4 31l3 27l8 26q18 62 59 121.5t105 94.5q11 6 23 9l26 4l5 1q18 0 38 6t35 28l13 1h14h8l9 -1q13 0 26 -4q13 -2 25 -7q45 -14 85 -49zM489 455l-8 17l-24 39q-10 19 -29 39q-28 36 -85 47q-102 -48 -144 -145
q-17 -43 -31 -100q-5 -24 -8 -52.5t-3 -56.5q9 -22 29 -40l40 -32l14 -10l14 -10q17 -9 37 -15l40 -4h5h5q19 0 31.5 2t29.5 9q31 9 54 25l5 12l1 13l-2 17l-5 17l-5 19l-2 18l1 7l1 6q12 -9 19 -26l10 -33l1 -6l7 -25l12 -22h4l9 37l6 39l2 25l1 26q0 35 -6 73.5t-18 73.5z
M363 834l-55 -83h-101l106 137h94l109 -137h-99zM212 905l-14 20l118 120q41 41 64 41q10 0 27 -14q12 -15 12 -29q0 -24 -55 -54z" />
    <glyph glyph-name="emdash" unicode="&#x2014;" 
d="M517 635q31 -28 71 -76q23 -37 41 -101l12 -57l4 -27l1 -27v-7v-7q0 -45 -9 -90.5t-28 -80.5q-11 -17 -36 -31q-3 -1 -16.5 -4.5t-26.5 -6.5l-8 -1h-7h-4h-4l-9 -15l-6 -17l-1 -4l-4 -12l-8 -16q-3 -8 -19 -17q-19 -14 -62 -29q-33 -9 -68 -9h-6h-5h-16h-11q-7 2 -10 2
l-26 6l-22 7q-33 10 -74 36q-63 48 -96 120t-33 154v22l4 31l3 27l8 26q18 62 59 121.5t105 94.5q11 6 23 9l26 4l5 1q18 0 38 6t35 28l13 1h14h8l9 -1q13 0 26 -4q13 -2 25 -7q45 -14 85 -49zM489 455l-8 17l-24 39q-10 19 -29 39q-28 36 -85 47q-102 -48 -144 -145
q-17 -43 -31 -100q-5 -24 -8 -52.5t-3 -56.5q9 -22 29 -40l40 -32l14 -10l14 -10q17 -9 37 -15l40 -4h5h5q19 0 31.5 2t29.5 9q31 9 54 25l5 12l1 13l-2 17l-5 17l-5 19l-2 18l1 7l1 6q12 -9 19 -26l10 -33l1 -6l7 -25l12 -22h4l9 37l6 39l2 25l1 26q0 35 -6 73.5t-18 73.5z
M391 830l-55 -83h-101l106 137h94l109 -137h-99zM564 916l-15 -20l-151 84q-56 30 -56 54q0 12 13 26q10 13 26 17q23 0 64 -41z" />
    <glyph glyph-name="tilde" unicode="&#x2dc;" 
d="M517 635q31 -28 71 -76q23 -37 41 -101l12 -57l4 -27l1 -27v-7v-7q0 -45 -9 -90.5t-28 -80.5q-11 -17 -36 -31q-3 -1 -16.5 -4.5t-26.5 -6.5l-8 -1h-7h-4h-4l-9 -15l-6 -17l-1 -4l-4 -12l-8 -16q-3 -8 -19 -17q-19 -14 -62 -29q-33 -9 -68 -9h-6h-5h-16h-11q-7 2 -10 2
l-26 6l-22 7q-33 10 -74 36q-63 48 -96 120t-33 154v22l4 31l3 27l8 26q18 62 59 121.5t105 94.5q11 6 23 9l26 4l5 1q18 0 38 6t35 28l13 1h14h8l9 -1q13 0 26 -4q13 -2 25 -7q45 -14 85 -49zM489 455l-8 17l-24 39q-10 19 -29 39q-28 36 -85 47q-102 -48 -144 -145
q-17 -43 -31 -100q-5 -24 -8 -52.5t-3 -56.5q9 -22 29 -40l40 -32l14 -10l14 -10q17 -9 37 -15l40 -4h5h5q19 0 31.5 2t29.5 9q31 9 54 25l5 12l1 13l-2 17l-5 17l-5 19l-2 18l1 7l1 6q12 -9 19 -26l10 -33l1 -6l7 -25l12 -22h4l9 37l6 39l2 25l1 26q0 35 -6 73.5t-18 73.5z
M390 815l-56 -83h-100l105 136h94l110 -136h-100zM593 1028l3 -11l1 -13q0 -18 -7 -29q-12 -24 -39 -33q-10 -3 -19 -15l-7 -19l-2 -17l-37 -1l-2 16q0 25 11 42l12 16l8 10l6 10l3 8l1 9v6q-3 19 -35 19q-10 0 -28 -6l-12 -4h-8q-22 0 -22 31l1 11l1 7q30 30 57 30
q38 0 68 -15q27 -12 46 -52z" />
    <glyph glyph-name="trademark" unicode="&#x2122;" 
d="M517 635q31 -28 71 -76q23 -37 41 -101l12 -57l4 -27l1 -27v-7v-7q0 -45 -9 -90.5t-28 -80.5q-11 -17 -36 -31q-3 -1 -16.5 -4.5t-26.5 -6.5l-8 -1h-7h-4h-4l-9 -15l-6 -17l-1 -4l-4 -12l-8 -16q-3 -8 -19 -17q-19 -14 -62 -29q-33 -9 -68 -9h-6h-5h-16h-11q-7 2 -10 2
l-26 6l-22 7q-33 10 -74 36q-63 48 -96 120t-33 154v22l4 31l3 27l8 26q18 62 59 121.5t105 94.5q11 6 23 9l26 4l5 1q18 0 38 6t35 28l13 1h14h8l9 -1q13 0 26 -4q13 -2 25 -7q45 -14 85 -49zM489 455l-8 17l-24 39q-10 19 -29 39q-28 36 -85 47q-102 -48 -144 -145
q-17 -43 -31 -100q-5 -24 -8 -52.5t-3 -56.5q9 -22 29 -40l40 -32l14 -10l14 -10q17 -9 37 -15l40 -4h5h5q19 0 31.5 2t29.5 9q31 9 54 25l5 12l1 13l-2 17l-5 17l-5 19l-2 18l1 7l1 6q12 -9 19 -26l10 -33l1 -6l7 -25l12 -22h4l9 37l6 39l2 25l1 26q0 35 -6 73.5t-18 73.5z
M361 822l-55 -83h-100l105 137h94l110 -137h-100zM541 1038l20 -10q-25 -49 -44 -70q-28 -26 -60 -26l-27 4l-50 15q-63 19 -83 19q-24 0 -37 -9.5t-35 -40.5l-19 12q23 48 46.5 73.5t65.5 25.5q30 0 79 -20l76 -19q20 0 33 10l15 14z" />
    <glyph glyph-name="scaron" unicode="&#x161;" horiz-adv-x="734" 
d="M626 696h6h5h14l20 -4q15 -3 30 -15v-5v-4q0 -79 -43 -145t-107 -113l-6 -14l-6 -15q-31 -68 -67.5 -134.5t-88.5 -121.5l3 -13l9 -2l29 3h11l19 2h27l37 5q8 0 20 4t23 11v-15l-15 -19l-16 -21l-39 -41q-15 -14 -44 -29l-90 -7l-91 -3l-49 1l-21 1l-26 4l-8 2l-7 3
q-15 5 -25.5 14.5t-10.5 26.5q2 15 5 18l5 20l8 29l7 30q9 0 13 -5l5 -11l5 -12l9 -7l12 -3l13 -4l10 -3q7 0 11 -2l8 -2h8q10 0 14 2l14 8l9 16l9 17l7 12l7 13l21 39l17 42l-9 2l-9 1l-10 -1l-9 -1l-10 -2h-10h-5l-4 1l-10 3l-8 5q-36 47 -57 89l-46 95l-3 6l-3 8l-38 79
q-18 40 -43 76l-4 1l-7 -1h-4l-5 -2h-4l-5 1l9 23l15 26l7 11l6 11l15 8l17 3l4 -1h5q9 0 20 -4l19 -6q32 -36 53.5 -82t40.5 -96l16 -45l19 -43l15 -19l14 -20l25 -35q9 -11 29 -26q18 3 25.5 17t11.5 29l1 3l1 4l3 9l3 9l18 39l18 42l4 10l4 11l28 61q5 11 13.5 26.5
t20.5 33.5q36 57 109 88h4zM630 560l-18 -36l-16 -32l-18 -26l3 -3l6 4l6 5q23 23 42.5 54.5t19.5 64.5q-15 -12 -25 -31zM328 808l65 136h115l-108 -136h-72z" />
    <glyph glyph-name="guilsinglright" unicode="&#x203a;" horiz-adv-x="734" 
d="M626 696h6h5h14l20 -4q15 -3 30 -15v-5v-4q0 -79 -43 -145t-107 -113l-6 -14l-6 -15q-31 -68 -67.5 -134.5t-88.5 -121.5l3 -13l9 -2l29 3h11l19 2h27l37 5q8 0 20 4t23 11v-15l-15 -19l-16 -21l-39 -41q-15 -14 -44 -29l-90 -7l-91 -3l-49 1l-21 1l-26 4l-8 2l-7 3
q-15 5 -25.5 14.5t-10.5 26.5q2 15 5 18l5 20l8 29l7 30q9 0 13 -5l5 -11l5 -12l9 -7l12 -3l13 -4l10 -3q7 0 11 -2l8 -2h8q10 0 14 2l14 8l9 16l9 17l7 12l7 13l21 39l17 42l-9 2l-9 1l-10 -1l-9 -1l-10 -2h-10h-5l-4 1l-10 3l-8 5q-36 47 -57 89l-46 95l-3 6l-3 8l-38 79
q-18 40 -43 76l-4 1l-7 -1h-4l-5 -2h-4l-5 1l9 23l15 26l7 11l6 11l15 8l17 3l4 -1h5q9 0 20 -4l19 -6q32 -36 53.5 -82t40.5 -96l16 -45l19 -43l15 -19l14 -20l25 -35q9 -11 29 -26q18 3 25.5 17t11.5 29l1 3l1 4l3 9l3 9l18 39l18 42l4 10l4 11l28 61q5 11 13.5 26.5
t20.5 33.5q36 57 109 88h4zM630 560l-18 -36l-16 -32l-18 -26l3 -3l6 4l6 5q23 23 42.5 54.5t19.5 64.5q-15 -12 -25 -31zM485 893l4 -24q0 -18 -7 -29q-15 -24 -39 -33q-13 -3 -21 -20l-7 -31l-37 -1l-2 16q0 25 11 42l12 16l14 20l4 17v6q-3 19 -35 19q-10 0 -28 -6
l-10 -2l-10 -2q-22 0 -22 31l1 11l1 7q29 30 57 30q39 0 68 -15q27 -12 46 -52z" />
    <glyph glyph-name="oe" unicode="&#x153;" horiz-adv-x="734" 
d="M626 696h6h5h14l20 -4q15 -3 30 -15v-5v-4q0 -79 -43 -145t-107 -113l-6 -14l-6 -15q-31 -68 -67.5 -134.5t-88.5 -121.5l3 -13l9 -2l29 3h11l19 2h27l37 5q8 0 20 4t23 11v-15l-15 -19l-16 -21l-39 -41q-15 -14 -44 -29l-90 -7l-91 -3l-49 1l-21 1l-26 4l-8 2l-7 3
q-15 5 -25.5 14.5t-10.5 26.5q2 15 5 18l5 20l8 29l7 30q9 0 13 -5l5 -11l5 -12l9 -7l12 -3l13 -4l10 -3q7 0 11 -2l8 -2h8q10 0 14 2l14 8l9 16l9 17l7 12l7 13l21 39l17 42l-9 2l-9 1l-10 -1l-9 -1l-10 -2h-10h-5l-4 1l-10 3l-8 5q-36 47 -57 89l-46 95l-3 6l-3 8l-38 79
q-18 40 -43 76l-4 1l-7 -1h-4l-5 -2h-4l-5 1l9 23l15 26l7 11l6 11l15 8l17 3l4 -1h5q9 0 20 -4l19 -6q32 -36 53.5 -82t40.5 -96l16 -45l19 -43l15 -19l14 -20l25 -35q9 -11 29 -26q18 3 25.5 17t11.5 29l1 3l1 4l3 9l3 9l18 39l18 42l4 10l4 11l28 61q5 11 13.5 26.5
t20.5 33.5q36 57 109 88h4zM630 560l-18 -36l-16 -32l-18 -26l3 -3l6 4l6 5q23 23 42.5 54.5t19.5 64.5q-15 -12 -25 -31zM372 -93q10 -18 10 -34q0 -36 -32 -56q-8 -4 -16.5 -7t-18.5 -3q-35 0 -54 31q-4 8 -7 16.5t-3 18.5q0 34 31 56q18 10 34 10q36 0 56 -32z" />
    <glyph glyph-name="Ydieresis" unicode="&#x178;" 
d="M517 635q31 -28 71 -76q23 -37 41 -101l12 -57l4 -27l1 -27v-7v-7q0 -45 -9 -90.5t-28 -80.5q-11 -17 -36 -31q-3 -1 -16.5 -4.5t-26.5 -6.5l-8 -1h-7h-4h-4l-9 -15l-6 -17l-1 -4l-4 -12l-8 -16q-3 -8 -19 -17q-19 -14 -62 -29q-33 -9 -68 -9h-6h-5h-16h-11q-7 2 -10 2
l-26 6l-22 7q-33 10 -74 36q-63 48 -96 120t-33 154v22l4 31l3 27l8 26q18 62 59 121.5t105 94.5q11 6 23 9l26 4l5 1q18 0 38 6t35 28l13 1h14h8l9 -1q13 0 26 -4q13 -2 25 -7q45 -14 85 -49zM489 455l-8 17l-24 39q-10 19 -29 39q-28 36 -85 47q-102 -48 -144 -145
q-17 -43 -31 -100q-5 -24 -8 -52.5t-3 -56.5q9 -22 29 -40l40 -32l14 -10l14 -10q17 -9 37 -15l40 -4h5h5q19 0 31.5 2t29.5 9q31 9 54 25l5 12l1 13l-2 17l-5 17l-5 19l-2 18l1 7l1 6q12 -9 19 -26l10 -33l1 -6l7 -25l12 -22h4l9 37l6 39l2 25l1 26q0 35 -6 73.5t-18 73.5z
M513 654l16 -15l11 20l11 23q5 20 7 39l-3 23l-14 26l-13 25l-3 20q0 18 13 34q14 14 36 14q24 0 45 -24q10 -12 15 -27t5 -35q0 -43 -33 -91l-22 -34q-13 -24 -29 -36l12 -15l3 -4l-4 3l-2 4zM489 992l4 -24q0 -18 -7 -29q-15 -21 -39 -33q-9 -3 -20 -18q-8 -16 -8 -33
l-37 -1l-2 16q0 28 11 42l12 16l14 20l3 8l1 9v6q-3 19 -35 19q-11 0 -28 -6l-10 -3l-10 -1q-22 0 -22 31l1 11l1 7q29 30 57 30q38 0 68 -15q30 -12 46 -52z" />
    <glyph glyph-name="nonbreakingspace" unicode="&#xa0;" horiz-adv-x="377" 
 />
    <glyph glyph-name="exclamdown" unicode="&#xa1;" horiz-adv-x="786" 
d="M415 684l41 -19l20 -11l19 -8l19 -62l19 -62l2 -8l2 -8l36 -117q18 -57 42 -114q5 -9 12 -12l17 -2h4l5 1h4h5q7 0 11 -2q6 0 10 -4l9 -6l9 -5l30 -23q14 -12 25 -32l-10 -4l-12 -1h-11l-10 2l-12 1l-12 1h-5l-4 -1q-7 3 -12 -2l-9 -9l-2 -2l10 -25l9 -25l2 -5l18 -49
q11 -23 32 -40l1 -5l1 -3q0 -8 -6 -17q-6 -6 -15 -6l-5 1l-111 17l-104 21q-108 21 -208 61h-12l-11 2h-4l-11 1h-7h-6l-2 -4l-1 -4l-9 -21l-14 -23q-14 -22 -32 -40l-6 -1h-5q-15 0 -30 6l-26 15l-12 6l-10 7l3 17l7 18l4 8l3 10l2 8l1 9v4l-1 4l-1 4l-1 4q-25 3 -45 23
q-21 18 -31 41l-1 4q12 9 30 12l35 5h12h13h18q13 0 17 2l10 24l10 25l96 217l51 107l19 38l37 68q16 -3 44 -12zM605 99l-8 20l-2 3q-3 13 -10 21q-3 9 -14 20l-30 -1l-62 -9l-90 -13l-21 -4l-21 -3q-21 0 -37 -5l-37 -5v-9l16 -4l17 -3l132 -26q66 -12 138 -12l7 -1h6
l6 -1h6l12 3l4 11zM411 510q-19 -29 -44 -80l-35 -84l-23 -58l-26 -57h28l19 4l49 8l57 9l59 4l4 1l6 1l11 3q6 3 6 11l-31 57l-20 62l-8 25l-6 18l-8 18q-9 26 -30 58h-8zM431 751q-78 0 -110 36q-27 36 -27 100h24q3 -24 28 -49q25 -22 85 -22q57 0 86 23q24 24 27 48h24
q0 -37 -9 -66t-40 -51q-33 -19 -88 -19zM435 925l-14 20l118 120q39 41 64 41q13 0 27 -14q12 -14 12 -29q0 -23 -55 -54z" />
    <glyph glyph-name="cent" unicode="&#xa2;" horiz-adv-x="786" 
d="M415 684l41 -19l20 -11l19 -8l19 -62l19 -62l2 -8l2 -8l36 -117q18 -57 42 -114q5 -9 12 -12l17 -2h4l5 1h4h5q7 0 11 -2q6 0 10 -4l9 -6l9 -5l30 -23q14 -12 25 -32l-10 -4l-12 -1h-11l-10 2l-12 1l-12 1h-5l-4 -1q-7 3 -12 -2l-9 -9l-2 -2l10 -25l9 -25l2 -5l18 -49
q11 -23 32 -40l1 -5l1 -3q0 -8 -6 -17q-6 -6 -15 -6l-5 1l-111 17l-104 21q-108 21 -208 61h-12l-11 2h-4l-11 1h-7h-6l-2 -4l-1 -4l-9 -21l-14 -23q-14 -22 -32 -40l-6 -1h-5q-15 0 -30 6l-26 15l-12 6l-10 7l3 17l7 18l4 8l3 10l2 8l1 9v4l-1 4l-1 4l-1 4q-25 3 -45 23
q-21 18 -31 41l-1 4q12 9 30 12l35 5h12h13h18q13 0 17 2l10 24l10 25l96 217l51 107l19 38l37 68q16 -3 44 -12zM605 99l-8 20l-2 3q-3 13 -10 21q-3 9 -14 20l-30 -1l-62 -9l-90 -13l-21 -4l-21 -3q-21 0 -37 -5l-37 -5v-9l16 -4l17 -3l132 -26q66 -12 138 -12l7 -1h6
l6 -1h6l12 3l4 11zM411 510q-19 -29 -44 -80l-35 -84l-23 -58l-26 -57h28l19 4l49 8l57 9l59 4l4 1l6 1l11 3q6 3 6 11l-31 57l-20 62l-8 25l-6 18l-8 18q-9 26 -30 58h-8zM431 751q-78 0 -110 36q-27 36 -27 100h24q3 -24 28 -49q25 -22 85 -22q57 0 86 23q24 24 27 48h24
q0 -37 -9 -66t-40 -51q-33 -19 -88 -19zM452 884l-15 -21l-151 84q-55 31 -55 55q0 14 13.5 28t24.5 15q23 0 64 -41z" />
    <glyph glyph-name="sterling" unicode="&#xa3;" horiz-adv-x="786" 
d="M415 684l41 -19l20 -11l19 -8l19 -62l19 -62l2 -8l2 -8l36 -117q18 -57 42 -114q5 -9 12 -12l17 -2h4l5 1h4h5q7 0 11 -2q6 0 10 -4l9 -6l9 -5l30 -23q14 -12 25 -32l-10 -4l-12 -1h-11l-10 2l-12 1l-12 1h-5l-4 -1q-7 3 -12 -2l-9 -9l-2 -2l10 -25l9 -25l2 -5l18 -49
q11 -23 32 -40l1 -5l1 -3q0 -8 -6 -17q-6 -6 -15 -6l-5 1l-111 17l-104 21q-108 21 -208 61h-12l-11 2h-4l-11 1h-7h-6l-2 -4l-1 -4l-9 -21l-14 -23q-14 -22 -32 -40l-6 -1h-5q-15 0 -30 6l-26 15l-12 6l-10 7l3 17l7 18l4 8l3 10l2 8l1 9v4l-1 4l-1 4l-1 4q-25 3 -45 23
q-21 18 -31 41l-1 4q12 9 30 12l35 5h12h13h18q13 0 17 2l10 24l10 25l96 217l51 107l19 38l37 68q16 -3 44 -12zM605 99l-8 20l-2 3q-3 13 -10 21q-3 9 -14 20l-30 -1l-62 -9l-90 -13l-21 -4l-21 -3q-21 0 -37 -5l-37 -5v-9l16 -4l17 -3l132 -26q66 -12 138 -12l7 -1h6
l6 -1h6l12 3l4 11zM411 510q-19 -29 -44 -80l-35 -84l-23 -58l-26 -57h28l19 4l49 8l57 9l59 4l4 1l6 1l11 3q6 3 6 11l-31 57l-20 62l-8 25l-6 18l-8 18q-9 26 -30 58h-8zM431 751q-78 0 -110 36q-27 36 -27 100h24q3 -24 28 -49q25 -22 85 -22q57 0 86 23q24 24 27 48h24
q0 -37 -9 -66t-40 -51q-33 -19 -88 -19zM525 1048l4 -24q0 -19 -7 -30q-14 -21 -39 -32q-11 -3 -21 -19l-7 -33l-37 -1l-2 17q0 25 11 42l12 16l8 10l6 11l3 7l1 9v6q-3 19 -35 19q-15 0 -28 -7l-12 -3l-8 -1q-22 0 -22 32l1 10l1 8q32 30 57 30q26 0 39 -3t29 -13
q26 -12 46 -51z" />
    <glyph glyph-name="currency" unicode="&#xa4;" horiz-adv-x="786" 
d="M415 684l41 -19l20 -11l19 -8l19 -62l19 -62l2 -8l2 -8l36 -117q18 -57 42 -114q5 -9 12 -12l17 -2h4l5 1h4h5q7 0 11 -2q6 0 10 -4l9 -6l9 -5l30 -23q14 -12 25 -32l-10 -4l-12 -1h-11l-10 2l-12 1l-12 1h-5l-4 -1q-7 3 -12 -2l-9 -9l-2 -2l10 -25l9 -25l2 -5l18 -49
q11 -23 32 -40l1 -5l1 -3q0 -8 -6 -17q-6 -6 -15 -6l-5 1l-111 17l-104 21q-108 21 -208 61h-12l-11 2h-4l-11 1h-7h-6l-2 -4l-1 -4l-9 -21l-14 -23q-14 -22 -32 -40l-6 -1h-5q-15 0 -30 6l-26 15l-12 6l-10 7l3 17l7 18l4 8l3 10l2 8l1 9v4l-1 4l-1 4l-1 4q-25 3 -45 23
q-21 18 -31 41l-1 4q12 9 30 12l35 5h12h13h18q13 0 17 2l10 24l10 25l96 217l51 107l19 38l37 68q16 -3 44 -12zM605 99l-8 20l-2 3q-3 13 -10 21q-3 9 -14 20l-30 -1l-62 -9l-90 -13l-21 -4l-21 -3q-21 0 -37 -5l-37 -5v-9l16 -4l17 -3l132 -26q66 -12 138 -12l7 -1h6
l6 -1h6l12 3l4 11zM411 510q-19 -29 -44 -80l-35 -84l-23 -58l-26 -57h28l19 4l49 8l57 9l59 4l4 1l6 1l11 3q6 3 6 11l-31 57l-20 62l-8 25l-6 18l-8 18q-9 26 -30 58h-8zM431 751q-78 0 -110 36q-27 36 -27 100h24q3 -24 28 -49q25 -22 85 -22q57 0 86 23q24 24 27 48h24
q0 -37 -9 -66t-40 -51q-33 -19 -88 -19zM568 1052l20 -11q-25 -51 -44 -69q-28 -26 -60 -26q-12 0 -27.5 3.5t-52.5 15.5q-60 19 -80 19q-23 0 -38 -10.5t-34 -40.5l-19 13q23 48 46 73q25 25 66 25q30 0 85.5 -19t70.5 -19q17 0 32 9z" />
    <glyph glyph-name="yen" unicode="&#xa5;" horiz-adv-x="786" 
d="M415 684l41 -19l20 -11l19 -8l19 -62l19 -62l2 -8l2 -8l36 -117q18 -57 42 -114q5 -9 12 -12l17 -2h4l5 1h4h5q7 0 11 -2q6 0 10 -4l9 -6l9 -5l30 -23q14 -12 25 -32l-10 -4l-12 -1h-11l-10 2l-12 1l-12 1h-5l-4 -1q-7 3 -12 -2l-9 -9l-2 -2l10 -25l9 -25l2 -5l18 -49
q11 -23 32 -40l1 -5l1 -3q0 -8 -6 -17q-6 -6 -15 -6l-5 1l-111 17l-104 21q-108 21 -208 61h-12l-11 2h-4l-11 1h-7h-6l-2 -4l-1 -4l-9 -21l-14 -23q-14 -22 -32 -40l-6 -1h-5q-15 0 -30 6l-26 15l-12 6l-10 7l3 17l7 18l4 8l3 10l2 8l1 9v4l-1 4l-1 4l-1 4q-25 3 -45 23
q-21 18 -31 41l-1 4q12 9 30 12l35 5h12h13h18q13 0 17 2l10 24l10 25l96 217l51 107l19 38l37 68q16 -3 44 -12zM605 99l-8 20l-2 3q-3 13 -10 21q-3 9 -14 20l-30 -1l-62 -9l-90 -13l-21 -4l-21 -3q-21 0 -37 -5l-37 -5v-9l16 -4l17 -3l132 -26q66 -12 138 -12l7 -1h6
l6 -1h6l12 3l4 11zM411 510q-19 -29 -44 -80l-35 -84l-23 -58l-26 -57h28l19 4l49 8l57 9l59 4l4 1l6 1l11 3q6 3 6 11l-31 57l-20 62l-8 25l-6 18l-8 18q-9 26 -30 58h-8zM513 -99q8 -16 8 -34q0 -45 -40 -66q-16 -8 -35 -8q-20 0 -35.5 9.5t-27.5 26.5q-10 18 -10 37
q0 45 40 67q16 8 34 8q45 0 66 -40zM431 751q-78 0 -110 36q-27 36 -27 100h24q3 -24 28 -49q25 -22 85 -22q57 0 86 23q24 24 27 48h24q0 -37 -9 -66t-40 -51q-33 -19 -88 -19z" />
    <glyph glyph-name="brokenbar" unicode="&#xa6;" 
d="M517 635q31 -28 71 -76q23 -37 41 -101l12 -57l4 -27l1 -27v-7v-7q0 -45 -9 -90.5t-28 -80.5q-11 -17 -36 -31q-3 -1 -16.5 -4.5t-26.5 -6.5l-8 -1h-7h-4h-4l-9 -15l-6 -17l-1 -4l-4 -12l-8 -16q-3 -8 -19 -17q-19 -14 -62 -29q-33 -9 -68 -9h-6h-5h-16h-11q-7 2 -10 2
l-26 6l-22 7q-33 10 -74 36q-63 48 -96 120t-33 154v22l4 31l3 27l8 26q18 62 59 121.5t105 94.5q11 6 23 9l26 4l5 1q18 0 38 6t35 28l13 1h14h8l9 -1q13 0 26 -4q13 -2 25 -7q45 -14 85 -49zM489 455l-8 17l-24 39q-10 19 -29 39q-28 36 -85 47q-102 -48 -144 -145
q-17 -43 -31 -100q-5 -24 -8 -52.5t-3 -56.5q9 -22 29 -40l40 -32l14 -10l14 -10q17 -9 37 -15l40 -4h5h5q19 0 31.5 2t29.5 9q31 9 54 25l5 12l1 13l-2 17l-5 17l-5 19l-2 18l1 7l1 6q12 -9 19 -26l10 -33l1 -6l7 -25l12 -22h4l9 37l6 39l2 25l1 26q0 35 -6 73.5t-18 73.5z
M513 654l16 -15l11 20l11 23q5 20 7 39l-3 23l-14 26l-13 25l-3 20q0 18 13 34q14 14 36 14q24 0 45 -24q10 -12 15 -27t5 -35q0 -43 -33 -91l-22 -34q-13 -24 -29 -36l12 -15l3 -4l-4 3l-2 4zM542 998l20 -11q-8 -18 -10.5 -23t-12.5 -18l-20 -28q-29 -26 -61 -26
q-20 0 -79 19t-80 19q-20 0 -40 -12q-9 -6 -20 -20l-12 -19l-20 13l24 42l9 14q3 7 14 16q23 26 66 26q25 0 78 -19l48 -14l29 -5q18 0 33 9q12 9 34 37z" />
    <glyph glyph-name="section" unicode="&#xa7;" 
d="M517 635q31 -28 71 -76q23 -37 41 -101l12 -57l4 -27l1 -27v-7v-7q0 -45 -9 -90.5t-28 -80.5q-11 -17 -36 -31q-3 -1 -16.5 -4.5t-26.5 -6.5l-8 -1h-7h-4h-4l-9 -15l-6 -17l-1 -4l-4 -12l-8 -16q-3 -8 -19 -17q-19 -14 -62 -29q-33 -9 -68 -9h-6h-5h-16h-11q-7 2 -10 2
l-26 6l-22 7q-33 10 -74 36q-63 48 -96 120t-33 154v22l4 31l3 27l8 26q18 62 59 121.5t105 94.5q11 6 23 9l26 4l5 1q18 0 38 6t35 28l13 1h14h8l9 -1q13 0 26 -4q13 -2 25 -7q45 -14 85 -49zM489 455l-8 17l-24 39q-10 19 -29 39q-28 36 -85 47q-102 -48 -144 -145
q-17 -43 -31 -100q-5 -24 -8 -52.5t-3 -56.5q9 -22 29 -40l40 -32l14 -10l14 -10q17 -9 37 -15l40 -4h5h5q19 0 31.5 2t29.5 9q31 9 54 25l5 12l1 13l-2 17l-5 17l-5 19l-2 18l1 7l1 6q12 -9 19 -26l10 -33l1 -6l7 -25l12 -22h4l9 37l6 39l2 25l1 26q0 35 -6 73.5t-18 73.5z
M288 889l-14 20l118 120q41 41 64 41q10 0 27 -14q12 -15 12 -29q0 -24 -55 -54zM521 650l16 -15l11 20l11 23q5 20 7 39l-3 23l-14 26l-13 25l-3 20q0 18 13 34q14 14 36 14q24 0 45 -24q10 -12 15 -27t5 -35q0 -43 -33 -91l-22 -34q-13 -24 -29 -36l12 -15l3 -4l-4 3l-2 4
z" />
    <glyph glyph-name="dieresis" unicode="&#xa8;" horiz-adv-x="587" 
d="M117 653l3 -8l4 -7l2 -4l13 -29q5 -13 5 -33v-7l1 -77l1 -36l1 -38v-50v-23l2 -27v-25v-24l-1 -47l-1 -46q17 -12 47 -16l54 -2h8h6h16l15 -1l18 3q15 0 19 2l5 1h6l42 9q21 6 34 25l-1 55v55l-1 42l-1 43v83l3 100l9 103q1 2 3.5 5t5.5 6l15 3l10 -1l10 -3l8 -5l9 -5
q10 -6 21 -13t22 -16q20 -14 30 -37q0 -44 -10 -78l-18 -74l-1 -3l-10 -38l-8 -38l1 -67l-1 -68v-35v-34l1 -80l6 -74l-1 -4l-1 -3l-2 -7l-6 -5q-19 3 -37.5 17t-33.5 33l-4 11l-1 12l-1 3l-3 19q0 5 -13 11q-21 -44 -60.5 -56.5t-83.5 -12.5l-20 -1l-18 1h-17h-16
q-34 0 -73 21q-33 21 -57 48q-12 22 -22 56l-6 28l-5 40l-2 23v23v19l1 18l3 90l1 92l-1 85l-3 83l-3 4l-2 4l-6 8l1 11l8 4l10 1q10 0 12 -2q10 0 12 -2l4 -2l4 -1l8 -3l8 -2zM285 781l-15 -20l-151 84q-56 30 -56 54q0 13 13 27.5t26 15.5q23 0 64 -41z" />
    <glyph glyph-name="copyright" unicode="&#xa9;" 
d="M517 635q31 -28 71 -76q23 -37 41 -101l12 -57l4 -27l1 -27v-7v-7q0 -45 -9 -90.5t-28 -80.5q-11 -17 -36 -31q-3 -1 -16.5 -4.5t-26.5 -6.5l-8 -1h-7h-4h-4l-9 -15l-6 -17l-1 -4l-4 -12l-8 -16q-3 -8 -19 -17q-19 -14 -62 -29q-33 -9 -68 -9h-6h-5h-16h-11q-7 2 -10 2
l-26 6l-22 7q-33 10 -74 36q-63 48 -96 120t-33 154v22l4 31l3 27l8 26q18 62 59 121.5t105 94.5q11 6 23 9l26 4l5 1q18 0 38 6t35 28l13 1h14h8l9 -1q13 0 26 -4q13 -2 25 -7q45 -14 85 -49zM489 455l-8 17l-24 39q-10 19 -29 39q-28 36 -85 47q-102 -48 -144 -145
q-17 -43 -31 -100q-5 -24 -8 -52.5t-3 -56.5q9 -22 29 -40l40 -32l14 -10l14 -10q17 -9 37 -15l40 -4h5h5q19 0 31.5 2t29.5 9q31 9 54 25l5 12l1 13l-2 17l-5 17l-5 19l-2 18l1 7l1 6q12 -9 19 -26l10 -33l1 -6l7 -25l12 -22h4l9 37l6 39l2 25l1 26q0 35 -6 73.5t-18 73.5z
M416 864l-15 -20l-151 84q-56 30 -56 54q0 12 13 26q10 13 26 17q23 0 64 -41zM482 661l31 -23l16 -15l11 20l11 23q5 20 7 39l-3 23l-14 26l-13 25l-3 20q0 18 13 34q14 14 36 14q24 0 45 -24q10 -12 15 -27t5 -35q0 -43 -33 -91l-22 -34q-13 -24 -29 -36l12 -15l3 -4l-4 3
l-2 4l16 -23z" />
    <glyph glyph-name="ordfeminine" unicode="&#xaa;" 
d="M517 635q31 -28 71 -76q23 -37 41 -101l12 -57l4 -27l1 -27v-7v-7q0 -45 -9 -90.5t-28 -80.5q-11 -17 -36 -31q-3 -1 -16.5 -4.5t-26.5 -6.5l-8 -1h-7h-4h-4l-9 -15l-6 -17l-1 -4l-4 -12l-8 -16q-3 -8 -19 -17q-19 -14 -62 -29q-33 -9 -68 -9h-6h-5h-16h-11q-7 2 -10 2
l-26 6l-22 7q-33 10 -74 36q-63 48 -96 120t-33 154v22l4 31l3 27l8 26q18 62 59 121.5t105 94.5q11 6 23 9l26 4l5 1q18 0 38 6t35 28l13 1h14h8l9 -1q13 0 26 -4q13 -2 25 -7q45 -14 85 -49zM489 455l-8 17l-24 39q-10 19 -29 39q-28 36 -85 47q-102 -48 -144 -145
q-17 -43 -31 -100q-5 -24 -8 -52.5t-3 -56.5q9 -22 29 -40l40 -32l14 -10l14 -10q17 -9 37 -15l40 -4h5h5q19 0 31.5 2t29.5 9q31 9 54 25l5 12l1 13l-2 17l-5 17l-5 19l-2 18l1 7l1 6q12 -9 19 -26l10 -33l1 -6l7 -25l12 -22h4l9 37l6 39l2 25l1 26q0 35 -6 73.5t-18 73.5z
M513 654l16 -15l11 20l11 23q5 20 7 39l-3 23l-14 26l-13 25l-3 20q0 18 13 34q14 14 36 14q24 0 45 -24q10 -12 15 -27t5 -35q0 -43 -33 -91l-22 -34q-13 -24 -29 -36l12 -15l3 -4l-4 3l-2 4zM489 992l4 -24q0 -18 -7 -29q-15 -21 -39 -33q-9 -3 -20 -18q-8 -16 -8 -33
l-37 -1l-2 16q0 28 11 42l12 16l14 20l3 8l1 9v6q-3 19 -35 19q-11 0 -28 -6l-10 -3l-10 -1q-22 0 -22 31l1 11l1 7q29 30 57 30q38 0 68 -15q30 -12 46 -52z" />
    <glyph glyph-name="guillemotleft" unicode="&#xab;" 
d="M517 635q31 -28 71 -76q23 -37 41 -101l12 -57l4 -27l1 -27v-7v-7q0 -45 -9 -90.5t-28 -80.5q-11 -17 -36 -31q-3 -1 -16.5 -4.5t-26.5 -6.5l-8 -1h-7h-4h-4l-9 -15l-6 -17l-1 -4l-4 -12l-8 -16q-3 -8 -19 -17q-19 -14 -62 -29q-33 -9 -68 -9h-6h-5h-16h-11q-7 2 -10 2
l-26 6l-22 7q-33 10 -74 36q-63 48 -96 120t-33 154v22l4 31l3 27l8 26q18 62 59 121.5t105 94.5q11 6 23 9l26 4l5 1q18 0 38 6t35 28l13 1h14h8l9 -1q13 0 26 -4q13 -2 25 -7q45 -14 85 -49zM489 455l-8 17l-24 39q-10 19 -29 39q-28 36 -85 47q-102 -48 -144 -145
q-17 -43 -31 -100q-5 -24 -8 -52.5t-3 -56.5q9 -22 29 -40l40 -32l14 -10l14 -10q17 -9 37 -15l40 -4h5h5q19 0 31.5 2t29.5 9q31 9 54 25l5 12l1 13l-2 17l-5 17l-5 19l-2 18l1 7l1 6q12 -9 19 -26l10 -33l1 -6l7 -25l12 -22h4l9 37l6 39l2 25l1 26q0 35 -6 73.5t-18 73.5z
M513 654l16 -15l11 20l11 23q5 20 7 39l-3 23l-14 26l-13 25l-3 20q0 18 13 34q14 14 36 14q24 0 45 -24q10 -12 15 -27t5 -35q0 -43 -33 -91l-22 -34q-13 -24 -29 -36l12 -15l3 -4l-4 3l-2 4zM542 998l20 -11q-8 -18 -10.5 -23t-12.5 -18l-20 -28q-29 -26 -61 -26
q-20 0 -79 19t-80 19q-20 0 -40 -12q-9 -6 -20 -20l-12 -19l-20 13l24 42l9 14q3 7 14 16q23 26 66 26q25 0 78 -19l48 -14l29 -5q18 0 33 9q12 9 34 37z" />
    <glyph glyph-name="logicalnot" unicode="&#xac;" horiz-adv-x="587" 
d="M117 653l3 -8l4 -7l2 -4l13 -29q5 -13 5 -33v-7l1 -77l1 -36l1 -38v-50v-23l2 -27v-25v-24l-1 -47l-1 -46q17 -12 47 -16l54 -2h8h6h16l15 -1l18 3q15 0 19 2l5 1h6l42 9q21 6 34 25l-1 55v55l-1 42l-1 43v83l3 100l9 103q1 2 3.5 5t5.5 6l15 3l10 -1l10 -3l8 -5l9 -5
q10 -6 21 -13t22 -16q20 -14 30 -37q0 -44 -10 -78l-18 -74l-1 -3l-10 -38l-8 -38l1 -67l-1 -68v-35v-34l1 -80l6 -74l-1 -4l-1 -3l-2 -7l-6 -5q-19 3 -37.5 17t-33.5 33l-4 11l-1 12l-1 3l-3 19q0 5 -13 11q-21 -44 -60.5 -56.5t-83.5 -12.5l-20 -1l-18 1h-17h-16
q-34 0 -73 21q-33 21 -57 48q-12 22 -22 56l-6 28l-5 40l-2 23v23v19l1 18l3 90l1 92l-1 85l-3 83l-3 4l-2 4l-6 8l1 11l8 4l10 1q10 0 12 -2q10 0 12 -2l4 -2l4 -1l8 -3l8 -2zM487 933l20 -11q-25 -51 -44 -69q-29 -26 -60 -26q-21 0 -80 19t-80 19q-24 0 -39 -12l-16 -16
l-17 -23l-19 13q23 46 46.5 72t65.5 26q29 0 82 -19l45 -14l28 -5q19 0 32 8l15 13z" />
    <glyph glyph-name="minus" unicode="&#xad;" horiz-adv-x="587" 
d="M117 653l3 -8l4 -7l2 -4l13 -29q5 -13 5 -33v-7l1 -77l1 -36l1 -38v-50v-23l2 -27v-25v-24l-1 -47l-1 -46q17 -12 47 -16l54 -2h8h6h16l15 -1l18 3q15 0 19 2l5 1h6l42 9q21 6 34 25l-1 55v55l-1 42l-1 43v83l3 100l9 103q1 2 3.5 5t5.5 6l15 3l10 -1l10 -3l8 -5l9 -5
q10 -6 21 -13t22 -16q20 -14 30 -37q0 -44 -10 -78l-18 -74l-1 -3l-10 -38l-8 -38l1 -67l-1 -68v-35v-34l1 -80l6 -74l-1 -4l-1 -3l-2 -7l-6 -5q-19 3 -37.5 17t-33.5 33l-4 11l-1 12l-1 3l-3 19q0 5 -13 11q-21 -44 -60.5 -56.5t-83.5 -12.5l-20 -1l-18 1h-17h-16
q-34 0 -73 21q-33 21 -57 48q-12 22 -22 56l-6 28l-5 40l-2 23v23v19l1 18l3 90l1 92l-1 85l-3 83l-3 4l-2 4l-6 8l1 11l8 4l10 1q10 0 12 -2q10 0 12 -2l4 -2l4 -1l8 -3l8 -2zM533 656l4 -2h7l14 3q6 3 9 15l-7 13l-7 13l-12 24l-5 21q0 18 12.5 33.5t36.5 15.5
q22 0 46 -24q19 -25 19 -62q0 -24 -8 -41q-5 -15 -27 -41l-15 -17l-24 -21h-43l-3 3zM263 857l-10 22l145 99l36 22l29 5q11 -3 21 -19.5t10 -32.5q0 -12 -13 -22l-48 -18z" />
    <glyph glyph-name="registered" unicode="&#xae;" 
d="M517 635q31 -28 71 -76q23 -37 41 -101l12 -57l4 -27l1 -27v-7v-7q0 -45 -9 -90.5t-28 -80.5q-11 -17 -36 -31q-3 -1 -16.5 -4.5t-26.5 -6.5l-8 -1h-7h-4h-4l-9 -15l-6 -17l-1 -4l-4 -12l-8 -16q-3 -8 -19 -17q-19 -14 -62 -29q-33 -9 -68 -9h-6h-5h-16h-11q-7 2 -10 2
l-26 6l-22 7q-33 10 -74 36q-63 48 -96 120t-33 154v22l4 31l3 27l8 26q18 62 59 121.5t105 94.5q11 6 23 9l26 4l5 1q18 0 38 6t35 28l13 1h14h8l9 -1q13 0 26 -4q13 -2 25 -7q45 -14 85 -49zM489 455l-8 17l-24 39q-10 19 -29 39q-28 36 -85 47q-102 -48 -144 -145
q-17 -43 -31 -100q-5 -24 -8 -52.5t-3 -56.5q9 -22 29 -40l40 -32l14 -10l14 -10q17 -9 37 -15l40 -4h5h5q19 0 31.5 2t29.5 9q31 9 54 25l5 12l1 13l-2 17l-5 17l-5 19l-2 18l1 7l1 6q12 -9 19 -26l10 -33l1 -6l7 -25l12 -22h4l9 37l6 39l2 25l1 26q0 35 -6 73.5t-18 73.5z
M513 654l16 -15l11 20l11 23q5 20 7 39l-3 23l-14 26l-13 25l-3 20q0 18 13 34q14 14 36 14q24 0 45 -24q10 -12 15 -27t5 -35q0 -43 -33 -91l-22 -34q-13 -24 -29 -36l12 -15l3 -4l-4 3l-2 4zM424 -96q6 -15 6 -30q0 -51 -48 -72q-15 -6 -30 -6q-51 0 -72 48q-6 15 -6 30
q0 51 48 72q15 6 30 6q51 0 72 -48z" />
    <glyph glyph-name="macron" unicode="&#xaf;" horiz-adv-x="587" 
d="M117 653l3 -8l4 -7l2 -4l13 -29q5 -13 5 -33v-7l1 -77l1 -36l1 -38v-50v-23l2 -27v-25v-24l-1 -47l-1 -46q17 -12 47 -16l54 -2h8h6h16l15 -1l18 3q15 0 19 2l5 1h6l42 9q21 6 34 25l-1 55v55l-1 42l-1 43v83l3 100l9 103q1 2 3.5 5t5.5 6l15 3l10 -1l10 -3l8 -5l9 -5
q10 -6 21 -13t22 -16q20 -14 30 -37q0 -44 -10 -78l-18 -74l-1 -3l-10 -38l-8 -38l1 -67l-1 -68v-35v-34l1 -80l6 -74l-1 -4l-1 -3l-2 -7l-6 -5q-19 3 -37.5 17t-33.5 33l-4 11l-1 12l-1 3l-3 19q0 5 -13 11q-21 -44 -60.5 -56.5t-83.5 -12.5l-20 -1l-18 1h-17h-16
q-34 0 -73 21q-33 21 -57 48q-12 22 -22 56l-6 28l-5 40l-2 23v23v19l1 18l3 90l1 92l-1 85l-3 83l-3 4l-2 4l-6 8l1 11l8 4l10 1q10 0 12 -2q10 0 12 -2l4 -2l4 -1l8 -3l8 -2zM533 656l4 -2h7l14 3q6 3 9 15l-7 13l-7 13l-12 24l-5 21q0 18 12.5 33.5t36.5 15.5
q22 0 46 -24q19 -25 19 -62q0 -24 -8 -41q-5 -15 -27 -41l-15 -17l-24 -21h-43l-3 3zM389 845l-15 -20l-151 84q-56 30 -56 54q0 13 13 27.5t26 15.5q23 0 64 -41z" />
    <glyph glyph-name="degree" unicode="&#xb0;" 
d="M517 635q31 -28 71 -76q23 -37 41 -101l12 -57l4 -27l1 -27v-7v-7q0 -45 -9 -90.5t-28 -80.5q-11 -17 -36 -31q-3 -1 -16.5 -4.5t-26.5 -6.5l-8 -1h-7h-4h-4l-9 -15l-6 -17l-1 -4l-4 -12l-8 -16q-3 -8 -19 -17q-19 -14 -62 -29q-33 -9 -68 -9h-6h-5h-16h-11q-7 2 -10 2
l-26 6l-22 7q-33 10 -74 36q-63 48 -96 120t-33 154v22l4 31l3 27l8 26q18 62 59 121.5t105 94.5q11 6 23 9l26 4l5 1q18 0 38 6t35 28l13 1h14h8l9 -1q13 0 26 -4q13 -2 25 -7q45 -14 85 -49zM489 455l-8 17l-24 39q-10 19 -29 39q-28 36 -85 47q-102 -48 -144 -145
q-17 -43 -31 -100q-5 -24 -8 -52.5t-3 -56.5q9 -22 29 -40l40 -32l14 -10l14 -10q17 -9 37 -15l40 -4h5h5q19 0 31.5 2t29.5 9q31 9 54 25l5 12l1 13l-2 17l-5 17l-5 19l-2 18l1 7l1 6q12 -9 19 -26l10 -33l1 -6l7 -25l12 -22h4l9 37l6 39l2 25l1 26q0 35 -6 73.5t-18 73.5z
M390 815l-56 -83h-100l105 136h94l110 -136h-100zM593 1028l3 -11l1 -13q0 -18 -7 -29q-12 -24 -39 -33q-10 -3 -19 -15l-7 -19l-2 -17l-37 -1l-2 16q0 25 11 42l12 16l8 10l6 10l3 8l1 9v6q-3 19 -35 19q-10 0 -28 -6l-12 -4h-8q-22 0 -22 31l1 11l1 7q30 30 57 30
q38 0 68 -15q27 -12 46 -52z" />
    <glyph glyph-name="plusminus" unicode="&#xb1;" horiz-adv-x="587" 
d="M117 653l3 -8l4 -7l2 -4l13 -29q5 -13 5 -33v-7l1 -77l1 -36l1 -38v-50v-23l2 -27v-25v-24l-1 -47l-1 -46q17 -12 47 -16l54 -2h8h6h16l15 -1l18 3q15 0 19 2l5 1h6l42 9q21 6 34 25l-1 55v55l-1 42l-1 43v83l3 100l9 103q1 2 3.5 5t5.5 6l15 3l10 -1l10 -3l8 -5l9 -5
q10 -6 21 -13t22 -16q20 -14 30 -37q0 -44 -10 -78l-18 -74l-1 -3l-10 -38l-8 -38l1 -67l-1 -68v-35v-34l1 -80l6 -74l-1 -4l-1 -3l-2 -7l-6 -5q-19 3 -37.5 17t-33.5 33l-4 11l-1 12l-1 3l-3 19q0 5 -13 11q-21 -44 -60.5 -56.5t-83.5 -12.5l-20 -1l-18 1h-17h-16
q-34 0 -73 21q-33 21 -57 48q-12 22 -22 56l-6 28l-5 40l-2 23v23v19l1 18l3 90l1 92l-1 85l-3 83l-3 4l-2 4l-6 8l1 11l8 4l10 1q10 0 12 -2q10 0 12 -2l4 -2l4 -1l8 -3l8 -2zM533 656l4 -2h7l14 3q6 3 9 15l-7 13l-7 13l-12 24l-5 21q0 18 12.5 33.5t36.5 15.5
q22 0 46 -24q19 -25 19 -62q0 -24 -8 -41q-5 -15 -27 -41l-15 -17l-24 -21h-43l-3 3zM375 921l2 -10l1 -14q0 -18 -7 -29q-15 -24 -38 -33q-14 -3 -21 -19q-8 -14 -8 -32l-37 -1l-2 16q0 25 11 42l12 16l14 20l4 17v6q-3 19 -35 19q-10 0 -28 -6l-12 -3l-8 -1q-22 0 -22 31
l1 11l1 7q30 30 57 30q39 0 68 -15q25 -12 47 -52z" />
    <glyph glyph-name="twosuperior" unicode="&#xb2;" horiz-adv-x="734" 
d="M626 696h6h5h14l20 -4q15 -3 30 -15v-5v-4q0 -79 -43 -145t-107 -113l-6 -14l-6 -15q-31 -68 -67.5 -134.5t-88.5 -121.5l3 -13l9 -2l29 3h11l19 2h27l37 5q8 0 20 4t23 11v-15l-15 -19l-16 -21l-39 -41q-15 -14 -44 -29l-90 -7l-91 -3l-49 1l-21 1l-26 4l-8 2l-7 3
q-15 5 -25.5 14.5t-10.5 26.5q2 15 5 18l5 20l8 29l7 30q9 0 13 -5l5 -11l5 -12l9 -7l12 -3l13 -4l10 -3q7 0 11 -2l8 -2h8q10 0 14 2l14 8l9 16l9 17l7 12l7 13l21 39l17 42l-9 2l-9 1l-10 -1l-9 -1l-10 -2h-10h-5l-4 1l-10 3l-8 5q-36 47 -57 89l-46 95l-3 6l-3 8l-38 79
q-18 40 -43 76l-4 1l-7 -1h-4l-5 -2h-4l-5 1l9 23l15 26l7 11l6 11l15 8l17 3l4 -1h5q9 0 20 -4l19 -6q32 -36 53.5 -82t40.5 -96l16 -45l19 -43l15 -19l14 -20l25 -35q9 -11 29 -26q18 3 25.5 17t11.5 29l1 3l1 4l3 9l3 9l18 39l18 42l4 10l4 11l28 61q5 11 13.5 26.5
t20.5 33.5q36 57 109 88h4zM630 560l-18 -36l-16 -32l-18 -26l3 -3l6 4l6 5q23 23 42.5 54.5t19.5 64.5q-15 -12 -25 -31zM421 777l-15 -20l-151 84q-56 30 -56 54q0 13 13 27.5t26 15.5q23 0 64 -41z" />
    <glyph glyph-name="threesuperior" unicode="&#xb3;" horiz-adv-x="734" 
d="M626 696h6h5h14l20 -4q15 -3 30 -15v-5v-4q0 -79 -43 -145t-107 -113l-6 -14l-6 -15q-31 -68 -67.5 -134.5t-88.5 -121.5l3 -13l9 -2l29 3h11l19 2h27l37 5q8 0 20 4t23 11v-15l-15 -19l-16 -21l-39 -41q-15 -14 -44 -29l-90 -7l-91 -3l-49 1l-21 1l-26 4l-8 2l-7 3
q-15 5 -25.5 14.5t-10.5 26.5q2 15 5 18l5 20l8 29l7 30q9 0 13 -5l5 -11l5 -12l9 -7l12 -3l13 -4l10 -3q7 0 11 -2l8 -2h8q10 0 14 2l14 8l9 16l9 17l7 12l7 13l21 39l17 42l-9 2l-9 1l-10 -1l-9 -1l-10 -2h-10h-5l-4 1l-10 3l-8 5q-36 47 -57 89l-46 95l-3 6l-3 8l-38 79
q-18 40 -43 76l-4 1l-7 -1h-4l-5 -2h-4l-5 1l9 23l15 26l7 11l6 11l15 8l17 3l4 -1h5q9 0 20 -4l19 -6q32 -36 53.5 -82t40.5 -96l16 -45l19 -43l15 -19l14 -20l25 -35q9 -11 29 -26q18 3 25.5 17t11.5 29l1 3l1 4l3 9l3 9l18 39l18 42l4 10l4 11l28 61q5 11 13.5 26.5
t20.5 33.5q36 57 109 88h4zM630 560l-18 -36l-16 -32l-18 -26l3 -3l6 4l6 5q23 23 42.5 54.5t19.5 64.5q-15 -12 -25 -31zM507 937l20 -11q-25 -51 -44 -69q-29 -26 -60 -26q-21 0 -80 19t-80 19q-24 0 -39 -12l-16 -16l-17 -23l-19 13q23 46 46.5 72t65.5 26q29 0 82 -19
l45 -14l28 -5q19 0 32 8l15 13z" />
    <glyph glyph-name="acute" unicode="&#xb4;" horiz-adv-x="193" 
d="M60 690l14 -6l2 -2l3 -1l38 -21q14 -7 26 -33l8 -109l5 -111l1 -45l1 -47l1 -45l1 -46l3 -2l3 -2l6 -3l6 -1l6 1q0 -16 -4 -29l-8 -28l-4 -10l-3 -10l-4 -18l-2 -19l1 -17l6 -16l-2 -13v-15q0 -16 -3.5 -29t-25.5 -13q-31 0 -68.5 15t-57.5 44q10 28 19 71l4 33l1 41
l-1 38v14v11l-2 13l-1 55l-1 56l-3 109l-1 40v23q-3 17 -4 25l-3 54l-5 34q0 9 7 12l15 5l7 1l7 2zM156 803l-15 20l119 120q39 41 64 41q11 0 25 -13t14 -30q0 -22 -56 -54z" />
    <glyph glyph-name="mu" unicode="&#xb5;" horiz-adv-x="193" 
d="M60 690l14 -6l2 -2l3 -1l38 -21q14 -7 26 -33l8 -109l5 -111l1 -45l1 -47l1 -45l1 -46l3 -2l3 -2l6 -3l6 -1l6 1q0 -16 -4 -29l-8 -28l-4 -10l-3 -10l-4 -18l-2 -19l1 -17l6 -16l-2 -13v-15q0 -16 -3.5 -29t-25.5 -13q-31 0 -68.5 15t-57.5 44q10 28 19 71l4 33l1 41
l-1 38v14v11l-2 13l-1 55l-1 56l-3 109l-1 40v23q-3 17 -4 25l-3 54l-5 34q0 9 7 12l15 5l7 1l7 2zM57 817l-15 -20l-151 84q-56 30 -56 54q0 13 14 28q12 15 25 15q23 0 64 -41z" />
    <glyph glyph-name="paragraph" unicode="&#xb6;" 
d="M517 635q31 -28 71 -76q23 -37 41 -101l12 -57l4 -27l1 -27v-7v-7q0 -45 -9 -90.5t-28 -80.5q-11 -17 -36 -31q-3 -1 -16.5 -4.5t-26.5 -6.5l-8 -1h-7h-4h-4l-9 -15l-6 -17l-1 -4l-4 -12l-8 -16q-3 -8 -19 -17q-19 -14 -62 -29q-33 -9 -68 -9h-6h-5h-16h-11q-7 2 -10 2
l-26 6l-22 7q-33 10 -74 36q-63 48 -96 120t-33 154v22l4 31l3 27l8 26q18 62 59 121.5t105 94.5q11 6 23 9l26 4l5 1q18 0 38 6t35 28l13 1h14h8l9 -1q13 0 26 -4q13 -2 25 -7q45 -14 85 -49zM489 455l-8 17l-24 39q-10 19 -29 39q-28 36 -85 47q-102 -48 -144 -145
q-17 -43 -31 -100q-5 -24 -8 -52.5t-3 -56.5q9 -22 29 -40l40 -32l14 -10l14 -10q17 -9 37 -15l40 -4h5h5q19 0 31.5 2t29.5 9q31 9 54 25l5 12l1 13l-2 17l-5 17l-5 19l-2 18l1 7l1 6q12 -9 19 -26l10 -33l1 -6l7 -25l12 -22h4l9 37l6 39l2 25l1 26q0 35 -6 73.5t-18 73.5z
M363 834l-55 -83h-101l106 137h94l109 -137h-99zM440 -112q6 -15 6 -30q0 -54 -52 -76q-15 -6 -30 -6q-54 0 -76 52q-6 15 -6 30q0 54 52 76q15 6 30 6q54 0 76 -52z" />
    <glyph glyph-name="cedilla" unicode="&#xb8;" horiz-adv-x="193" 
d="M60 690l14 -6l2 -2l3 -1l38 -21q14 -7 26 -33l8 -109l5 -111l1 -45l1 -47l1 -45l1 -46l3 -2l3 -2l6 -3l6 -1l6 1q0 -16 -4 -29l-8 -28l-4 -10l-3 -10l-4 -18l-2 -19l1 -17l6 -16l-2 -13v-15q0 -16 -3.5 -29t-25.5 -13q-31 0 -68.5 15t-57.5 44q10 28 19 71l4 33l1 41
l-1 38v14v11l-2 13l-1 55l-1 56l-3 109l-1 40v23q-3 17 -4 25l-3 54l-5 34q0 9 7 12l15 5l7 1l7 2zM254 965l20 -10q-25 -52 -44 -69q-29 -27 -60 -27l-27 4l-50 15q-63 19 -83 19q-25 0 -39 -10q-17 -14 -33 -40l-19 12q23 45 46 73q24 26 66 26q16 0 32 -4t50 -16
q51 -16 73 -19q19 0 30.5 8.5t37.5 37.5z" />
    <glyph glyph-name="onesuperior" unicode="&#xb9;" 
d="M517 635q31 -28 71 -76q23 -37 41 -101l12 -57l4 -27l1 -27v-7v-7q0 -45 -9 -90.5t-28 -80.5q-11 -17 -36 -31q-3 -1 -16.5 -4.5t-26.5 -6.5l-8 -1h-7h-4h-4l-9 -15l-6 -17l-1 -4l-4 -12l-8 -16q-3 -8 -19 -17q-19 -14 -62 -29q-33 -9 -68 -9h-6h-5h-16h-11q-7 2 -10 2
l-26 6l-22 7q-33 10 -74 36q-63 48 -96 120t-33 154v22l4 31l3 27l8 26q18 62 59 121.5t105 94.5q11 6 23 9l26 4l5 1q18 0 38 6t35 28l13 1h14h8l9 -1q13 0 26 -4q13 -2 25 -7q45 -14 85 -49zM489 455l-8 17l-24 39q-10 19 -29 39q-28 36 -85 47q-102 -48 -144 -145
q-17 -43 -31 -100q-5 -24 -8 -52.5t-3 -56.5q9 -22 29 -40l40 -32l14 -10l14 -10q17 -9 37 -15l40 -4h5h5q19 0 31.5 2t29.5 9q31 9 54 25l5 12l1 13l-2 17l-5 17l-5 19l-2 18l1 7l1 6q12 -9 19 -26l10 -33l1 -6l7 -25l12 -22h4l9 37l6 39l2 25l1 26q0 35 -6 73.5t-18 73.5z
M335 757l-10 22l145 99l36 22l29 5q11 -3 21 -19.5t10 -32.5q0 -12 -13 -22l-48 -18z" />
    <glyph glyph-name="ordmasculine" unicode="&#xba;" horiz-adv-x="587" 
d="M117 653l3 -8l4 -7l2 -4l13 -29q5 -13 5 -33v-7l1 -77l1 -36l1 -38v-50v-23l2 -27v-25v-24l-1 -47l-1 -46q17 -12 47 -16l54 -2h8h6h16l15 -1l18 3q15 0 19 2l5 1h6l42 9q21 6 34 25l-1 55v55l-1 42l-1 43v83l3 100l9 103q1 2 3.5 5t5.5 6l15 3l10 -1l10 -3l8 -5l9 -5
q10 -6 21 -13t22 -16q20 -14 30 -37q0 -44 -10 -78l-18 -74l-1 -3l-10 -38l-8 -38l1 -67l-1 -68v-35v-34l1 -80l6 -74l-1 -4l-1 -3l-2 -7l-6 -5q-19 3 -37.5 17t-33.5 33l-4 11l-1 12l-1 3l-3 19q0 5 -13 11q-21 -44 -60.5 -56.5t-83.5 -12.5l-20 -1l-18 1h-17h-16
q-34 0 -73 21q-33 21 -57 48q-12 22 -22 56l-6 28l-5 40l-2 23v23v19l1 18l3 90l1 92l-1 85l-3 83l-3 4l-2 4l-6 8l1 11l8 4l10 1q10 0 12 -2q10 0 12 -2l4 -2l4 -1l8 -3l8 -2zM533 656l4 -2h7l14 3q6 3 9 15l-7 13l-7 13l-12 24l-5 21q0 18 12.5 33.5t36.5 15.5
q22 0 46 -24q19 -25 19 -62q0 -24 -8 -41q-5 -15 -27 -41l-15 -17l-24 -21h-43l-3 3zM375 921l2 -10l1 -14q0 -18 -7 -29q-15 -24 -38 -33q-14 -3 -21 -19q-8 -14 -8 -32l-37 -1l-2 16q0 25 11 42l12 16l14 20l4 17v6q-3 19 -35 19q-10 0 -28 -6l-12 -3l-8 -1q-22 0 -22 31
l1 11l1 7q30 30 57 30q39 0 68 -15q25 -12 47 -52z" />
    <glyph glyph-name="guillemotright" unicode="&#xbb;" horiz-adv-x="587" 
d="M117 653l3 -8l4 -7l2 -4l13 -29q5 -13 5 -33v-7l1 -77l1 -36l1 -38v-50v-23l2 -27v-25v-24l-1 -47l-1 -46q17 -12 47 -16l54 -2h8h6h16l15 -1l18 3q15 0 19 2l5 1h6l42 9q21 6 34 25l-1 55v55l-1 42l-1 43v83l3 100l9 103q1 2 3.5 5t5.5 6l15 3l10 -1l10 -3l8 -5l9 -5
q10 -6 21 -13t22 -16q20 -14 30 -37q0 -44 -10 -78l-18 -74l-1 -3l-10 -38l-8 -38l1 -67l-1 -68v-35v-34l1 -80l6 -74l-1 -4l-1 -3l-2 -7l-6 -5q-19 3 -37.5 17t-33.5 33l-4 11l-1 12l-1 3l-3 19q0 5 -13 11q-21 -44 -60.5 -56.5t-83.5 -12.5l-20 -1l-18 1h-17h-16
q-34 0 -73 21q-33 21 -57 48q-12 22 -22 56l-6 28l-5 40l-2 23v23v19l1 18l3 90l1 92l-1 85l-3 83l-3 4l-2 4l-6 8l1 11l8 4l10 1q10 0 12 -2q10 0 12 -2l4 -2l4 -1l8 -3l8 -2zM533 656l4 -2h7l14 3q6 3 9 15l-7 13l-7 13l-12 24l-5 21q0 18 12.5 33.5t36.5 15.5
q22 0 46 -24q19 -25 19 -62q0 -24 -8 -41q-5 -15 -27 -41l-15 -17l-24 -21h-43l-3 3zM451 917l20 -11l-22 -41q-9 -15 -22 -28q-28 -25 -60 -25l-29 4l-22 4l-26 10q-63 19 -83 19t-40 -12q-7 -5 -32 -39l-19 14q21 45 47 71q23 26 65 26q29 0 79 -19q60 -18 76 -18
q19 0 32.5 9t35.5 36z" />
    <glyph glyph-name="onequarter" unicode="&#xbc;" 
d="M517 635q31 -28 71 -76q23 -37 41 -101l12 -57l4 -27l1 -27v-7v-7q0 -45 -9 -90.5t-28 -80.5q-11 -17 -36 -31q-3 -1 -16.5 -4.5t-26.5 -6.5l-8 -1h-7h-4h-4l-9 -15l-6 -17l-1 -4l-4 -12l-8 -16q-3 -8 -19 -17q-19 -14 -62 -29q-33 -9 -68 -9h-6h-5h-16h-11q-7 2 -10 2
l-26 6l-22 7q-33 10 -74 36q-63 48 -96 120t-33 154v22l4 31l3 27l8 26q18 62 59 121.5t105 94.5q11 6 23 9l26 4l5 1q18 0 38 6t35 28l13 1h14h8l9 -1q13 0 26 -4q13 -2 25 -7q45 -14 85 -49zM489 455l-8 17l-24 39q-10 19 -29 39q-28 36 -85 47q-102 -48 -144 -145
q-17 -43 -31 -100q-5 -24 -8 -52.5t-3 -56.5q9 -22 29 -40l40 -32l14 -10l14 -10q17 -9 37 -15l40 -4h5h5q19 0 31.5 2t29.5 9q31 9 54 25l5 12l1 13l-2 17l-5 17l-5 19l-2 18l1 7l1 6q12 -9 19 -26l10 -33l1 -6l7 -25l12 -22h4l9 37l6 39l2 25l1 26q0 35 -6 73.5t-18 73.5z
M417 811l-15 -20l-151 84q-55 31 -55 54q0 14 12 27t26 16q23 0 64 -41z" />
    <glyph glyph-name="onehalf" unicode="&#xbd;" 
d="M517 635q31 -28 71 -76q23 -37 41 -101l12 -57l4 -27l1 -27v-7v-7q0 -45 -9 -90.5t-28 -80.5q-11 -17 -36 -31q-3 -1 -16.5 -4.5t-26.5 -6.5l-8 -1h-7h-4h-4l-9 -15l-6 -17l-1 -4l-4 -12l-8 -16q-3 -8 -19 -17q-19 -14 -62 -29q-33 -9 -68 -9h-6h-5h-16h-11q-7 2 -10 2
l-26 6l-22 7q-33 10 -74 36q-63 48 -96 120t-33 154v22l4 31l3 27l8 26q18 62 59 121.5t105 94.5q11 6 23 9l26 4l5 1q18 0 38 6t35 28l13 1h14h8l9 -1q13 0 26 -4q13 -2 25 -7q45 -14 85 -49zM489 455l-8 17l-24 39q-10 19 -29 39q-28 36 -85 47q-102 -48 -144 -145
q-17 -43 -31 -100q-5 -24 -8 -52.5t-3 -56.5q9 -22 29 -40l40 -32l14 -10l14 -10q17 -9 37 -15l40 -4h5h5q19 0 31.5 2t29.5 9q31 9 54 25l5 12l1 13l-2 17l-5 17l-5 19l-2 18l1 7l1 6q12 -9 19 -26l10 -33l1 -6l7 -25l12 -22h4l9 37l6 39l2 25l1 26q0 35 -6 73.5t-18 73.5z
M489 946l4 -24q0 -16 -8 -29q-12 -24 -38 -33q-12 -3 -20.5 -18.5t-8.5 -32.5l-37 -1l-2 16q0 24 12 42l11 16l9 12l6 8l3 17v6q-3 19 -34 19q-11 0 -29 -6l-12 -3l-8 -1q-22 0 -22 31l1 11l1 7q30 30 58 30q38 0 67 -15q26 -12 47 -52z" />
    <glyph glyph-name="threequarters" unicode="&#xbe;" 
d="M517 635q31 -28 71 -76q23 -37 41 -101l12 -57l4 -27l1 -27v-7v-7q0 -45 -9 -90.5t-28 -80.5q-11 -17 -36 -31q-3 -1 -16.5 -4.5t-26.5 -6.5l-8 -1h-7h-4h-4l-9 -15l-6 -17l-1 -4l-4 -12l-8 -16q-3 -8 -19 -17q-19 -14 -62 -29q-33 -9 -68 -9h-6h-5h-16h-11q-7 2 -10 2
l-26 6l-22 7q-33 10 -74 36q-63 48 -96 120t-33 154v22l4 31l3 27l8 26q18 62 59 121.5t105 94.5q11 6 23 9l26 4l5 1q18 0 38 6t35 28l13 1h14h8l9 -1q13 0 26 -4q13 -2 25 -7q45 -14 85 -49zM489 455l-8 17l-24 39q-10 19 -29 39q-28 36 -85 47q-102 -48 -144 -145
q-17 -43 -31 -100q-5 -24 -8 -52.5t-3 -56.5q9 -22 29 -40l40 -32l14 -10l14 -10q17 -9 37 -15l40 -4h5h5q19 0 31.5 2t29.5 9q31 9 54 25l5 12l1 13l-2 17l-5 17l-5 19l-2 18l1 7l1 6q12 -9 19 -26l10 -33l1 -6l7 -25l12 -22h4l9 37l6 39l2 25l1 26q0 35 -6 73.5t-18 73.5z
M558 896l20 -11q-24 -50 -46.5 -72.5t-57.5 -22.5l-29 4l-51 15l-49 14l-32 5q-21 0 -39 -12q-10 -7 -32 -39l-19 13l21 40q9 15 25 31q24 27 65 27q16 0 32 -5l21 -5q6 0 27 -9q58 -17 76 -19q19 0 32 8l15 13z" />
    <glyph glyph-name="questiondown" unicode="&#xbf;" horiz-adv-x="587" 
d="M117 653l3 -8l4 -7l2 -4l13 -29q5 -13 5 -33v-7l1 -77l1 -36l1 -38v-50v-23l2 -27v-25v-24l-1 -47l-1 -46q17 -12 47 -16l54 -2h8h6h16l15 -1l18 3q15 0 19 2l5 1h6l42 9q21 6 34 25l-1 55v55l-1 42l-1 43v83l3 100l9 103q1 2 3.5 5t5.5 6l15 3l10 -1l10 -3l8 -5l9 -5
q10 -6 21 -13t22 -16q20 -14 30 -37q0 -44 -10 -78l-18 -74l-1 -3l-10 -38l-8 -38l1 -67l-1 -68v-35v-34l1 -80l6 -74l-1 -4l-1 -3l-2 -7l-6 -5q-19 3 -37.5 17t-33.5 33l-4 11l-1 12l-1 3l-3 19q0 5 -13 11q-21 -44 -60.5 -56.5t-83.5 -12.5l-20 -1l-18 1h-17h-16
q-34 0 -73 21q-33 21 -57 48q-12 22 -22 56l-6 28l-5 40l-2 23v23v19l1 18l3 90l1 92l-1 85l-3 83l-3 4l-2 4l-6 8l1 11l8 4l10 1q10 0 12 -2q10 0 12 -2l4 -2l4 -1l8 -3l8 -2zM533 656l4 -2h7l14 3q6 3 9 15l-7 13l-7 13l-12 24l-5 21q0 18 12.5 33.5t36.5 15.5
q22 0 46 -24q19 -25 19 -62q0 -24 -8 -41q-5 -15 -27 -41l-15 -17l-24 -21h-43l-3 3zM324 -120l4 -25q0 -21 -11 -38.5t-37 -28.5l-25 -4q-20 0 -39 11t-28 37l-4 25q0 22 11.5 40t36.5 27l25 4q22 0 39.5 -11.5t27.5 -36.5z" />
    <glyph glyph-name="Agrave" unicode="&#xc0;" horiz-adv-x="786" 
d="M415 684l41 -19l20 -11l19 -8l19 -62l19 -62l2 -8l2 -8l36 -117q18 -57 42 -114q5 -9 12 -12l17 -2h4l5 1h4h5q7 0 11 -2q6 0 10 -4l9 -6l9 -5l30 -23q14 -12 25 -32l-10 -4l-12 -1h-11l-10 2l-12 1l-12 1h-5l-4 -1q-7 3 -12 -2l-9 -9l-2 -2l10 -25l9 -25l2 -5l18 -49
q11 -23 32 -40l1 -5l1 -3q0 -8 -6 -17q-6 -6 -15 -6l-5 1l-111 17l-104 21q-108 21 -208 61h-12l-11 2h-4l-11 1h-7h-6l-2 -4l-1 -4l-9 -21l-14 -23q-14 -22 -32 -40l-6 -1h-5q-15 0 -30 6l-26 15l-12 6l-10 7l3 17l7 18l4 8l3 10l2 8l1 9v4l-1 4l-1 4l-1 4q-25 3 -45 23
q-21 18 -31 41l-1 4q12 9 30 12l35 5h12h13h18q13 0 17 2l10 24l10 25l96 217l51 107l19 38l37 68q16 -3 44 -12zM605 99l-8 20l-2 3q-3 13 -10 21q-3 9 -14 20l-30 -1l-62 -9l-90 -13l-21 -4l-21 -3q-21 0 -37 -5l-37 -5v-9l16 -4l17 -3l132 -26q66 -12 138 -12l7 -1h6
l6 -1h6l12 3l4 11zM411 510q-19 -29 -44 -80l-35 -84l-23 -58l-26 -57h28l19 4l49 8l57 9l59 4l4 1l6 1l11 3q6 3 6 11l-31 57l-20 62l-8 25l-6 18l-8 18q-9 26 -30 58h-8zM432 822l-56 -83h-100l105 136h94l110 -136h-100zM336 876l-15 -21l-151 84q-55 31 -55 55
q0 14 13.5 28t24.5 15q23 0 64 -41z" />
    <glyph glyph-name="Aacute" unicode="&#xc1;" horiz-adv-x="786" 
d="M415 684l41 -19l20 -11l19 -8l19 -62l19 -62l2 -8l2 -8l36 -117q18 -57 42 -114q5 -9 12 -12l17 -2h4l5 1h4h5q7 0 11 -2q6 0 10 -4l9 -6l9 -5l30 -23q14 -12 25 -32l-10 -4l-12 -1h-11l-10 2l-12 1l-12 1h-5l-4 -1q-7 3 -12 -2l-9 -9l-2 -2l10 -25l9 -25l2 -5l18 -49
q11 -23 32 -40l1 -5l1 -3q0 -8 -6 -17q-6 -6 -15 -6l-5 1l-111 17l-104 21q-108 21 -208 61h-12l-11 2h-4l-11 1h-7h-6l-2 -4l-1 -4l-9 -21l-14 -23q-14 -22 -32 -40l-6 -1h-5q-15 0 -30 6l-26 15l-12 6l-10 7l3 17l7 18l4 8l3 10l2 8l1 9v4l-1 4l-1 4l-1 4q-25 3 -45 23
q-21 18 -31 41l-1 4q12 9 30 12l35 5h12h13h18q13 0 17 2l10 24l10 25l96 217l51 107l19 38l37 68q16 -3 44 -12zM605 99l-8 20l-2 3q-3 13 -10 21q-3 9 -14 20l-30 -1l-62 -9l-90 -13l-21 -4l-21 -3q-21 0 -37 -5l-37 -5v-9l16 -4l17 -3l132 -26q66 -12 138 -12l7 -1h6
l6 -1h6l12 3l4 11zM411 510q-19 -29 -44 -80l-35 -84l-23 -58l-26 -57h28l19 4l49 8l57 9l59 4l4 1l6 1l11 3q6 3 6 11l-31 57l-20 62l-8 25l-6 18l-8 18q-9 26 -30 58h-8zM502 796l65 136h116l-108 -136h-73z" />
    <glyph glyph-name="Acircumflex" unicode="&#xc2;" horiz-adv-x="786" 
d="M415 684l41 -19l20 -11l19 -8l19 -62l19 -62l2 -8l2 -8l36 -117q18 -57 42 -114q5 -9 12 -12l17 -2h4l5 1h4h5q7 0 11 -2q6 0 10 -4l9 -6l9 -5l30 -23q14 -12 25 -32l-10 -4l-12 -1h-11l-10 2l-12 1l-12 1h-5l-4 -1q-7 3 -12 -2l-9 -9l-2 -2l10 -25l9 -25l2 -5l18 -49
q11 -23 32 -40l1 -5l1 -3q0 -8 -6 -17q-6 -6 -15 -6l-5 1l-111 17l-104 21q-108 21 -208 61h-12l-11 2h-4l-11 1h-7h-6l-2 -4l-1 -4l-9 -21l-14 -23q-14 -22 -32 -40l-6 -1h-5q-15 0 -30 6l-26 15l-12 6l-10 7l3 17l7 18l4 8l3 10l2 8l1 9v4l-1 4l-1 4l-1 4q-25 3 -45 23
q-21 18 -31 41l-1 4q12 9 30 12l35 5h12h13h18q13 0 17 2l10 24l10 25l96 217l51 107l19 38l37 68q16 -3 44 -12zM605 99l-8 20l-2 3q-3 13 -10 21q-3 9 -14 20l-30 -1l-62 -9l-90 -13l-21 -4l-21 -3q-21 0 -37 -5l-37 -5v-9l16 -4l17 -3l132 -26q66 -12 138 -12l7 -1h6
l6 -1h6l12 3l4 11zM411 510q-19 -29 -44 -80l-35 -84l-23 -58l-26 -57h28l19 4l49 8l57 9l59 4l4 1l6 1l11 3q6 3 6 11l-31 57l-20 62l-8 25l-6 18l-8 18q-9 26 -30 58h-8zM432 822l-56 -83h-100l105 136h94l110 -136h-100z" />
    <glyph glyph-name="Atilde" unicode="&#xc3;" horiz-adv-x="786" 
d="M415 684l41 -19l20 -11l19 -8l19 -62l19 -62l2 -8l2 -8l36 -117q18 -57 42 -114q5 -9 12 -12l17 -2h4l5 1h4h5q7 0 11 -2q6 0 10 -4l9 -6l9 -5l30 -23q14 -12 25 -32l-10 -4l-12 -1h-11l-10 2l-12 1l-12 1h-5l-4 -1q-7 3 -12 -2l-9 -9l-2 -2l10 -25l9 -25l2 -5l18 -49
q11 -23 32 -40l1 -5l1 -3q0 -8 -6 -17q-6 -6 -15 -6l-5 1l-111 17l-104 21q-108 21 -208 61h-12l-11 2h-4l-11 1h-7h-6l-2 -4l-1 -4l-9 -21l-14 -23q-14 -22 -32 -40l-6 -1h-5q-15 0 -30 6l-26 15l-12 6l-10 7l3 17l7 18l4 8l3 10l2 8l1 9v4l-1 4l-1 4l-1 4q-25 3 -45 23
q-21 18 -31 41l-1 4q12 9 30 12l35 5h12h13h18q13 0 17 2l10 24l10 25l96 217l51 107l19 38l37 68q16 -3 44 -12zM605 99l-8 20l-2 3q-3 13 -10 21q-3 9 -14 20l-30 -1l-62 -9l-90 -13l-21 -4l-21 -3q-21 0 -37 -5l-37 -5v-9l16 -4l17 -3l132 -26q66 -12 138 -12l7 -1h6
l6 -1h6l12 3l4 11zM411 510q-19 -29 -44 -80l-35 -84l-23 -58l-26 -57h28l19 4l49 8l57 9l59 4l4 1l6 1l11 3q6 3 6 11l-31 57l-20 62l-8 25l-6 18l-8 18q-9 26 -30 58h-8zM432 822l-56 -83h-100l105 136h94l110 -136h-100zM534 888l65 136h116l-108 -136h-73z" />
    <glyph glyph-name="Adieresis" unicode="&#xc4;" horiz-adv-x="786" 
d="M415 684l41 -19l20 -11l19 -8l19 -62l19 -62l2 -8l2 -8l36 -117q18 -57 42 -114q5 -9 12 -12l17 -2h4l5 1h4h5q7 0 11 -2q6 0 10 -4l9 -6l9 -5l30 -23q14 -12 25 -32l-10 -4l-12 -1h-11l-10 2l-12 1l-12 1h-5l-4 -1q-7 3 -12 -2l-9 -9l-2 -2l10 -25l9 -25l2 -5l18 -49
q11 -23 32 -40l1 -5l1 -3q0 -8 -6 -17q-6 -6 -15 -6l-5 1l-111 17l-104 21q-108 21 -208 61h-12l-11 2h-4l-11 1h-7h-6l-2 -4l-1 -4l-9 -21l-14 -23q-14 -22 -32 -40l-6 -1h-5q-15 0 -30 6l-26 15l-12 6l-10 7l3 17l7 18l4 8l3 10l2 8l1 9v4l-1 4l-1 4l-1 4q-25 3 -45 23
q-21 18 -31 41l-1 4q12 9 30 12l35 5h12h13h18q13 0 17 2l10 24l10 25l96 217l51 107l19 38l37 68q16 -3 44 -12zM605 99l-8 20l-2 3q-3 13 -10 21q-3 9 -14 20l-30 -1l-62 -9l-90 -13l-21 -4l-21 -3q-21 0 -37 -5l-37 -5v-9l16 -4l17 -3l132 -26q66 -12 138 -12l7 -1h6
l6 -1h6l12 3l4 11zM411 510q-19 -29 -44 -80l-35 -84l-23 -58l-26 -57h28l19 4l49 8l57 9l59 4l4 1l6 1l11 3q6 3 6 11l-31 57l-20 62l-8 25l-6 18l-8 18q-9 26 -30 58h-8zM432 822l-56 -83h-100l105 136h94l110 -136h-100zM681 996l4 -24q0 -19 -7 -30q-14 -21 -39 -32
q-11 -3 -21 -19l-7 -33l-37 -1l-2 17q0 25 11 42l12 16l8 10l6 11l3 7l1 9v6q-3 19 -35 19q-15 0 -28 -7l-12 -3l-8 -1q-22 0 -22 32l1 10l1 8q32 30 57 30q42 0 68 -16q26 -12 46 -51z" />
    <glyph glyph-name="Aring" unicode="&#xc5;" horiz-adv-x="786" 
d="M415 684l41 -19l20 -11l19 -8l19 -62l19 -62l2 -8l2 -8l36 -117q18 -57 42 -114q5 -9 12 -12l17 -2h4l5 1h4h5q7 0 11 -2q6 0 10 -4l9 -6l9 -5l30 -23q14 -12 25 -32l-10 -4l-12 -1h-11l-10 2l-12 1l-12 1h-5l-4 -1q-7 3 -12 -2l-9 -9l-2 -2l10 -25l9 -25l2 -5l18 -49
q11 -23 32 -40l1 -5l1 -3q0 -8 -6 -17q-6 -6 -15 -6l-5 1l-111 17l-104 21q-108 21 -208 61h-12l-11 2h-4l-11 1h-7h-6l-2 -4l-1 -4l-9 -21l-14 -23q-14 -22 -32 -40l-6 -1h-5q-15 0 -30 6l-26 15l-12 6l-10 7l3 17l7 18l4 8l3 10l2 8l1 9v4l-1 4l-1 4l-1 4q-25 3 -45 23
q-21 18 -31 41l-1 4q12 9 30 12l35 5h12h13h18q13 0 17 2l10 24l10 25l96 217l51 107l19 38l37 68q16 -3 44 -12zM605 99l-8 20l-2 3q-3 13 -10 21q-3 9 -14 20l-30 -1l-62 -9l-90 -13l-21 -4l-21 -3q-21 0 -37 -5l-37 -5v-9l16 -4l17 -3l132 -26q66 -12 138 -12l7 -1h6
l6 -1h6l12 3l4 11zM411 510q-19 -29 -44 -80l-35 -84l-23 -58l-26 -57h28l19 4l49 8l57 9l59 4l4 1l6 1l11 3q6 3 6 11l-31 57l-20 62l-8 25l-6 18l-8 18q-9 26 -30 58h-8zM432 822l-56 -83h-100l105 136h94l110 -136h-100zM602 1057l20 -11q-25 -51 -44 -69
q-29 -26 -60 -26q-12 0 -28 5l-49 14q-63 19 -83 19t-40 -12q-10 -6 -18 -19l-14 -20l-19 13q23 48 46 73t66 25q29 0 79 -19l76 -19q18 0 33 9z" />
    <glyph glyph-name="AE" unicode="&#xc6;" horiz-adv-x="786" 
d="M415 684l41 -19l20 -11l19 -8l19 -62l19 -62l2 -8l2 -8l36 -117q18 -57 42 -114q5 -9 12 -12l17 -2h4l5 1h4h5q7 0 11 -2q6 0 10 -4l9 -6l9 -5l30 -23q14 -12 25 -32l-10 -4l-12 -1h-11l-10 2l-12 1l-12 1h-5l-4 -1q-7 3 -12 -2l-9 -9l-2 -2l10 -25l9 -25l2 -5l18 -49
q11 -23 32 -40l1 -5l1 -3q0 -8 -6 -17q-6 -6 -15 -6l-5 1l-111 17l-104 21q-108 21 -208 61h-12l-11 2h-4l-11 1h-7h-6l-2 -4l-1 -4l-9 -21l-14 -23q-14 -22 -32 -40l-6 -1h-5q-15 0 -30 6l-26 15l-12 6l-10 7l3 17l7 18l4 8l3 10l2 8l1 9v4l-1 4l-1 4l-1 4q-25 3 -45 23
q-21 18 -31 41l-1 4q12 9 30 12l35 5h12h13h18q13 0 17 2l10 24l10 25l96 217l51 107l19 38l37 68q16 -3 44 -12zM605 99l-8 20l-2 3q-3 13 -10 21q-3 9 -14 20l-30 -1l-62 -9l-90 -13l-21 -4l-21 -3q-21 0 -37 -5l-37 -5v-9l16 -4l17 -3l132 -26q66 -12 138 -12l7 -1h6
l6 -1h6l12 3l4 11zM411 510q-19 -29 -44 -80l-35 -84l-23 -58l-26 -57h28l19 4l49 8l57 9l59 4l4 1l6 1l11 3q6 3 6 11l-31 57l-20 62l-8 25l-6 18l-8 18q-9 26 -30 58h-8zM513 -99q8 -16 8 -34q0 -45 -40 -66q-16 -8 -35 -8q-20 0 -35.5 9.5t-27.5 26.5q-10 18 -10 37
q0 45 40 67q16 8 34 8q45 0 66 -40zM432 822l-56 -83h-100l105 136h94l110 -136h-100z" />
    <glyph glyph-name="Ccedilla" unicode="&#xc7;" horiz-adv-x="679" 
d="M285 285l3 -38l-2 -13l-1 -19q0 -9 -4 -20l-6 -12l-7 -11l-2 -4l-2 -3l-9 -16l-3 -15l1 -4l1 -5h8l8 1q46 0 87 11.5t94 36.5q87 42 132 126q-12 97 -85 159.5t-160 92.5l-19 6l-18 6l-12 -6l-7 -32l-3 -32l-1 -16v-16l1 -47v-65h-4h81v-65h-71zM100 418l-5 13l-10 18
l-10 20l-31 62l-8 27l-5 39q0 20 2 25l9 26q35 22 82 37l43 8l47 3l21 -1l21 -1q25 0 35.5 -1.5t35 -7.5t64.5 -23q66 -24 120 -57q30 -21 55 -55l44 -65l7 -14l7 -12v-5l2 -14l6 -12l5 -14l3 -13l-1 -5l-1 -6v-5v-4l-1 -5v-4l1 -22q0 -17 2 -21l2 -13l2 -13q0 -15 2 -18
l3 -18q-15 -82 -66.5 -140.5t-130.5 -100.5l-69 -18l-38 -5l-38 -3h-8h-7q-44 0 -79 7l-22 3q-3 1 -7.5 1.5t-12.5 3.5t-30 15q-19 14 -44 48q-11 21 -22 58h5q12 0 16 -2l17 -5l3 -2h4l13 -4l14 -1l15 3q8 3 15 13q0 12 -2 15v16q0 4 1.5 30.5t1.5 34.5q0 28 -5 51l-4 6
q0 -1 -2 -6h-87v65h85l-3 62v21l1 22v21q0 17 2 21q0 12 5 17l11 13l5 6l5 6l4 7l2 8l-1 6l-4 6h-5q-32 -3 -54 -17q-20 -8 -38 -39l8 -32l12 -30l2 -6l2 -5l12 -36l-14 4q-5 3 -17 13z" />
    <glyph glyph-name="Egrave" unicode="&#xc8;" horiz-adv-x="722" 
d="M609 683l14 -26l7 -28l-1 -6l-1 -4q0 -12 -10 -21l-21 -13l-5 -2h-4l-326 -115q21 14 45 24l52 21l11 4l12 5l57 24q27 12 52 31l-1 5l-7 8l-10 4l-40 -3l-41 -3l-85 -6l-85 -3l-2 -4v-7v-9l1 -5l2 -8l2 -8l3 -14l2 -15l-2 -11l-3 -11v-4q0 -6 4 -13l12 -5l-2 -4l-3 -5
l-3 -5l-1 -4l-2 -4v-4l2 -7l9 -5h20h17l17 2l55 4h6l7 1l61 3l62 2l48 -1l25 -1q13 0 22 -3.5t13 -11.5l2 -15l2 -14q0 -6 5 -10q-28 -28 -70 -43l-82 -16l-3 -1l-63 -12q-25 -6 -55 -21l-18 -9l-20 -6q-21 -3 -35 -13q-16 -6 -24 -26l1 -8v-8l-1 -12v-11l-1 -12v-12l3 -28
q3 -13 13 -21h9h8h27h24l14 2q19 0 29 2l35 7q75 11 127 25l82 17l82 13l3 -6l1 -6l-1 -7l-3 -6l-3 -6l-3 -5l-6 -8l-3 -7q-24 -62 -82 -86q-49 -14 -122 -25l-5 -1h-4l-52 -7q-28 -3 -49 -10q-25 0 -32 -2q-25 0 -31 -2l-56 -4l-55 -2h-27l-26 3l-27 3l-26 5q-16 9 -24 22
q-6 7 -14 31l-4 13l-1 13q0 27 15.5 45.5t34.5 33.5l3 2l22 20l19 24q0 15 -2 19v21q0 36 -5 51q-3 20 -27 35q-13 2 -21 10l-10 22q0 17 10 27l22 19l4 3l14 10l10 12l-6 125l-14 10l-15 5l-18 6q-1 1 -2 1q-6 4 -12 11q0 12 -2 15l-3 17l-2 3l-3 16l-1 13q0 12 2 15l9 13
l38 -11l12 -1h13h12h13l44 1l45 1l89 5h18h15l17 2l50 3l46 1l46 1h16l18 -1l16 -1h17zM131 159q0 8 -7 14l-15 6l-13 -3q-7 -3 -9 -8l-2 -5l-2 -7l-2 -2l-2 -9l-1 -6l2 -8l10 -5l7 -2l8 -1q9 0 17 5q6 6 9 19v4l-1 4zM333 320l-9 -1l-15 1l-14 2h-4l-14 1l-12 1
q-15 0 -25.5 -7t-10.5 -26l1 -4v-5l6 -7l6 -4l3 -1q9 0 17 4l16 10l4 2l4 3l9 5l10 3l8 5l10 3h4l13 3q2 8 2 14zM445 936l4 -24q0 -19 -7 -30q-14 -21 -39 -32q-11 -3 -21 -19l-7 -33l-37 -1l-2 17q0 25 11 42l12 16l8 10l6 11l3 7l1 9v6q-3 19 -35 19q-15 0 -28 -7l-12 -3
l-8 -1q-22 0 -22 32l1 10l1 8q32 30 57 30q42 0 68 -16q26 -12 46 -51z" />
    <glyph glyph-name="Eacute" unicode="&#xc9;" horiz-adv-x="722" 
d="M609 683l14 -26l7 -28l-1 -6l-1 -4q0 -12 -10 -21l-21 -13l-5 -2h-4l-326 -115q21 14 45 24l52 21l11 4l12 5l57 24q27 12 52 31l-1 5l-7 8l-10 4l-40 -3l-41 -3l-85 -6l-85 -3l-2 -4v-7v-9l1 -5l2 -8l2 -8l3 -14l2 -15l-2 -11l-3 -11v-4q0 -6 4 -13l12 -5l-2 -4l-3 -5
l-3 -5l-1 -4l-2 -4v-4l2 -7l9 -5h20h17l17 2l55 4h6l7 1l61 3l62 2l48 -1l25 -1q13 0 22 -3.5t13 -11.5l2 -15l2 -14q0 -6 5 -10q-28 -28 -70 -43l-82 -16l-3 -1l-63 -12q-25 -6 -55 -21l-18 -9l-20 -6q-21 -3 -35 -13q-16 -6 -24 -26l1 -8v-8l-1 -12v-11l-1 -12v-12l3 -28
q3 -13 13 -21h9h8h27h24l14 2q19 0 29 2l35 7q75 11 127 25l82 17l82 13l3 -6l1 -6l-1 -7l-3 -6l-3 -6l-3 -5l-6 -8l-3 -7q-24 -62 -82 -86q-49 -14 -122 -25l-5 -1h-4l-52 -7q-28 -3 -49 -10q-25 0 -32 -2q-25 0 -31 -2l-56 -4l-55 -2h-27l-26 3l-27 3l-26 5q-16 9 -24 22
q-6 7 -14 31l-4 13l-1 13q0 27 15.5 45.5t34.5 33.5l3 2l22 20l19 24q0 15 -2 19v21q0 36 -5 51q-3 20 -27 35q-13 2 -21 10l-10 22q0 17 10 27l22 19l4 3l14 10l10 12l-6 125l-14 10l-15 5l-18 6q-1 1 -2 1q-6 4 -12 11q0 12 -2 15l-3 17l-2 3l-3 16l-1 13q0 12 2 15l9 13
l38 -11l12 -1h13h12h13l44 1l45 1l89 5h18h15l17 2l50 3l46 1l46 1h16l18 -1l16 -1h17zM131 159q0 8 -7 14l-15 6l-13 -3q-7 -3 -9 -8l-2 -5l-2 -7l-2 -2l-2 -9l-1 -6l2 -8l10 -5l7 -2l8 -1q9 0 17 5q6 6 9 19v4l-1 4zM333 320l-9 -1l-15 1l-14 2h-4l-14 1l-12 1
q-15 0 -25.5 -7t-10.5 -26l1 -4v-5l6 -7l6 -4l3 -1q9 0 17 4l16 10l4 2l4 3l9 5l10 3l8 5l10 3h4l13 3q2 8 2 14zM421 807l-15 20l119 120q41 41 64 41q12 0 26 -14q9 -11 13 -29q0 -25 -56 -54z" />
    <glyph glyph-name="Ecircumflex" unicode="&#xca;" horiz-adv-x="722" 
d="M609 683l14 -26l7 -28l-1 -6l-1 -4q0 -12 -10 -21l-21 -13l-5 -2h-4l-326 -115q21 14 45 24l52 21l11 4l12 5l57 24q27 12 52 31l-1 5l-7 8l-10 4l-40 -3l-41 -3l-85 -6l-85 -3l-2 -4v-7v-9l1 -5l2 -8l2 -8l3 -14l2 -15l-2 -11l-3 -11v-4q0 -6 4 -13l12 -5l-2 -4l-3 -5
l-3 -5l-1 -4l-2 -4v-4l2 -7l9 -5h20h17l17 2l55 4h6l7 1l61 3l62 2l48 -1l25 -1q13 0 22 -3.5t13 -11.5l2 -15l2 -14q0 -6 5 -10q-28 -28 -70 -43l-82 -16l-3 -1l-63 -12q-25 -6 -55 -21l-18 -9l-20 -6q-21 -3 -35 -13q-16 -6 -24 -26l1 -8v-8l-1 -12v-11l-1 -12v-12l3 -28
q3 -13 13 -21h9h8h27h24l14 2q19 0 29 2l35 7q75 11 127 25l82 17l82 13l3 -6l1 -6l-1 -7l-3 -6l-3 -6l-3 -5l-6 -8l-3 -7q-24 -62 -82 -86q-49 -14 -122 -25l-5 -1h-4l-52 -7q-28 -3 -49 -10q-25 0 -32 -2q-25 0 -31 -2l-56 -4l-55 -2h-27l-26 3l-27 3l-26 5q-16 9 -24 22
q-6 7 -14 31l-4 13l-1 13q0 27 15.5 45.5t34.5 33.5l3 2l22 20l19 24q0 15 -2 19v21q0 36 -5 51q-3 20 -27 35q-13 2 -21 10l-10 22q0 17 10 27l22 19l4 3l14 10l10 12l-6 125l-14 10l-15 5l-18 6q-1 1 -2 1q-6 4 -12 11q0 12 -2 15l-3 17l-2 3l-3 16l-1 13q0 12 2 15l9 13
l38 -11l12 -1h13h12h13l44 1l45 1l89 5h18h15l17 2l50 3l46 1l46 1h16l18 -1l16 -1h17zM131 159q0 8 -7 14l-15 6l-13 -3q-7 -3 -9 -8l-2 -5l-2 -7l-2 -2l-2 -9l-1 -6l2 -8l10 -5l7 -2l8 -1q9 0 17 5q6 6 9 19v4l-1 4zM333 320l-9 -1l-15 1l-14 2h-4l-14 1l-12 1
q-15 0 -25.5 -7t-10.5 -26l1 -4v-5l6 -7l6 -4l3 -1q9 0 17 4l16 10l4 2l4 3l9 5l10 3l8 5l10 3h4l13 3q2 8 2 14zM333 825l-56 -83h-100l105 136h94l110 -136h-100z" />
    <glyph glyph-name="Edieresis" unicode="&#xcb;" horiz-adv-x="722" 
d="M609 683l14 -26l7 -28l-1 -6l-1 -4q0 -12 -10 -21l-21 -13l-5 -2h-4l-326 -115q21 14 45 24l52 21l11 4l12 5l57 24q27 12 52 31l-1 5l-7 8l-10 4l-40 -3l-41 -3l-85 -6l-85 -3l-2 -4v-7v-9l1 -5l2 -8l2 -8l3 -14l2 -15l-2 -11l-3 -11v-4q0 -6 4 -13l12 -5l-2 -4l-3 -5
l-3 -5l-1 -4l-2 -4v-4l2 -7l9 -5h20h17l17 2l55 4h6l7 1l61 3l62 2l48 -1l25 -1q13 0 22 -3.5t13 -11.5l2 -15l2 -14q0 -6 5 -10q-28 -28 -70 -43l-82 -16l-3 -1l-63 -12q-25 -6 -55 -21l-18 -9l-20 -6q-21 -3 -35 -13q-16 -6 -24 -26l1 -8v-8l-1 -12v-11l-1 -12v-12l3 -28
q3 -13 13 -21h9h8h27h24l14 2q19 0 29 2l35 7q75 11 127 25l82 17l82 13l3 -6l1 -6l-1 -7l-3 -6l-3 -6l-3 -5l-6 -8l-3 -7q-24 -62 -82 -86q-49 -14 -122 -25l-5 -1h-4l-52 -7q-28 -3 -49 -10q-25 0 -32 -2q-25 0 -31 -2l-56 -4l-55 -2h-27l-26 3l-27 3l-26 5q-16 9 -24 22
q-6 7 -14 31l-4 13l-1 13q0 27 15.5 45.5t34.5 33.5l3 2l22 20l19 24q0 15 -2 19v21q0 36 -5 51q-3 20 -27 35q-13 2 -21 10l-10 22q0 17 10 27l22 19l4 3l14 10l10 12l-6 125l-14 10l-15 5l-18 6q-1 1 -2 1q-6 4 -12 11q0 12 -2 15l-3 17l-2 3l-3 16l-1 13q0 12 2 15l9 13
l38 -11l12 -1h13h12h13l44 1l45 1l89 5h18h15l17 2l50 3l46 1l46 1h16l18 -1l16 -1h17zM131 159q0 8 -7 14l-15 6l-13 -3q-7 -3 -9 -8l-2 -5l-2 -7l-2 -2l-2 -9l-1 -6l2 -8l10 -5l7 -2l8 -1q9 0 17 5q6 6 9 19v4l-1 4zM333 320l-9 -1l-15 1l-14 2h-4l-14 1l-12 1
q-15 0 -25.5 -7t-10.5 -26l1 -4v-5l6 -7l6 -4l3 -1q9 0 17 4l16 10l4 2l4 3l9 5l10 3l8 5l10 3h4l13 3q2 8 2 14zM414 -111l5 -26q0 -24 -12 -42t-37 -30l-26 -5q-23 0 -40.5 12t-30.5 37l-5 19v8q0 21 12 42q11 16 36 29l26 5q24 0 42 -12t30 -37z" />
    <glyph glyph-name="Igrave" unicode="&#xcc;" horiz-adv-x="193" 
d="M60 690l14 -6l2 -2l3 -1l38 -21q14 -7 26 -33l8 -109l5 -111l1 -45l1 -47l1 -45l1 -46l3 -2l3 -2l6 -3l6 -1l6 1q0 -16 -4 -29l-8 -28l-4 -10l-3 -10l-4 -18l-2 -19l1 -17l6 -16l-2 -13v-15q0 -16 -3.5 -29t-25.5 -13q-31 0 -68.5 15t-57.5 44q10 28 19 71l4 33l1 41
l-1 38v14v11l-2 13l-1 55l-1 56l-3 109l-1 40v23q-3 17 -4 25l-3 54l-5 34q0 9 7 12l15 5l7 1l7 2zM183 921l2 -10l1 -14q0 -18 -7 -29q-15 -24 -38 -33q-14 -3 -21 -19q-8 -14 -8 -32l-37 -1l-2 16q0 25 11 42l12 16l14 20l4 17v6q-3 19 -35 19q-10 0 -28 -6l-12 -3l-8 -1
q-22 0 -22 31l1 11l1 7q30 30 57 30q39 0 68 -15q25 -12 47 -52z" />
    <glyph glyph-name="Iacute" unicode="&#xcd;" horiz-adv-x="722" 
d="M609 683l14 -26l7 -28l-1 -6l-1 -4q0 -12 -10 -21l-21 -13l-5 -2h-4l-326 -115q21 14 45 24l52 21l11 4l12 5l57 24q27 12 52 31l-1 5l-7 8l-10 4l-40 -3l-41 -3l-85 -6l-85 -3l-2 -4v-7v-9l1 -5l2 -8l2 -8l3 -14l2 -15l-2 -11l-3 -11v-4q0 -6 4 -13l12 -5l-2 -4l-3 -5
l-3 -5l-1 -4l-2 -4v-4l2 -7l9 -5h20h17l17 2l55 4h6l7 1l61 3l62 2l48 -1l25 -1q13 0 22 -3.5t13 -11.5l2 -15l2 -14q0 -6 5 -10q-28 -28 -70 -43l-82 -16l-3 -1l-63 -12q-25 -6 -55 -21l-18 -9l-20 -6q-21 -3 -35 -13q-16 -6 -24 -26l1 -8v-8l-1 -12v-11l-1 -12v-12l3 -28
q3 -13 13 -21h9h8h27h24l14 2q19 0 29 2l35 7q75 11 127 25l82 17l82 13l3 -6l1 -6l-1 -7l-3 -6l-3 -6l-3 -5l-6 -8l-3 -7q-24 -62 -82 -86q-49 -14 -122 -25l-5 -1h-4l-52 -7q-28 -3 -49 -10q-25 0 -32 -2q-25 0 -31 -2l-56 -4l-55 -2h-27l-26 3l-27 3l-26 5q-16 9 -24 22
q-6 7 -14 31l-4 13l-1 13q0 27 15.5 45.5t34.5 33.5l3 2l22 20l19 24q0 15 -2 19v21q0 36 -5 51q-3 20 -27 35q-13 2 -21 10l-10 22q0 17 10 27l22 19l4 3l14 10l10 12l-6 125l-14 10l-15 5l-18 6q-1 1 -2 1q-6 4 -12 11q0 12 -2 15l-3 17l-2 3l-3 16l-1 13q0 12 2 15l9 13
l38 -11l12 -1h13h12h13l44 1l45 1l89 5h18h15l17 2l50 3l46 1l46 1h16l18 -1l16 -1h17zM131 159q0 8 -7 14l-15 6l-13 -3q-7 -3 -9 -8l-2 -5l-2 -7l-2 -2l-2 -9l-1 -6l2 -8l10 -5l7 -2l8 -1q9 0 17 5q6 6 9 19v4l-1 4zM333 320l-9 -1l-15 1l-14 2h-4l-14 1l-12 1
q-15 0 -25.5 -7t-10.5 -26l1 -4v-5l6 -7l6 -4l3 -1q9 0 17 4l16 10l4 2l4 3l9 5l10 3l8 5l10 3h4l13 3q2 8 2 14zM333 825l-56 -83h-100l105 136h94l110 -136h-100zM170 920q0 48 27.5 79.5t72.5 31.5q14 0 34 -7q16 -4 23.5 -7.5t25.5 -12.5q28 -14 45 -14q16 0 24 8.5
t12 34.5h63q0 -26 -6 -46l-10 -23l-12 -15q-28 -28 -68 -28q-31 0 -81 28q-26 14 -48 17q-12 0 -24.5 -11.5t-12.5 -34.5h-65z" />
    <glyph glyph-name="Icircumflex" unicode="&#xce;" horiz-adv-x="193" 
d="M60 690l14 -6l2 -2l3 -1l38 -21q14 -7 26 -33l8 -109l5 -111l1 -45l1 -47l1 -45l1 -46l3 -2l3 -2l6 -3l6 -1l6 1q0 -16 -4 -29l-8 -28l-4 -10l-3 -10l-4 -18l-2 -19l1 -17l6 -16l-2 -13v-15q0 -16 -3.5 -29t-25.5 -13q-31 0 -68.5 15t-57.5 44q10 28 19 71l4 33l1 41
l-1 38v14v11l-2 13l-1 55l-1 56l-3 109l-1 40v23q-3 17 -4 25l-3 54l-5 34q0 9 7 12l15 5l7 1l7 2zM148 -124l8 -17l3 -21q0 -39 -35 -62l-18 -8l-20 -3q-39 0 -62 35l-8 18l-3 20q0 39 35 62l17 8l21 3q39 0 62 -35z" />
    <glyph glyph-name="Idieresis" unicode="&#xcf;" horiz-adv-x="734" 
d="M626 696h6h5h14l20 -4q15 -3 30 -15v-5v-4q0 -79 -43 -145t-107 -113l-6 -14l-6 -15q-31 -68 -67.5 -134.5t-88.5 -121.5l3 -13l9 -2l29 3h11l19 2h27l37 5q8 0 20 4t23 11v-15l-15 -19l-16 -21l-39 -41q-15 -14 -44 -29l-90 -7l-91 -3l-49 1l-21 1l-26 4l-8 2l-7 3
q-15 5 -25.5 14.5t-10.5 26.5q2 15 5 18l5 20l8 29l7 30q9 0 13 -5l5 -11l5 -12l9 -7l12 -3l13 -4l10 -3q7 0 11 -2l8 -2h8q10 0 14 2l14 8l9 16l9 17l7 12l7 13l21 39l17 42l-9 2l-9 1l-10 -1l-9 -1l-10 -2h-10h-5l-4 1l-10 3l-8 5q-36 47 -57 89l-46 95l-3 6l-3 8l-38 79
q-18 40 -43 76l-4 1l-7 -1h-4l-5 -2h-4l-5 1l9 23l15 26l7 11l6 11l15 8l17 3l4 -1h5q9 0 20 -4l19 -6q32 -36 53.5 -82t40.5 -96l16 -45l19 -43l15 -19l14 -20l25 -35q9 -11 29 -26q18 3 25.5 17t11.5 29l1 3l1 4l3 9l3 9l18 39l18 42l4 10l4 11l28 61q5 11 13.5 26.5
t20.5 33.5q36 57 109 88h4zM630 560l-18 -36l-16 -32l-18 -26l3 -3l6 4l6 5q23 23 42.5 54.5t19.5 64.5q-15 -12 -25 -31zM507 937l20 -11q-25 -51 -44 -69q-29 -26 -60 -26q-21 0 -80 19t-80 19q-24 0 -39 -12l-16 -16l-17 -23l-19 13q23 46 46.5 72t65.5 26q29 0 82 -19
l45 -14l28 -5q19 0 32 8l15 13z" />
    <glyph glyph-name="Eth" unicode="&#xd0;" horiz-adv-x="587" 
d="M117 653l3 -8l4 -7l2 -4l13 -29q5 -13 5 -33v-7l1 -77l1 -36l1 -38v-50v-23l2 -27v-25v-24l-1 -47l-1 -46q17 -12 47 -16l54 -2h8h6h16l15 -1l18 3q15 0 19 2l5 1h6l42 9q21 6 34 25l-1 55v55l-1 42l-1 43v83l3 100l9 103q1 2 3.5 5t5.5 6l15 3l10 -1l10 -3l8 -5l9 -5
q10 -6 21 -13t22 -16q20 -14 30 -37q0 -44 -10 -78l-18 -74l-1 -3l-10 -38l-8 -38l1 -67l-1 -68v-35v-34l1 -80l6 -74l-1 -4l-1 -3l-2 -7l-6 -5q-19 3 -37.5 17t-33.5 33l-4 11l-1 12l-1 3l-3 19q0 5 -13 11q-21 -44 -60.5 -56.5t-83.5 -12.5l-20 -1l-18 1h-17h-16
q-34 0 -73 21q-33 21 -57 48q-12 22 -22 56l-6 28l-5 40l-2 23v23v19l1 18l3 90l1 92l-1 85l-3 83l-3 4l-2 4l-6 8l1 11l8 4l10 1q10 0 12 -2q10 0 12 -2l4 -2l4 -1l8 -3l8 -2zM533 656l4 -2h7l14 3q6 3 9 15l-7 13l-7 13l-12 24l-5 21q0 18 12.5 33.5t36.5 15.5
q22 0 46 -24q19 -25 19 -62q0 -24 -8 -41q-5 -15 -27 -41l-15 -17l-24 -21h-43l-3 3z" />
    <glyph glyph-name="Ntilde" unicode="&#xd1;" horiz-adv-x="587" 
d="M117 653l3 -8l4 -7l2 -4l13 -29q5 -13 5 -33v-7l1 -77l1 -36l1 -38v-50v-23l2 -27v-25v-24l-1 -47l-1 -46q17 -12 47 -16l54 -2h8h6h16l15 -1l18 3q15 0 19 2l5 1h6l42 9q21 6 34 25l-1 55v55l-1 42l-1 43v83l3 100l9 103q1 2 3.5 5t5.5 6l15 3l10 -1l10 -3l8 -5l9 -5
q10 -6 21 -13t22 -16q20 -14 30 -37q0 -44 -10 -78l-18 -74l-1 -3l-10 -38l-8 -38l1 -67l-1 -68v-35v-34l1 -80l6 -74l-1 -4l-1 -3l-2 -7l-6 -5q-19 3 -37.5 17t-33.5 33l-4 11l-1 12l-1 3l-3 19q0 5 -13 11q-21 -44 -60.5 -56.5t-83.5 -12.5l-20 -1l-18 1h-17h-16
q-34 0 -73 21q-33 21 -57 48q-12 22 -22 56l-6 28l-5 40l-2 23v23v19l1 18l3 90l1 92l-1 85l-3 83l-3 4l-2 4l-6 8l1 11l8 4l10 1q10 0 12 -2q10 0 12 -2l4 -2l4 -1l8 -3l8 -2zM375 921l2 -10l1 -14q0 -18 -7 -29q-15 -24 -38 -33q-14 -3 -21 -19q-8 -14 -8 -32l-37 -1
l-2 16q0 25 11 42l12 16l14 20l4 17v6q-3 19 -35 19q-10 0 -28 -6l-12 -3l-8 -1q-22 0 -22 31l1 11l1 7q30 30 57 30q39 0 68 -15q25 -12 47 -52zM576 586h-43l-3 3z" />
    <glyph glyph-name="Ograve" unicode="&#xd2;" 
d="M517 635q31 -28 71 -76q23 -37 41 -101l12 -57l4 -27l1 -27v-7v-7q0 -45 -9 -90.5t-28 -80.5q-11 -17 -36 -31q-3 -1 -16.5 -4.5t-26.5 -6.5l-8 -1h-7h-4h-4l-9 -15l-6 -17l-1 -4l-4 -12l-8 -16q-3 -8 -19 -17q-19 -14 -62 -29q-33 -9 -68 -9h-6h-5h-16h-11q-7 2 -10 2
l-26 6l-22 7q-33 10 -74 36q-63 48 -96 120t-33 154v22l4 31l3 27l8 26q18 62 59 121.5t105 94.5q11 6 23 9l26 4l5 1q18 0 38 6t35 28l13 1h14h8l9 -1q13 0 26 -4q13 -2 25 -7q45 -14 85 -49zM489 455l-8 17l-24 39q-10 19 -29 39q-28 36 -85 47q-102 -48 -144 -145
q-17 -43 -31 -100q-5 -24 -8 -52.5t-3 -56.5q9 -22 29 -40l40 -32l14 -10l14 -10q17 -9 37 -15l40 -4h5h5q19 0 31.5 2t29.5 9q31 9 54 25l5 12l1 13l-2 17l-5 17l-5 19l-2 18l1 7l1 6q12 -9 19 -26l10 -33l1 -6l7 -25l12 -22h4l9 37l6 39l2 25l1 26q0 35 -6 73.5t-18 73.5z
M391 830l-55 -83h-101l106 137h94l109 -137h-99zM564 916l-15 -20l-151 84q-56 30 -56 54q0 12 13 26q10 13 26 17q23 0 64 -41z" />
    <glyph glyph-name="Oacute" unicode="&#xd3;" 
d="M517 635q31 -28 71 -76q23 -37 41 -101l12 -57l4 -27l1 -27v-7v-7q0 -45 -9 -90.5t-28 -80.5q-11 -17 -36 -31q-3 -1 -16.5 -4.5t-26.5 -6.5l-8 -1h-7h-4h-4l-9 -15l-6 -17l-1 -4l-4 -12l-8 -16q-3 -8 -19 -17q-19 -14 -62 -29q-33 -9 -68 -9h-6h-5h-16h-11q-7 2 -10 2
l-26 6l-22 7q-33 10 -74 36q-63 48 -96 120t-33 154v22l4 31l3 27l8 26q18 62 59 121.5t105 94.5q11 6 23 9l26 4l5 1q18 0 38 6t35 28l13 1h14h8l9 -1q13 0 26 -4q13 -2 25 -7q45 -14 85 -49zM489 455l-8 17l-24 39q-10 19 -29 39q-28 36 -85 47q-102 -48 -144 -145
q-17 -43 -31 -100q-5 -24 -8 -52.5t-3 -56.5q9 -22 29 -40l40 -32l14 -10l14 -10q17 -9 37 -15l40 -4h5h5q19 0 31.5 2t29.5 9q31 9 54 25l5 12l1 13l-2 17l-5 17l-5 19l-2 18l1 7l1 6q12 -9 19 -26l10 -33l1 -6l7 -25l12 -22h4l9 37l6 39l2 25l1 26q0 35 -6 73.5t-18 73.5z
M363 834l-55 -83h-101l106 137h94l109 -137h-99zM212 905l-14 20l118 120q41 41 64 41q10 0 27 -14q12 -15 12 -29q0 -24 -55 -54z" />
    <glyph glyph-name="Ocircumflex" unicode="&#xd4;" 
d="M517 635q31 -28 71 -76q23 -37 41 -101l12 -57l4 -27l1 -27v-7v-7q0 -45 -9 -90.5t-28 -80.5q-11 -17 -36 -31q-3 -1 -16.5 -4.5t-26.5 -6.5l-8 -1h-7h-4h-4l-9 -15l-6 -17l-1 -4l-4 -12l-8 -16q-3 -8 -19 -17q-19 -14 -62 -29q-33 -9 -68 -9h-6h-5h-16h-11q-7 2 -10 2
l-26 6l-22 7q-33 10 -74 36q-63 48 -96 120t-33 154v22l4 31l3 27l8 26q18 62 59 121.5t105 94.5q11 6 23 9l26 4l5 1q18 0 38 6t35 28l13 1h14h8l9 -1q13 0 26 -4q13 -2 25 -7q45 -14 85 -49zM489 455l-8 17l-24 39q-10 19 -29 39q-28 36 -85 47q-102 -48 -144 -145
q-17 -43 -31 -100q-5 -24 -8 -52.5t-3 -56.5q9 -22 29 -40l40 -32l14 -10l14 -10q17 -9 37 -15l40 -4h5h5q19 0 31.5 2t29.5 9q31 9 54 25l5 12l1 13l-2 17l-5 17l-5 19l-2 18l1 7l1 6q12 -9 19 -26l10 -33l1 -6l7 -25l12 -22h4l9 37l6 39l2 25l1 26q0 35 -6 73.5t-18 73.5z
M363 834l-55 -83h-101l106 137h94l109 -137h-99z" />
    <glyph glyph-name="Otilde" unicode="&#xd5;" 
d="M517 635q31 -28 71 -76q23 -37 41 -101l12 -57l4 -27l1 -27v-7v-7q0 -45 -9 -90.5t-28 -80.5q-11 -17 -36 -31q-3 -1 -16.5 -4.5t-26.5 -6.5l-8 -1h-7h-4h-4l-9 -15l-6 -17l-1 -4l-4 -12l-8 -16q-3 -8 -19 -17q-19 -14 -62 -29q-33 -9 -68 -9h-6h-5h-16h-11q-7 2 -10 2
l-26 6l-22 7q-33 10 -74 36q-63 48 -96 120t-33 154v22l4 31l3 27l8 26q18 62 59 121.5t105 94.5q11 6 23 9l26 4l5 1q18 0 38 6t35 28l13 1h14h8l9 -1q13 0 26 -4q13 -2 25 -7q45 -14 85 -49zM489 455l-8 17l-24 39q-10 19 -29 39q-28 36 -85 47q-102 -48 -144 -145
q-17 -43 -31 -100q-5 -24 -8 -52.5t-3 -56.5q9 -22 29 -40l40 -32l14 -10l14 -10q17 -9 37 -15l40 -4h5h5q19 0 31.5 2t29.5 9q31 9 54 25l5 12l1 13l-2 17l-5 17l-5 19l-2 18l1 7l1 6q12 -9 19 -26l10 -33l1 -6l7 -25l12 -22h4l9 37l6 39l2 25l1 26q0 35 -6 73.5t-18 73.5z
M489 946l4 -24q0 -16 -8 -29q-12 -24 -38 -33q-12 -3 -20.5 -18.5t-8.5 -32.5l-37 -1l-2 16q0 24 12 42l11 16l9 12l6 8l3 17v6q-3 19 -34 19q-11 0 -29 -6l-12 -3l-8 -1q-22 0 -22 31l1 11l1 7q30 30 58 30q38 0 67 -15q26 -12 47 -52z" />
    <glyph glyph-name="Odieresis" unicode="&#xd6;" 
d="M517 635q31 -28 71 -76q23 -37 41 -101l12 -57l4 -27l1 -27v-7v-7q0 -45 -9 -90.5t-28 -80.5q-11 -17 -36 -31q-3 -1 -16.5 -4.5t-26.5 -6.5l-8 -1h-7h-4h-4l-9 -15l-6 -17l-1 -4l-4 -12l-8 -16q-3 -8 -19 -17q-19 -14 -62 -29q-33 -9 -68 -9h-6h-5h-16h-11q-7 2 -10 2
l-26 6l-22 7q-33 10 -74 36q-63 48 -96 120t-33 154v22l4 31l3 27l8 26q18 62 59 121.5t105 94.5q11 6 23 9l26 4l5 1q18 0 38 6t35 28l13 1h14h8l9 -1q13 0 26 -4q13 -2 25 -7q45 -14 85 -49zM489 455l-8 17l-24 39q-10 19 -29 39q-28 36 -85 47q-102 -48 -144 -145
q-17 -43 -31 -100q-5 -24 -8 -52.5t-3 -56.5q9 -22 29 -40l40 -32l14 -10l14 -10q17 -9 37 -15l40 -4h5h5q19 0 31.5 2t29.5 9q31 9 54 25l5 12l1 13l-2 17l-5 17l-5 19l-2 18l1 7l1 6q12 -9 19 -26l10 -33l1 -6l7 -25l12 -22h4l9 37l6 39l2 25l1 26q0 35 -6 73.5t-18 73.5z
M513 654l16 -15l11 20l11 23q5 20 7 39l-3 23l-14 26l-13 25l-3 20q0 18 13 34q14 14 36 14q24 0 45 -24q10 -12 15 -27t5 -35q0 -43 -33 -91l-22 -34q-13 -24 -29 -36l12 -15l3 -4l-4 3l-2 4z" />
    <glyph glyph-name="multiply" unicode="&#xd7;" horiz-adv-x="722" 
d="M609 683l14 -26l7 -28l-1 -6l-1 -4q0 -12 -10 -21l-21 -13l-5 -2h-4l-326 -115q21 14 45 24l52 21l11 4l12 5l57 24q27 12 52 31l-1 5l-7 8l-10 4l-40 -3l-41 -3l-85 -6l-85 -3l-2 -4v-7v-9l1 -5l2 -8l2 -8l3 -14l2 -15l-2 -11l-3 -11v-4q0 -6 4 -13l12 -5l-2 -4l-3 -5
l-3 -5l-1 -4l-2 -4v-4l2 -7l9 -5h20h17l17 2l55 4h6l7 1l61 3l62 2l48 -1l25 -1q13 0 22 -3.5t13 -11.5l2 -15l2 -14q0 -6 5 -10q-28 -28 -70 -43l-82 -16l-3 -1l-63 -12q-25 -6 -55 -21l-18 -9l-20 -6q-21 -3 -35 -13q-16 -6 -24 -26l1 -8v-8l-1 -12v-11l-1 -12v-12l3 -28
q3 -13 13 -21h9h8h27h24l14 2q19 0 29 2l35 7q75 11 127 25l82 17l82 13l3 -6l1 -6l-1 -7l-3 -6l-3 -6l-3 -5l-6 -8l-3 -7q-24 -62 -82 -86q-49 -14 -122 -25l-5 -1h-4l-52 -7q-28 -3 -49 -10q-25 0 -32 -2q-25 0 -31 -2l-56 -4l-55 -2h-27l-26 3l-27 3l-26 5q-16 9 -24 22
q-6 7 -14 31l-4 13l-1 13q0 27 15.5 45.5t34.5 33.5l3 2l22 20l19 24q0 15 -2 19v21q0 36 -5 51q-3 20 -27 35q-13 2 -21 10l-10 22q0 17 10 27l22 19l4 3l14 10l10 12l-6 125l-14 10l-15 5l-18 6q-1 1 -2 1q-6 4 -12 11q0 12 -2 15l-3 17l-2 3l-3 16l-1 13q0 12 2 15l9 13
l38 -11l12 -1h13h12h13l44 1l45 1l89 5h18h15l17 2l50 3l46 1l46 1h16l18 -1l16 -1h17zM131 159q0 8 -7 14l-15 6l-13 -3q-7 -3 -9 -8l-2 -5l-2 -7l-2 -2l-2 -9l-1 -6l2 -8l10 -5l7 -2l8 -1q9 0 17 5q6 6 9 19v4l-1 4zM333 320l-9 -1l-15 1l-14 2h-4l-14 1l-12 1
q-15 0 -25.5 -7t-10.5 -26l1 -4v-5l6 -7l6 -4l3 -1q9 0 17 4l16 10l4 2l4 3l9 5l10 3l8 5l10 3h4l13 3q2 8 2 14zM344 820l-15 -21l-151 84q-55 31 -55 55q0 14 13.5 28t24.5 15q23 0 64 -41z" />
    <glyph glyph-name="Oslash" unicode="&#xd8;" horiz-adv-x="587" 
d="M117 653l3 -8l4 -7l2 -4l13 -29q5 -13 5 -33v-7l1 -77l1 -36l1 -38v-50v-23l2 -27v-25v-24l-1 -47l-1 -46q17 -12 47 -16l54 -2h8h6h16l15 -1l18 3q15 0 19 2l5 1h6l42 9q21 6 34 25l-1 55v55l-1 42l-1 43v83l3 100l9 103q1 2 3.5 5t5.5 6l15 3l10 -1l10 -3l8 -5l9 -5
q10 -6 21 -13t22 -16q20 -14 30 -37q0 -44 -10 -78l-18 -74l-1 -3l-10 -38l-8 -38l1 -67l-1 -68v-35v-34l1 -80l6 -74l-1 -4l-1 -3l-2 -7l-6 -5q-19 3 -37.5 17t-33.5 33l-4 11l-1 12l-1 3l-3 19q0 5 -13 11q-21 -44 -60.5 -56.5t-83.5 -12.5l-20 -1l-18 1h-17h-16
q-34 0 -73 21q-33 21 -57 48q-12 22 -22 56l-6 28l-5 40l-2 23v23v19l1 18l3 90l1 92l-1 85l-3 83l-3 4l-2 4l-6 8l1 11l8 4l10 1q10 0 12 -2q10 0 12 -2l4 -2l4 -1l8 -3l8 -2zM533 656l4 -2h7l14 3q6 3 9 15l-7 13l-7 13l-12 24l-5 21q0 18 12.5 33.5t36.5 15.5
q22 0 46 -24q19 -25 19 -62q0 -24 -8 -41q-5 -15 -27 -41l-15 -17l-24 -21h-43l-3 3zM389 845l-15 -20l-151 84q-56 30 -56 54q0 13 13 27.5t26 15.5q23 0 64 -41z" />
    <glyph glyph-name="Ugrave" unicode="&#xd9;" horiz-adv-x="587" 
d="M117 653l3 -8l4 -7l2 -4l13 -29q5 -13 5 -33v-7l1 -77l1 -36l1 -38v-50v-23l2 -27v-25v-24l-1 -47l-1 -46q17 -12 47 -16l54 -2h8h6h16l15 -1l18 3q15 0 19 2l5 1h6l42 9q21 6 34 25l-1 55v55l-1 42l-1 43v83l3 100l9 103q1 2 3.5 5t5.5 6l15 3l10 -1l10 -3l8 -5l9 -5
q10 -6 21 -13t22 -16q20 -14 30 -37q0 -44 -10 -78l-18 -74l-1 -3l-10 -38l-8 -38l1 -67l-1 -68v-35v-34l1 -80l6 -74l-1 -4l-1 -3l-2 -7l-6 -5q-19 3 -37.5 17t-33.5 33l-4 11l-1 12l-1 3l-3 19q0 5 -13 11q-21 -44 -60.5 -56.5t-83.5 -12.5l-20 -1l-18 1h-17h-16
q-34 0 -73 21q-33 21 -57 48q-12 22 -22 56l-6 28l-5 40l-2 23v23v19l1 18l3 90l1 92l-1 85l-3 83l-3 4l-2 4l-6 8l1 11l8 4l10 1q10 0 12 -2q10 0 12 -2l4 -2l4 -1l8 -3l8 -2zM533 656l4 -2h7l14 3q6 3 9 15l-7 13l-7 13l-12 24l-5 21q0 18 12.5 33.5t36.5 15.5
q22 0 46 -24q19 -25 19 -62q0 -24 -8 -41q-5 -15 -27 -41l-15 -17l-24 -21h-43l-3 3zM263 857l-10 22l145 99l36 22l29 5q11 -3 21 -19.5t10 -32.5q0 -12 -13 -22l-48 -18z" />
    <glyph glyph-name="Uacute" unicode="&#xda;" horiz-adv-x="587" 
d="M117 653l3 -8l4 -7l2 -4l13 -29q5 -13 5 -33v-7l1 -77l1 -36l1 -38v-50v-23l2 -27v-25v-24l-1 -47l-1 -46q17 -12 47 -16l54 -2h8h6h16l15 -1l18 3q15 0 19 2l5 1h6l42 9q21 6 34 25l-1 55v55l-1 42l-1 43v83l3 100l9 103q1 2 3.5 5t5.5 6l15 3l10 -1l10 -3l8 -5l9 -5
q10 -6 21 -13t22 -16q20 -14 30 -37q0 -44 -10 -78l-18 -74l-1 -3l-10 -38l-8 -38l1 -67l-1 -68v-35v-34l1 -80l6 -74l-1 -4l-1 -3l-2 -7l-6 -5q-19 3 -37.5 17t-33.5 33l-4 11l-1 12l-1 3l-3 19q0 5 -13 11q-21 -44 -60.5 -56.5t-83.5 -12.5l-20 -1l-18 1h-17h-16
q-34 0 -73 21q-33 21 -57 48q-12 22 -22 56l-6 28l-5 40l-2 23v23v19l1 18l3 90l1 92l-1 85l-3 83l-3 4l-2 4l-6 8l1 11l8 4l10 1q10 0 12 -2q10 0 12 -2l4 -2l4 -1l8 -3l8 -2zM238 784l65 136h116l-108 -136h-73z" />
    <glyph glyph-name="Ucircumflex" unicode="&#xdb;" horiz-adv-x="587" 
d="M117 653l3 -8l4 -7l2 -4l13 -29q5 -13 5 -33v-7l1 -77l1 -36l1 -38v-50v-23l2 -27v-25v-24l-1 -47l-1 -46q17 -12 47 -16l54 -2h8h6h16l15 -1l18 3q15 0 19 2l5 1h6l42 9q21 6 34 25l-1 55v55l-1 42l-1 43v83l3 100l9 103q1 2 3.5 5t5.5 6l15 3l10 -1l10 -3l8 -5l9 -5
q10 -6 21 -13t22 -16q20 -14 30 -37q0 -44 -10 -78l-18 -74l-1 -3l-10 -38l-8 -38l1 -67l-1 -68v-35v-34l1 -80l6 -74l-1 -4l-1 -3l-2 -7l-6 -5q-19 3 -37.5 17t-33.5 33l-4 11l-1 12l-1 3l-3 19q0 5 -13 11q-21 -44 -60.5 -56.5t-83.5 -12.5l-20 -1l-18 1h-17h-16
q-34 0 -73 21q-33 21 -57 48q-12 22 -22 56l-6 28l-5 40l-2 23v23v19l1 18l3 90l1 92l-1 85l-3 83l-3 4l-2 4l-6 8l1 11l8 4l10 1q10 0 12 -2q10 0 12 -2l4 -2l4 -1l8 -3l8 -2zM487 933l20 -11q-25 -51 -44 -69q-29 -26 -60 -26q-21 0 -80 19t-80 19q-24 0 -39 -12l-16 -16
l-17 -23l-19 13q23 46 46.5 72t65.5 26q29 0 82 -19l45 -14l28 -5q19 0 32 8l15 13z" />
    <glyph glyph-name="Udieresis" unicode="&#xdc;" horiz-adv-x="587" 
d="M117 653l3 -8l4 -7l2 -4l13 -29q5 -13 5 -33v-7l1 -77l1 -36l1 -38v-50v-23l2 -27v-25v-24l-1 -47l-1 -46q17 -12 47 -16l54 -2h8h6h16l15 -1l18 3q15 0 19 2l5 1h6l42 9q21 6 34 25l-1 55v55l-1 42l-1 43v83l3 100l9 103q1 2 3.5 5t5.5 6l15 3l10 -1l10 -3l8 -5l9 -5
q10 -6 21 -13t22 -16q20 -14 30 -37q0 -44 -10 -78l-18 -74l-1 -3l-10 -38l-8 -38l1 -67l-1 -68v-35v-34l1 -80l6 -74l-1 -4l-1 -3l-2 -7l-6 -5q-19 3 -37.5 17t-33.5 33l-4 11l-1 12l-1 3l-3 19q0 5 -13 11q-21 -44 -60.5 -56.5t-83.5 -12.5l-20 -1l-18 1h-17h-16
q-34 0 -73 21q-33 21 -57 48q-12 22 -22 56l-6 28l-5 40l-2 23v23v19l1 18l3 90l1 92l-1 85l-3 83l-3 4l-2 4l-6 8l1 11l8 4l10 1q10 0 12 -2q10 0 12 -2l4 -2l4 -1l8 -3l8 -2zM533 656l4 -2h7l14 3q6 3 9 15l-7 13l-7 13l-12 24l-5 21q0 18 12.5 33.5t36.5 15.5
q22 0 46 -24q19 -25 19 -62q0 -24 -8 -41q-5 -15 -27 -41l-15 -17l-24 -21h-43l-3 3z" />
    <glyph glyph-name="Yacute" unicode="&#xdd;" horiz-adv-x="734" 
d="M626 696h6h5h14l20 -4q15 -3 30 -15v-5v-4q0 -79 -43 -145t-107 -113l-6 -14l-6 -15q-31 -68 -67.5 -134.5t-88.5 -121.5l3 -13l9 -2l29 3h11l19 2h27l37 5q8 0 20 4t23 11v-15l-15 -19l-16 -21l-39 -41q-15 -14 -44 -29l-90 -7l-91 -3l-49 1l-21 1l-26 4l-8 2l-7 3
q-15 5 -25.5 14.5t-10.5 26.5q2 15 5 18l5 20l8 29l7 30q9 0 13 -5l5 -11l5 -12l9 -7l12 -3l13 -4l10 -3q7 0 11 -2l8 -2h8q10 0 14 2l14 8l9 16l9 17l7 12l7 13l21 39l17 42l-9 2l-9 1l-10 -1l-9 -1l-10 -2h-10h-5l-4 1l-10 3l-8 5q-36 47 -57 89l-46 95l-3 6l-3 8l-38 79
q-18 40 -43 76l-4 1l-7 -1h-4l-5 -2h-4l-5 1l9 23l15 26l7 11l6 11l15 8l17 3l4 -1h5q9 0 20 -4l19 -6q32 -36 53.5 -82t40.5 -96l16 -45l19 -43l15 -19l14 -20l25 -35q9 -11 29 -26q18 3 25.5 17t11.5 29l1 3l1 4l3 9l3 9l18 39l18 42l4 10l4 11l28 61q5 11 13.5 26.5
t20.5 33.5q36 57 109 88h4zM630 560l-18 -36l-16 -32l-18 -26l3 -3l6 4l6 5q23 23 42.5 54.5t19.5 64.5q-15 -12 -25 -31zM328 808l65 136h115l-108 -136h-72z" />
    <glyph glyph-name="Thorn" unicode="&#xde;" horiz-adv-x="722" 
d="M609 683l14 -26l7 -28l-1 -6l-1 -4q0 -12 -10 -21l-21 -13l-5 -2h-4l-326 -115q21 14 45 24l52 21l11 4l12 5l57 24q27 12 52 31l-1 5l-7 8l-10 4l-40 -3l-41 -3l-85 -6l-85 -3l-2 -4v-7v-9l1 -5l2 -8l2 -8l3 -14l2 -15l-2 -11l-3 -11v-4q0 -6 4 -13l12 -5l-2 -4l-3 -5
l-3 -5l-1 -4l-2 -4v-4l2 -7l9 -5h20h17l17 2l55 4h6l7 1l61 3l62 2l48 -1l25 -1q13 0 22 -3.5t13 -11.5l2 -15l2 -14q0 -6 5 -10q-28 -28 -70 -43l-82 -16l-3 -1l-63 -12q-25 -6 -55 -21l-18 -9l-20 -6q-21 -3 -35 -13q-16 -6 -24 -26l1 -8v-8l-1 -12v-11l-1 -12v-12l3 -28
q3 -13 13 -21h9h8h27h24l14 2q19 0 29 2l35 7q75 11 127 25l82 17l82 13l3 -6l1 -6l-1 -7l-3 -6l-3 -6l-3 -5l-6 -8l-3 -7q-24 -62 -82 -86q-49 -14 -122 -25l-5 -1h-4l-52 -7q-28 -3 -49 -10q-25 0 -32 -2q-25 0 -31 -2l-56 -4l-55 -2h-27l-26 3l-27 3l-26 5q-16 9 -24 22
q-6 7 -14 31l-4 13l-1 13q0 27 15.5 45.5t34.5 33.5l3 2l22 20l19 24q0 15 -2 19v21q0 36 -5 51q-3 20 -27 35q-13 2 -21 10l-10 22q0 17 10 27l22 19l4 3l14 10l10 12l-6 125l-14 10l-15 5l-18 6q-1 1 -2 1q-6 4 -12 11q0 12 -2 15l-3 17l-2 3l-3 16l-1 13q0 12 2 15l9 13
l38 -11l12 -1h13h12h13l44 1l45 1l89 5h18h15l17 2l50 3l46 1l46 1h16l18 -1l16 -1h17zM131 159q0 8 -7 14l-15 6l-13 -3q-7 -3 -9 -8l-2 -5l-2 -7l-2 -2l-2 -9l-1 -6l2 -8l10 -5l7 -2l8 -1q9 0 17 5q6 6 9 19v4l-1 4zM333 320l-9 -1l-15 1l-14 2h-4l-14 1l-12 1
q-15 0 -25.5 -7t-10.5 -26l1 -4v-5l6 -7l6 -4l3 -1q9 0 17 4l16 10l4 2l4 3l9 5l10 3l8 5l10 3h4l13 3q2 8 2 14zM445 936l4 -24q0 -19 -7 -30q-14 -21 -39 -32q-11 -3 -21 -19l-7 -33l-37 -1l-2 17q0 25 11 42l12 16l8 10l6 11l3 7l1 9v6q-3 19 -35 19q-15 0 -28 -7l-12 -3
l-8 -1q-22 0 -22 32l1 10l1 8q32 30 57 30q42 0 68 -16q26 -12 46 -51z" />
    <glyph glyph-name="germandbls" unicode="&#xdf;" horiz-adv-x="657" 
d="M418 586l-44 10l-43 5h-16l-14 2h-4l-7 -40l-1 -39v-15l1 -15v-23q0 -17 2 -22l1 -38l1 -39l-1 -3v-4l3 -10l11 -6l5 1l16 10l17 11q48 29 88.5 67.5t53.5 98.5q-25 32 -69 49zM222 601l-7 -1l-6 -2l-6 -1l-41 -12q-22 -6 -36 -20v-5v-4l-1 -5v-4l1 -9l3 -8l16 -26
l12 -27l1 -4l2 -3l10 -25l12 -22l-5 19l-1 20v7v7v9v9l1 18l1 18q0 11 8 18l17 16l18 16q3 3 8 19v4zM294 108l6 -153l3 -15l-102 12l-3 -9l1 187zM200 153v8l-1 39l-3 39l-3 34l-3 34l-1 19q0 13 -4 24l-3 42q-33 12 -55 43l-21 29l-18 33l-3 4l-2 5l-8 15l-14 21
q-7 14 -25 35l-1 6l-1 7l-1 3v4l-2 10l-1 9v6l3 6l1 3l2 3q38 25 103 47q57 15 116 15l16 -1h18q36 0 65 -7q32 -6 67 -19q66 -18 119 -52q25 -15 47 -45l14 -27l12 -33q-6 -55 -30.5 -102.5t-75.5 -79.5v-7l19 -17l19 -16l5 -4l6 -3l22 -17l17 -18q18 -18 28 -47l3 -22
l1 -21l-1 -14l-1 -13l-3 -14l-103 -75zM422 129q30 12 53.5 30t31.5 51q-17 29 -51 44t-75 21l-10 1l-10 1q-5 -6 -14 -9q-12 0 -16 -2h-4l-15 -1q-7 0 -10 -2v-10v-10l-1 -28l-1 -26l-3 -34l-3 -35l12 -14z" />
    <glyph glyph-name="agrave" unicode="&#xe0;" horiz-adv-x="786" 
d="M415 684l41 -19l20 -11l19 -8l19 -62l19 -62l2 -8l2 -8l36 -117q18 -57 42 -114q5 -9 12 -12l17 -2h4l5 1h4h5q7 0 11 -2q6 0 10 -4l9 -6l9 -5l30 -23q14 -12 25 -32l-10 -4l-12 -1h-11l-10 2l-12 1l-12 1h-5l-4 -1q-7 3 -12 -2l-9 -9l-2 -2l10 -25l9 -25l2 -5l18 -49
q11 -23 32 -40l1 -5l1 -3q0 -8 -6 -17q-6 -6 -15 -6l-5 1l-111 17l-104 21q-108 21 -208 61h-12l-11 2h-4l-11 1h-7h-6l-2 -4l-1 -4l-9 -21l-14 -23q-14 -22 -32 -40l-6 -1h-5q-15 0 -30 6l-26 15l-12 6l-10 7l3 17l7 18l4 8l3 10l2 8l1 9v4l-1 4l-1 4l-1 4q-25 3 -45 23
q-21 18 -31 41l-1 4q12 9 30 12l35 5h12h13h18q13 0 17 2l10 24l10 25l96 217l51 107l19 38l37 68q16 -3 44 -12zM605 99l-8 20l-2 3q-3 13 -10 21q-3 9 -14 20l-30 -1l-62 -9l-90 -13l-21 -4l-21 -3q-21 0 -37 -5l-37 -5v-9l16 -4l17 -3l132 -26q66 -12 138 -12l7 -1h6
l6 -1h6l12 3l4 11zM411 510q-19 -29 -44 -80l-35 -84l-23 -58l-26 -57h28l19 4l49 8l57 9l59 4l4 1l6 1l11 3q6 3 6 11l-31 57l-20 62l-8 25l-6 18l-8 18q-9 26 -30 58h-8zM380 832l-15 -21l-151 84q-55 31 -55 55q0 14 13 28l7 12q3 7 9 10q8 0 32 -15q5 -3 13 -9
q13 -10 28 -24z" />
    <glyph glyph-name="aacute" unicode="&#xe1;" horiz-adv-x="786" 
d="M415 684l41 -19l20 -11l19 -8l19 -62l19 -62l2 -8l2 -8l36 -117q18 -57 42 -114q5 -9 12 -12l17 -2h4l5 1h4h5q7 0 11 -2q6 0 10 -4l9 -6l9 -5l30 -23q14 -12 25 -32l-10 -4l-12 -1h-11l-10 2l-12 1l-12 1h-5l-4 -1q-7 3 -12 -2l-9 -9l-2 -2l10 -25l9 -25l2 -5l18 -49
q11 -23 32 -40l1 -5l1 -3q0 -8 -6 -17q-6 -6 -15 -6l-5 1l-111 17l-104 21q-108 21 -208 61h-12l-11 2h-4l-11 1h-7h-6l-2 -4l-1 -4l-9 -21l-14 -23q-14 -22 -32 -40l-6 -1h-5q-15 0 -30 6l-26 15l-12 6l-10 7l3 17l7 18l4 8l3 10l2 8l1 9v4l-1 4l-1 4l-1 4q-25 3 -45 23
q-21 18 -31 41l-1 4q12 9 30 12l35 5h12h13h18q13 0 17 2l10 24l10 25l96 217l51 107l19 38l37 68q16 -3 44 -12zM605 99l-8 20l-2 3q-3 13 -10 21q-3 9 -14 20l-30 -1l-62 -9l-90 -13l-21 -4l-21 -3q-21 0 -37 -5l-37 -5v-9l16 -4l17 -3l132 -26q66 -12 138 -12l7 -1h6
l6 -1h6l12 3l4 11zM411 510q-19 -29 -44 -80l-35 -84l-23 -58l-26 -57h28l19 4l49 8l57 9l59 4l4 1l6 1l11 3q6 3 6 11l-31 57l-20 62l-8 25l-6 18l-8 18q-9 26 -30 58h-8zM502 796l65 136h116l-108 -136h-73z" />
    <glyph glyph-name="acircumflex" unicode="&#xe2;" horiz-adv-x="786" 
d="M415 684l41 -19l20 -11l19 -8l19 -62l19 -62l2 -8l2 -8l36 -117q18 -57 42 -114q5 -9 12 -12l17 -2h4l5 1h4h5q7 0 11 -2q6 0 10 -4l9 -6l9 -5l30 -23q14 -12 25 -32l-10 -4l-12 -1h-11l-10 2l-12 1l-12 1h-5l-4 -1q-7 3 -12 -2l-9 -9l-2 -2l10 -25l9 -25l2 -5l18 -49
q11 -23 32 -40l1 -5l1 -3q0 -8 -6 -17q-6 -6 -15 -6l-5 1l-111 17l-104 21q-108 21 -208 61h-12l-11 2h-4l-11 1h-7h-6l-2 -4l-1 -4l-9 -21l-14 -23q-14 -22 -32 -40l-6 -1h-5q-15 0 -30 6l-26 15l-12 6l-10 7l3 17l7 18l4 8l3 10l2 8l1 9v4l-1 4l-1 4l-1 4q-25 3 -45 23
q-21 18 -31 41l-1 4q12 9 30 12l35 5h12h13h18q13 0 17 2l10 24l10 25l96 217l51 107l19 38l37 68q16 -3 44 -12zM605 99l-8 20l-2 3q-3 13 -10 21q-3 9 -14 20l-30 -1l-62 -9l-90 -13l-21 -4l-21 -3q-21 0 -37 -5l-37 -5v-9l16 -4l17 -3l132 -26q66 -12 138 -12l7 -1h6
l6 -1h6l12 3l4 11zM411 510q-19 -29 -44 -80l-35 -84l-23 -58l-26 -57h28l19 4l49 8l57 9l59 4l4 1l6 1l11 3q6 3 6 11l-31 57l-20 62l-8 25l-6 18l-8 18q-9 26 -30 58h-8zM432 822l-56 -83h-100l105 136h94l110 -136h-100z" />
    <glyph glyph-name="atilde" unicode="&#xe3;" horiz-adv-x="786" 
d="M415 684l41 -19l20 -11l19 -8l19 -62l19 -62l2 -8l2 -8l36 -117q18 -57 42 -114q5 -9 12 -12l17 -2h4l5 1h4h5q7 0 11 -2q6 0 10 -4l9 -6l9 -5l30 -23q14 -12 25 -32l-10 -4l-12 -1h-11l-10 2l-12 1l-12 1h-5l-4 -1q-7 3 -12 -2l-9 -9l-2 -2l10 -25l9 -25l2 -5l18 -49
q11 -23 32 -40l1 -5l1 -3q0 -8 -6 -17q-6 -6 -15 -6l-5 1l-111 17l-104 21q-108 21 -208 61h-12l-11 2h-4l-11 1h-7h-6l-2 -4l-1 -4l-9 -21l-14 -23q-14 -22 -32 -40l-6 -1h-5q-15 0 -30 6l-26 15l-12 6l-10 7l3 17l7 18l4 8l3 10l2 8l1 9v4l-1 4l-1 4l-1 4q-25 3 -45 23
q-21 18 -31 41l-1 4q12 9 30 12l35 5h12h13h18q13 0 17 2l10 24l10 25l96 217l51 107l19 38l37 68q16 -3 44 -12zM605 99l-8 20l-2 3q-3 13 -10 21q-3 9 -14 20l-30 -1l-62 -9l-90 -13l-21 -4l-21 -3q-21 0 -37 -5l-37 -5v-9l16 -4l17 -3l132 -26q66 -12 138 -12l7 -1h6
l6 -1h6l12 3l4 11zM411 510q-19 -29 -44 -80l-35 -84l-23 -58l-26 -57h28l19 4l49 8l57 9l59 4l4 1l6 1l11 3q6 3 6 11l-31 57l-20 62l-8 25l-6 18l-8 18q-9 26 -30 58h-8zM592 900l20 -11q-25 -51 -44 -69q-28 -26 -60 -26q-12 0 -27.5 3.5t-52.5 15.5q-60 19 -80 19
q-23 0 -38 -10.5t-34 -40.5l-19 13q23 48 46 73q25 25 66 25q30 0 85.5 -19t70.5 -19q17 0 32 9z" />
    <glyph glyph-name="adieresis" unicode="&#xe4;" horiz-adv-x="786" 
d="M415 684l41 -19l20 -11l19 -8l19 -62l19 -62l2 -8l2 -8l36 -117q18 -57 42 -114q5 -9 12 -12l17 -2h4l5 1h4h5q7 0 11 -2q6 0 10 -4l9 -6l9 -5l30 -23q14 -12 25 -32l-10 -4l-12 -1h-11l-10 2l-12 1l-12 1h-5l-4 -1q-7 3 -12 -2l-9 -9l-2 -2l10 -25l9 -25l2 -5l18 -49
q11 -23 32 -40l1 -5l1 -3q0 -8 -6 -17q-6 -6 -15 -6l-5 1l-111 17l-104 21q-108 21 -208 61h-12l-11 2h-4l-11 1h-7h-6l-2 -4l-1 -4l-9 -21l-14 -23q-14 -22 -32 -40l-6 -1h-5q-15 0 -30 6l-26 15l-12 6l-10 7l3 17l7 18l4 8l3 10l2 8l1 9v4l-1 4l-1 4l-1 4q-25 3 -45 23
q-21 18 -31 41l-1 4q12 9 30 12l35 5h12h13h18q13 0 17 2l10 24l10 25l96 217l51 107l19 38l37 68q16 -3 44 -12zM605 99l-8 20l-2 3q-3 13 -10 21q-3 9 -14 20l-30 -1l-62 -9l-90 -13l-21 -4l-21 -3q-21 0 -37 -5l-37 -5v-9l16 -4l17 -3l132 -26q66 -12 138 -12l7 -1h6
l6 -1h6l12 3l4 11zM411 510q-19 -29 -44 -80l-35 -84l-23 -58l-26 -57h28l19 4l49 8l57 9l59 4l4 1l6 1l11 3q6 3 6 11l-31 57l-20 62l-8 25l-6 18l-8 18q-9 26 -30 58h-8zM561 932l4 -24q0 -19 -7 -30q-14 -21 -39 -32q-11 -3 -21 -19l-7 -33l-37 -1l-2 17q0 25 11 42
l12 16l8 10l6 11l3 7l1 9v6q-3 19 -35 19q-15 0 -28 -7l-12 -3l-8 -1q-22 0 -22 32l1 10l1 8q32 30 57 30q42 0 68 -16q26 -12 46 -51z" />
    <glyph glyph-name="aring" unicode="&#xe5;" horiz-adv-x="786" 
d="M415 684l41 -19l20 -11l19 -8l19 -62l19 -62l2 -8l2 -8l36 -117q18 -57 42 -114q5 -9 12 -12l17 -2h4l5 1h4h5q7 0 11 -2q6 0 10 -4l9 -6l9 -5l30 -23q14 -12 25 -32l-10 -4l-12 -1h-11l-10 2l-12 1l-12 1h-5l-4 -1q-7 3 -12 -2l-9 -9l-2 -2l10 -25l9 -25l2 -5l18 -49
q11 -23 32 -40l1 -5l1 -3q0 -8 -6 -17q-6 -6 -15 -6l-5 1l-111 17l-104 21q-108 21 -208 61h-12l-11 2h-4l-11 1h-7h-6l-2 -4l-1 -4l-9 -21l-14 -23q-14 -22 -32 -40l-6 -1h-5q-15 0 -30 6l-26 15l-12 6l-10 7l3 17l7 18l4 8l3 10l2 8l1 9v4l-1 4l-1 4l-1 4q-25 3 -45 23
q-21 18 -31 41l-1 4q12 9 30 12l35 5h12h13h18q13 0 17 2l10 24l10 25l96 217l51 107l19 38l37 68q16 -3 44 -12zM605 99l-8 20l-2 3q-3 13 -10 21q-3 9 -14 20l-30 -1l-62 -9l-90 -13l-21 -4l-21 -3q-21 0 -37 -5l-37 -5v-9l16 -4l17 -3l132 -26q66 -12 138 -12l7 -1h6
l6 -1h6l12 3l4 11zM411 510q-19 -29 -44 -80l-35 -84l-23 -58l-26 -57h28l19 4l49 8l57 9l59 4l4 1l6 1l11 3q6 3 6 11l-31 57l-20 62l-8 25l-6 18l-8 18q-9 26 -30 58h-8zM513 -99q8 -16 8 -34q0 -45 -40 -66q-16 -8 -35 -8q-20 0 -35.5 9.5t-27.5 26.5q-10 18 -10 37
q0 45 40 67q16 8 34 8q45 0 66 -40z" />
    <glyph glyph-name="ae" unicode="&#xe6;" horiz-adv-x="786" 
d="M415 684l41 -19l20 -11l19 -8l19 -62l19 -62l2 -8l2 -8l36 -117q18 -57 42 -114q5 -9 12 -12l17 -2h4l5 1h4h5q7 0 11 -2q6 0 10 -4l9 -6l9 -5l30 -23q14 -12 25 -32l-10 -4l-12 -1h-11l-10 2l-12 1l-12 1h-5l-4 -1q-7 3 -12 -2l-9 -9l-2 -2l10 -25l9 -25l2 -5l18 -49
q11 -23 32 -40l1 -5l1 -3q0 -8 -6 -17q-6 -6 -15 -6l-5 1l-111 17l-104 21q-108 21 -208 61h-12l-11 2h-4l-11 1h-7h-6l-2 -4l-1 -4l-9 -21l-14 -23q-14 -22 -32 -40l-6 -1h-5q-15 0 -30 6l-26 15l-12 6l-10 7l3 17l7 18l4 8l3 10l2 8l1 9v4l-1 4l-1 4l-1 4q-25 3 -45 23
q-21 18 -31 41l-1 4q12 9 30 12l35 5h12h13h18q13 0 17 2l10 24l10 25l96 217l51 107l19 38l37 68q16 -3 44 -12zM605 99l-8 20l-2 3q-3 13 -10 21q-3 9 -14 20l-30 -1l-62 -9l-90 -13l-21 -4l-21 -3q-21 0 -37 -5l-37 -5v-9l16 -4l17 -3l132 -26q66 -12 138 -12l7 -1h6
l6 -1h6l12 3l4 11zM411 510q-19 -29 -44 -80l-35 -84l-23 -58l-26 -57h28l19 4l49 8l57 9l59 4l4 1l6 1l11 3q6 3 6 11l-31 57l-20 62l-8 25l-6 18l-8 18q-9 26 -30 58h-8zM431 751q-78 0 -110 36q-27 36 -27 100h24q3 -24 28 -49q25 -22 85 -22q57 0 86 23q24 24 27 48h24
q0 -37 -9 -66t-40 -51q-33 -19 -88 -19z" />
    <glyph glyph-name="ccedilla" unicode="&#xe7;" horiz-adv-x="587" 
d="M440 690h5q25 0 46 -14q17 -9 37 -33q-6 -2 -10 -8l-4 -12q0 -10 2 -12l6 -13l2 -3l4 -8l3 -8l5 -20l1 -20v-20l-5 -21l-9 -24q-21 -28 -50 -49q-19 -15 -64 -26q8 14 12 33l4 28l1 15v7l-1 8q0 12 -2 15l-3 15q-6 18 -23 35l-15 14l-17 13q-102 -60 -167.5 -166
t-65.5 -223v-15l1 -15l19 -11l30 -10q13 -3 20 -4t23 -1h20l21 3q14 0 29 4l29 5l23 5l23 4q36 6 68 25l26 17l33 24l22 17l24 17l3 1l11 -5l4 -10l-1 -6l-3 -5q-12 -64 -56 -119t-110 -89q-24 -9 -54 -15l-57 -9l-17 -1h-16q-41 0 -78.5 9t-72.5 37q-31 40 -53 100l-12 54
l-4 56l1 31l3 32l12 63l18 63l7 14l8 14q12 24 27 45q5 8 15 21.5t20 23.5q36 46 89 66l2 3l3 2l6 5l1 7q-3 5 -12 6l-12 1l-14 2q-6 0 -11 5q12 8 33 18q9 4 27 11l33 5l34 2l19 -1l20 -1l12 -1l13 -1q23 0 27 -2l26 -1zM312 -68l4 -20q0 -34 -38.5 -78t-67.5 -44
q-18 0 -21 13l-3 17q0 16 17 44t17 45q0 15 -13.5 36t-12.5 37q3 19 25 19q21 0 51 -21t42 -48z" />
    <glyph glyph-name="egrave" unicode="&#xe8;" horiz-adv-x="722" 
d="M609 683l14 -26l7 -28l-1 -6l-1 -4q0 -12 -10 -21l-21 -13l-5 -2h-4l-326 -115q21 14 45 24l52 21l11 4l12 5l57 24q27 12 52 31l-1 5l-7 8l-10 4l-40 -3l-41 -3l-85 -6l-85 -3l-2 -4v-7v-9l1 -5l2 -8l2 -8l3 -14l2 -15l-2 -11l-3 -11v-4q0 -6 4 -13l12 -5l-2 -4l-3 -5
l-3 -5l-1 -4l-2 -4v-4l2 -7l9 -5h20h17l17 2l55 4h6l7 1l61 3l62 2l48 -1l25 -1q13 0 22 -3.5t13 -11.5l2 -15l2 -14q0 -6 5 -10q-28 -28 -70 -43l-82 -16l-3 -1l-63 -12q-25 -6 -55 -21l-18 -9l-20 -6q-21 -3 -35 -13q-16 -6 -24 -26l1 -8v-8l-1 -12v-11l-1 -12v-12l3 -28
q3 -13 13 -21h9h8h27h24l14 2q19 0 29 2l35 7q75 11 127 25l82 17l82 13l3 -6l1 -6l-1 -7l-3 -6l-3 -6l-3 -5l-6 -8l-3 -7q-24 -62 -82 -86q-49 -14 -122 -25l-5 -1h-4l-52 -7q-28 -3 -49 -10q-25 0 -32 -2q-25 0 -31 -2l-56 -4l-55 -2h-27l-26 3l-27 3l-26 5q-16 9 -24 22
q-6 7 -14 31l-4 13l-1 13q0 27 15.5 45.5t34.5 33.5l3 2l22 20l19 24q0 15 -2 19v21q0 36 -5 51q-3 20 -27 35q-13 2 -21 10l-10 22q0 17 10 27l22 19l4 3l14 10l10 12l-6 125l-14 10l-15 5l-18 6q-1 1 -2 1q-6 4 -12 11q0 12 -2 15l-3 17l-2 3l-3 16l-1 13q0 12 2 15l9 13
l38 -11l12 -1h13h12h13l44 1l45 1l89 5h18h15l17 2l50 3l46 1l46 1h16l18 -1l16 -1h17zM131 159q0 8 -7 14l-15 6l-13 -3q-7 -3 -9 -8l-2 -5l-2 -7l-2 -2l-2 -9l-1 -6l2 -8l10 -5l7 -2l8 -1q9 0 17 5q6 6 9 19v4l-1 4zM333 320l-9 -1l-15 1l-14 2h-4l-14 1l-12 1
q-15 0 -25.5 -7t-10.5 -26l1 -4v-5l6 -7l6 -4l3 -1q9 0 17 4l16 10l4 2l4 3l9 5l10 3l8 5l10 3h4l13 3q2 8 2 14zM344 820l-15 -21l-151 84q-55 31 -55 55q0 14 13.5 28t24.5 15q23 0 64 -41z" />
    <glyph glyph-name="eacute" unicode="&#xe9;" horiz-adv-x="722" 
d="M609 683l14 -26l7 -28l-1 -6l-1 -4q0 -12 -10 -21l-21 -13l-5 -2h-4l-326 -115q21 14 45 24l52 21l11 4l12 5l57 24q27 12 52 31l-1 5l-7 8l-10 4l-40 -3l-41 -3l-85 -6l-85 -3l-2 -4v-7v-9l1 -5l2 -8l2 -8l3 -14l2 -15l-2 -11l-3 -11v-4q0 -6 4 -13l12 -5l-2 -4l-3 -5
l-3 -5l-1 -4l-2 -4v-4l2 -7l9 -5h20h17l17 2l55 4h6l7 1l61 3l62 2l48 -1l25 -1q13 0 22 -3.5t13 -11.5l2 -15l2 -14q0 -6 5 -10q-28 -28 -70 -43l-82 -16l-3 -1l-63 -12q-25 -6 -55 -21l-18 -9l-20 -6q-21 -3 -35 -13q-16 -6 -24 -26l1 -8v-8l-1 -12v-11l-1 -12v-12l3 -28
q3 -13 13 -21h9h8h27h24l14 2q19 0 29 2l35 7q75 11 127 25l82 17l82 13l3 -6l1 -6l-1 -7l-3 -6l-3 -6l-3 -5l-6 -8l-3 -7q-24 -62 -82 -86q-49 -14 -122 -25l-5 -1h-4l-52 -7q-28 -3 -49 -10q-25 0 -32 -2q-25 0 -31 -2l-56 -4l-55 -2h-27l-26 3l-27 3l-26 5q-16 9 -24 22
q-6 7 -14 31l-4 13l-1 13q0 27 15.5 45.5t34.5 33.5l3 2l22 20l19 24q0 15 -2 19v21q0 36 -5 51q-3 20 -27 35q-13 2 -21 10l-10 22q0 17 10 27l22 19l4 3l14 10l10 12l-6 125l-14 10l-15 5l-18 6q-1 1 -2 1q-6 4 -12 11q0 12 -2 15l-3 17l-2 3l-3 16l-1 13q0 12 2 15l9 13
l38 -11l12 -1h13h12h13l44 1l45 1l89 5h18h15l17 2l50 3l46 1l46 1h16l18 -1l16 -1h17zM131 159q0 8 -7 14l-15 6l-13 -3q-7 -3 -9 -8l-2 -5l-2 -7l-2 -2l-2 -9l-1 -6l2 -8l10 -5l7 -2l8 -1q9 0 17 5q6 6 9 19v4l-1 4zM333 320l-9 -1l-15 1l-14 2h-4l-14 1l-12 1
q-15 0 -25.5 -7t-10.5 -26l1 -4v-5l6 -7l6 -4l3 -1q9 0 17 4l16 10l4 2l4 3l9 5l10 3l8 5l10 3h4l13 3q2 8 2 14zM421 807l-15 20l119 120q41 41 64 41q12 0 26 -14q9 -11 13 -29q0 -25 -56 -54z" />
    <glyph glyph-name="ecircumflex" unicode="&#xea;" horiz-adv-x="722" 
d="M609 683l14 -26l7 -28l-1 -6l-1 -4q0 -12 -10 -21l-21 -13l-5 -2h-4l-326 -115q21 14 45 24l52 21l11 4l12 5l57 24q27 12 52 31l-1 5l-7 8l-10 4l-40 -3l-41 -3l-85 -6l-85 -3l-2 -4v-7v-9l1 -5l2 -8l2 -8l3 -14l2 -15l-2 -11l-3 -11v-4q0 -6 4 -13l12 -5l-2 -4l-3 -5
l-3 -5l-1 -4l-2 -4v-4l2 -7l9 -5h20h17l17 2l55 4h6l7 1l61 3l62 2l48 -1l25 -1q13 0 22 -3.5t13 -11.5l2 -15l2 -14q0 -6 5 -10q-28 -28 -70 -43l-82 -16l-3 -1l-63 -12q-25 -6 -55 -21l-18 -9l-20 -6q-21 -3 -35 -13q-16 -6 -24 -26l1 -8v-8l-1 -12v-11l-1 -12v-12l3 -28
q3 -13 13 -21h9h8h27h24l14 2q19 0 29 2l35 7q75 11 127 25l82 17l82 13l3 -6l1 -6l-1 -7l-3 -6l-3 -6l-3 -5l-6 -8l-3 -7q-24 -62 -82 -86q-49 -14 -122 -25l-5 -1h-4l-52 -7q-28 -3 -49 -10q-25 0 -32 -2q-25 0 -31 -2l-56 -4l-55 -2h-27l-26 3l-27 3l-26 5q-16 9 -24 22
q-6 7 -14 31l-4 13l-1 13q0 27 15.5 45.5t34.5 33.5l3 2l22 20l19 24q0 15 -2 19v21q0 36 -5 51q-3 20 -27 35q-13 2 -21 10l-10 22q0 17 10 27l22 19l4 3l14 10l10 12l-6 125l-14 10l-15 5l-18 6q-1 1 -2 1q-6 4 -12 11q0 12 -2 15l-3 17l-2 3l-3 16l-1 13q0 12 2 15l9 13
l38 -11l12 -1h13h12h13l44 1l45 1l89 5h18h15l17 2l50 3l46 1l46 1h16l18 -1l16 -1h17zM131 159q0 8 -7 14l-15 6l-13 -3q-7 -3 -9 -8l-2 -5l-2 -7l-2 -2l-2 -9l-1 -6l2 -8l10 -5l7 -2l8 -1q9 0 17 5q6 6 9 19v4l-1 4zM333 320l-9 -1l-15 1l-14 2h-4l-14 1l-12 1
q-15 0 -25.5 -7t-10.5 -26l1 -4v-5l6 -7l6 -4l3 -1q9 0 17 4l16 10l4 2l4 3l9 5l10 3l8 5l10 3h4l13 3q2 8 2 14zM333 825l-56 -83h-100l105 136h94l110 -136h-100z" />
    <glyph glyph-name="edieresis" unicode="&#xeb;" horiz-adv-x="722" 
d="M609 683l14 -26l7 -28l-1 -6l-1 -4q0 -12 -10 -21l-21 -13l-5 -2h-4l-326 -115q21 14 45 24l52 21l11 4l12 5l57 24q27 12 52 31l-1 5l-7 8l-10 4l-40 -3l-41 -3l-85 -6l-85 -3l-2 -4v-7v-9l1 -5l2 -8l2 -8l3 -14l2 -15l-2 -11l-3 -11v-4q0 -6 4 -13l12 -5l-2 -4l-3 -5
l-3 -5l-1 -4l-2 -4v-4l2 -7l9 -5h20h17l17 2l55 4h6l7 1l61 3l62 2l48 -1l25 -1q13 0 22 -3.5t13 -11.5l2 -15l2 -14q0 -6 5 -10q-28 -28 -70 -43l-82 -16l-3 -1l-63 -12q-25 -6 -55 -21l-18 -9l-20 -6q-21 -3 -35 -13q-16 -6 -24 -26l1 -8v-8l-1 -12v-11l-1 -12v-12l3 -28
q3 -13 13 -21h9h8h27h24l14 2q19 0 29 2l35 7q75 11 127 25l82 17l82 13l3 -6l1 -6l-1 -7l-3 -6l-3 -6l-3 -5l-6 -8l-3 -7q-24 -62 -82 -86q-49 -14 -122 -25l-5 -1h-4l-52 -7q-28 -3 -49 -10q-25 0 -32 -2q-25 0 -31 -2l-56 -4l-55 -2h-27l-26 3l-27 3l-26 5q-16 9 -24 22
q-6 7 -14 31l-4 13l-1 13q0 27 15.5 45.5t34.5 33.5l3 2l22 20l19 24q0 15 -2 19v21q0 36 -5 51q-3 20 -27 35q-13 2 -21 10l-10 22q0 17 10 27l22 19l4 3l14 10l10 12l-6 125l-14 10l-15 5l-18 6q-1 1 -2 1q-6 4 -12 11q0 12 -2 15l-3 17l-2 3l-3 16l-1 13q0 12 2 15l9 13
l38 -11l12 -1h13h12h13l44 1l45 1l89 5h18h15l17 2l50 3l46 1l46 1h16l18 -1l16 -1h17zM131 159q0 8 -7 14l-15 6l-13 -3q-7 -3 -9 -8l-2 -5l-2 -7l-2 -2l-2 -9l-1 -6l2 -8l10 -5l7 -2l8 -1q9 0 17 5q6 6 9 19v4l-1 4zM333 320l-9 -1l-15 1l-14 2h-4l-14 1l-12 1
q-15 0 -25.5 -7t-10.5 -26l1 -4v-5l6 -7l6 -4l3 -1q9 0 17 4l16 10l4 2l4 3l9 5l10 3l8 5l10 3h4l13 3q2 8 2 14zM150 804q0 48 27.5 79.5t72.5 31.5q14 0 34 -7q16 -4 23.5 -7.5t25.5 -12.5q28 -14 45 -14q16 0 24 8.5t12 34.5h63q0 -26 -6 -46l-10 -23l-12 -15
q-28 -28 -68 -28q-31 0 -81 28q-26 14 -48 17q-12 0 -24.5 -11.5t-12.5 -34.5h-65z" />
    <glyph glyph-name="igrave" unicode="&#xec;" horiz-adv-x="193" 
d="M60 690l14 -6l2 -2l3 -1l38 -21q14 -7 26 -33l8 -109l5 -111l1 -45l1 -47l1 -45l1 -46l3 -2l3 -2l6 -3l6 -1l6 1q0 -16 -4 -29l-8 -28l-4 -10l-3 -10l-4 -18l-2 -19l1 -17l6 -16l-2 -13v-15q0 -16 -3.5 -29t-25.5 -13q-31 0 -68.5 15t-57.5 44q10 28 19 71l4 33l1 41
l-1 38v14v11l-2 13l-1 55l-1 56l-3 109l-1 40v23q-3 17 -4 25l-3 54l-5 34q0 9 7 12l15 5l7 1l7 2zM57 817l-15 -20l-151 84q-56 30 -56 54q0 13 14 28q12 15 25 15q23 0 64 -41z" />
    <glyph glyph-name="iacute" unicode="&#xed;" horiz-adv-x="193" 
d="M60 690l14 -6l2 -2l3 -1l38 -21q14 -7 26 -33l8 -109l5 -111l1 -45l1 -47l1 -45l1 -46l3 -2l3 -2l6 -3l6 -1l6 1q0 -16 -4 -29l-8 -28l-4 -10l-3 -10l-4 -18l-2 -19l1 -17l6 -16l-2 -13v-15q0 -16 -3.5 -29t-25.5 -13q-31 0 -68.5 15t-57.5 44q10 28 19 71l4 33l1 41
l-1 38v14v11l-2 13l-1 55l-1 56l-3 109l-1 40v23q-3 17 -4 25l-3 54l-5 34q0 9 7 12l15 5l7 1l7 2zM156 803l-15 20l119 120q39 41 64 41q11 0 25 -13t14 -30q0 -22 -56 -54z" />
    <glyph glyph-name="icircumflex" unicode="&#xee;" horiz-adv-x="193" 
d="M60 690l14 -6l2 -2l3 -1l38 -21q14 -7 26 -33l8 -109l5 -111l1 -45l1 -47l1 -45l1 -46l3 -2l3 -2l6 -3l6 -1l6 1q0 -16 -4 -29l-8 -28l-4 -10l-3 -10l-4 -18l-2 -19l1 -17l6 -16l-2 -13v-15q0 -16 -3.5 -29t-25.5 -13q-31 0 -68.5 15t-57.5 44q10 28 19 71l4 33l1 41
l-1 38v14v11l-2 13l-1 55l-1 56l-3 109l-1 40v23q-3 17 -4 25l-3 54l-5 34q0 9 7 12l15 5l7 1l7 2zM88 834l-56 -83h-100l105 136h94l110 -136h-100z" />
    <glyph glyph-name="idieresis" unicode="&#xef;" horiz-adv-x="193" 
d="M60 690l14 -6l2 -2l3 -1l38 -21q14 -7 26 -33l8 -109l5 -111l1 -45l1 -47l1 -45l1 -46l3 -2l3 -2l6 -3l6 -1l6 1q0 -16 -4 -29l-8 -28l-4 -10l-3 -10l-4 -18l-2 -19l1 -17l6 -16l-2 -13v-15q0 -16 -3.5 -29t-25.5 -13q-31 0 -68.5 15t-57.5 44q10 28 19 71l4 33l1 41
l-1 38v14v11l-2 13l-1 55l-1 56l-3 109l-1 40v23q-3 17 -4 25l-3 54l-5 34q0 9 7 12l15 5l7 1l7 2zM254 965l20 -10q-25 -52 -44 -69q-29 -27 -60 -27l-27 4l-50 15q-63 19 -83 19q-25 0 -39 -10q-17 -14 -33 -40l-19 12q23 45 46 73q24 26 66 26q16 0 32 -4t50 -16
q51 -16 73 -19q19 0 30.5 8.5t37.5 37.5z" />
    <glyph glyph-name="eth" unicode="&#xf0;" horiz-adv-x="786" 
d="M415 684l41 -19l20 -11l19 -8l19 -62l19 -62l2 -8l2 -8l36 -117q18 -57 42 -114q5 -9 12 -12l17 -2h4l5 1h4h5q7 0 11 -2q6 0 10 -4l9 -6l9 -5l30 -23q14 -12 25 -32l-10 -4l-12 -1h-11l-10 2l-12 1l-12 1h-5l-4 -1q-7 3 -12 -2l-9 -9l-2 -2l10 -25l9 -25l2 -5l18 -49
q11 -23 32 -40l1 -5l1 -3q0 -8 -6 -17q-6 -6 -15 -6l-5 1l-111 17l-104 21q-108 21 -208 61h-12l-11 2h-4l-11 1h-7h-6l-2 -4l-1 -4l-9 -21l-14 -23q-14 -22 -32 -40l-6 -1h-5q-15 0 -30 6l-26 15l-12 6l-10 7l3 17l7 18l4 8l3 10l2 8l1 9v4l-1 4l-1 4l-1 4q-25 3 -45 23
q-21 18 -31 41l-1 4q12 9 30 12l35 5h12h13h18q13 0 17 2l10 24l10 25l96 217l51 107l19 38l37 68q16 -3 44 -12zM605 99l-8 20l-2 3q-3 13 -10 21q-3 9 -14 20l-30 -1l-62 -9l-90 -13l-21 -4l-21 -3q-21 0 -37 -5l-37 -5v-9l16 -4l17 -3l132 -26q66 -12 138 -12l7 -1h6
l6 -1h6l12 3l4 11zM411 510q-19 -29 -44 -80l-35 -84l-23 -58l-26 -57h28l19 4l49 8l57 9l59 4l4 1l6 1l11 3q6 3 6 11l-31 57l-20 62l-8 25l-6 18l-8 18q-9 26 -30 58h-8zM431 751q-78 0 -110 36q-27 36 -27 100h24q3 -24 28 -49q25 -22 85 -22q57 0 86 23q24 24 27 48h24
q0 -37 -9 -66t-40 -51q-33 -19 -88 -19zM568 1052l20 -11q-25 -51 -44 -69q-28 -26 -60 -26q-12 0 -27.5 3.5t-52.5 15.5q-60 19 -80 19q-23 0 -38 -10.5t-34 -40.5l-19 13q23 48 46 73q25 25 66 25q30 0 85.5 -19t70.5 -19q17 0 32 9z" />
    <glyph glyph-name="ntilde" unicode="&#xf1;" horiz-adv-x="679" 
d="M275 285l13 -38l-2 -13l-1 -19q0 -9 -4 -20l-6 -12l-7 -11l-2 -4l-2 -3l-9 -16l-3 -15l1 -4l1 -5h8l8 1q46 0 87 11.5t94 36.5q87 42 132 126q-12 97 -85 159.5t-160 92.5l-19 6l-18 6l-12 -6l-7 -32l-3 -32l-1 -16v-16l1 -47v-65h-4h81v-65h-81zM100 418l-5 13l-10 18
l-10 20l-31 62l-8 27l-5 39q0 20 2 25l9 26q35 22 82 37l43 8l47 3l21 -1l21 -1q25 0 35.5 -1.5t35 -7.5t64.5 -23q66 -24 120 -57q30 -21 55 -55l44 -65l7 -14l7 -12v-5l2 -14l6 -12l5 -14l3 -13l-1 -5l-1 -6v-5v-4l-1 -5v-4l1 -22q0 -17 2 -21l2 -13l2 -13q0 -15 2 -18
l3 -18q-15 -82 -66.5 -140.5t-130.5 -100.5l-69 -18l-38 -5l-38 -3h-8h-7q-44 0 -79 7l-22 3q-3 1 -7.5 1.5t-12.5 3.5t-30 15q-19 14 -44 48q-11 21 -22 58h5q12 0 16 -2l17 -5l3 -2h4l13 -4l14 -1l15 3q8 3 15 13q0 12 -2 15v16q0 4 1.5 30.5t1.5 34.5q0 28 -5 51l-4 6
q0 -1 -2 -6h-87v65h85l-3 62v21l1 22v21q0 17 2 21q0 12 5 17l11 13l5 6l5 6l4 7l2 8l-1 6l-4 6h-5q-32 -3 -54 -17q-20 -8 -38 -39l8 -32l12 -30l2 -6l2 -5l12 -36l-14 4q-5 3 -17 13z" />
    <glyph glyph-name="ograve" unicode="&#xf2;" 
d="M517 635q31 -28 71 -76q23 -37 41 -101l12 -57l4 -27l1 -27v-7v-7q0 -45 -9 -90.5t-28 -80.5q-11 -17 -36 -31q-3 -1 -16.5 -4.5t-26.5 -6.5l-8 -1h-7h-4h-4l-9 -15l-6 -17l-1 -4l-4 -12l-8 -16q-3 -8 -19 -17q-19 -14 -62 -29q-33 -9 -68 -9h-6h-5h-16h-11q-7 2 -10 2
l-26 6l-22 7q-33 10 -74 36q-63 48 -96 120t-33 154v22l4 31l3 27l8 26q18 62 59 121.5t105 94.5q11 6 23 9l26 4l5 1q18 0 38 6t35 28l13 1h14h8l9 -1q13 0 26 -4q13 -2 25 -7q45 -14 85 -49zM489 455l-8 17l-24 39q-10 19 -29 39q-28 36 -85 47q-102 -48 -144 -145
q-17 -43 -31 -100q-5 -24 -8 -52.5t-3 -56.5q9 -22 29 -40l40 -32l14 -10l14 -10q17 -9 37 -15l40 -4h5h5q19 0 31.5 2t29.5 9q31 9 54 25l5 12l1 13l-2 17l-5 17l-5 19l-2 18l1 7l1 6q12 -9 19 -26l10 -33l1 -6l7 -25l12 -22h4l9 37l6 39l2 25l1 26q0 35 -6 73.5t-18 73.5z
M417 811l-15 -20l-151 84q-55 31 -55 54q0 14 12 27t26 16q23 0 64 -41z" />
    <glyph glyph-name="oacute" unicode="&#xf3;" 
d="M517 635q31 -28 71 -76q23 -37 41 -101l12 -57l4 -27l1 -27v-7v-7q0 -45 -9 -90.5t-28 -80.5q-11 -17 -36 -31q-3 -1 -16.5 -4.5t-26.5 -6.5l-8 -1h-7h-4h-4l-9 -15l-6 -17l-1 -4l-4 -12l-8 -16q-3 -8 -19 -17q-19 -14 -62 -29q-33 -9 -68 -9h-6h-5h-16h-11q-7 2 -10 2
l-26 6l-22 7q-33 10 -74 36q-63 48 -96 120t-33 154v22l4 31l3 27l8 26q18 62 59 121.5t105 94.5q11 6 23 9l26 4l5 1q18 0 38 6t35 28l13 1h14h8l9 -1q13 0 26 -4q13 -2 25 -7q45 -14 85 -49zM489 455l-8 17l-24 39q-10 19 -29 39q-28 36 -85 47q-102 -48 -144 -145
q-17 -43 -31 -100q-5 -24 -8 -52.5t-3 -56.5q9 -22 29 -40l40 -32l14 -10l14 -10q17 -9 37 -15l40 -4h5h5q19 0 31.5 2t29.5 9q31 9 54 25l5 12l1 13l-2 17l-5 17l-5 19l-2 18l1 7l1 6q12 -9 19 -26l10 -33l1 -6l7 -25l12 -22h4l9 37l6 39l2 25l1 26q0 35 -6 73.5t-18 73.5z
M335 757l-10 22l145 99l36 22l29 5q11 -3 21 -19.5t10 -32.5q0 -12 -13 -22l-48 -18z" />
    <glyph glyph-name="ocircumflex" unicode="&#xf4;" 
d="M517 635q31 -28 71 -76q23 -37 41 -101l12 -57l4 -27l1 -27v-7v-7q0 -45 -9 -90.5t-28 -80.5q-11 -17 -36 -31q-3 -1 -16.5 -4.5t-26.5 -6.5l-8 -1h-7h-4h-4l-9 -15l-6 -17l-1 -4l-4 -12l-8 -16q-3 -8 -19 -17q-19 -14 -62 -29q-33 -9 -68 -9h-6h-5h-16h-11q-7 2 -10 2
l-26 6l-22 7q-33 10 -74 36q-63 48 -96 120t-33 154v22l4 31l3 27l8 26q18 62 59 121.5t105 94.5q11 6 23 9l26 4l5 1q18 0 38 6t35 28l13 1h14h8l9 -1q13 0 26 -4q13 -2 25 -7q45 -14 85 -49zM489 455l-8 17l-24 39q-10 19 -29 39q-28 36 -85 47q-102 -48 -144 -145
q-17 -43 -31 -100q-5 -24 -8 -52.5t-3 -56.5q9 -22 29 -40l40 -32l14 -10l14 -10q17 -9 37 -15l40 -4h5h5q19 0 31.5 2t29.5 9q31 9 54 25l5 12l1 13l-2 17l-5 17l-5 19l-2 18l1 7l1 6q12 -9 19 -26l10 -33l1 -6l7 -25l12 -22h4l9 37l6 39l2 25l1 26q0 35 -6 73.5t-18 73.5z
M363 834l-55 -83h-101l106 137h94l109 -137h-99z" />
    <glyph glyph-name="otilde" unicode="&#xf5;" 
d="M517 635q31 -28 71 -76q23 -37 41 -101l12 -57l4 -27l1 -27v-7v-7q0 -45 -9 -90.5t-28 -80.5q-11 -17 -36 -31q-3 -1 -16.5 -4.5t-26.5 -6.5l-8 -1h-7h-4h-4l-9 -15l-6 -17l-1 -4l-4 -12l-8 -16q-3 -8 -19 -17q-19 -14 -62 -29q-33 -9 -68 -9h-6h-5h-16h-11q-7 2 -10 2
l-26 6l-22 7q-33 10 -74 36q-63 48 -96 120t-33 154v22l4 31l3 27l8 26q18 62 59 121.5t105 94.5q11 6 23 9l26 4l5 1q18 0 38 6t35 28l13 1h14h8l9 -1q13 0 26 -4q13 -2 25 -7q45 -14 85 -49zM489 455l-8 17l-24 39q-10 19 -29 39q-28 36 -85 47q-102 -48 -144 -145
q-17 -43 -31 -100q-5 -24 -8 -52.5t-3 -56.5q9 -22 29 -40l40 -32l14 -10l14 -10q17 -9 37 -15l40 -4h5h5q19 0 31.5 2t29.5 9q31 9 54 25l5 12l1 13l-2 17l-5 17l-5 19l-2 18l1 7l1 6q12 -9 19 -26l10 -33l1 -6l7 -25l12 -22h4l9 37l6 39l2 25l1 26q0 35 -6 73.5t-18 73.5z
M558 896l20 -11q-24 -50 -46.5 -72.5t-57.5 -22.5l-29 4l-51 15l-49 14l-32 5q-21 0 -39 -12q-10 -7 -32 -39l-19 13l21 40q9 15 25 31q24 27 65 27q16 0 32 -5l21 -5q6 0 27 -9q58 -17 76 -19q19 0 32 8l15 13z" />
    <glyph glyph-name="odieresis" unicode="&#xf6;" 
d="M517 635q31 -28 71 -76q23 -37 41 -101l12 -57l4 -27l1 -27v-7v-7q0 -45 -9 -90.5t-28 -80.5q-11 -17 -36 -31q-3 -1 -16.5 -4.5t-26.5 -6.5l-8 -1h-7h-4h-4l-9 -15l-6 -17l-1 -4l-4 -12l-8 -16q-3 -8 -19 -17q-19 -14 -62 -29q-33 -9 -68 -9h-6h-5h-16h-11q-7 2 -10 2
l-26 6l-22 7q-33 10 -74 36q-63 48 -96 120t-33 154v22l4 31l3 27l8 26q18 62 59 121.5t105 94.5q11 6 23 9l26 4l5 1q18 0 38 6t35 28l13 1h14h8l9 -1q13 0 26 -4q13 -2 25 -7q45 -14 85 -49zM489 455l-8 17l-24 39q-10 19 -29 39q-28 36 -85 47q-102 -48 -144 -145
q-17 -43 -31 -100q-5 -24 -8 -52.5t-3 -56.5q9 -22 29 -40l40 -32l14 -10l14 -10q17 -9 37 -15l40 -4h5h5q19 0 31.5 2t29.5 9q31 9 54 25l5 12l1 13l-2 17l-5 17l-5 19l-2 18l1 7l1 6q12 -9 19 -26l10 -33l1 -6l7 -25l12 -22h4l9 37l6 39l2 25l1 26q0 35 -6 73.5t-18 73.5z
M228 844q30 -18 30 -55q0 -13 -2 -19.5t-8 -13.5q-18 -30 -55 -30q-13 0 -19.5 2t-13.5 8q-30 18 -30 55q0 12 2 18t8 15q18 30 55 30q12 0 18 -2t15 -8zM536 816q10 -17 10 -32q0 -31 -26 -48q-17 -10 -32 -10q-31 0 -48 26q-10 17 -10 32q0 31 26 48q17 10 32 10
q31 0 48 -26z" />
    <glyph glyph-name="divide" unicode="&#xf7;" 
d="M517 635q31 -28 71 -76q23 -37 41 -101l12 -57l4 -27l1 -27v-7v-7q0 -45 -9 -90.5t-28 -80.5q-11 -17 -36 -31q-3 -1 -16.5 -4.5t-26.5 -6.5l-8 -1h-7h-4h-4l-9 -15l-6 -17l-1 -4l-4 -12l-8 -16q-3 -8 -19 -17q-19 -14 -62 -29q-33 -9 -68 -9h-6h-5h-16h-11q-7 2 -10 2
l-26 6l-22 7q-33 10 -74 36q-63 48 -96 120t-33 154v22l4 31l3 27l8 26q18 62 59 121.5t105 94.5q11 6 23 9l26 4l5 1q18 0 38 6t35 28l13 1h14h8l9 -1q13 0 26 -4q13 -2 25 -7q45 -14 85 -49zM489 455l-8 17l-24 39q-10 19 -29 39q-28 36 -85 47q-102 -48 -144 -145
q-17 -43 -31 -100q-5 -24 -8 -52.5t-3 -56.5q9 -22 29 -40l40 -32l14 -10l14 -10q17 -9 37 -15l40 -4h5h5q19 0 31.5 2t29.5 9q31 9 54 25l5 12l1 13l-2 17l-5 17l-5 19l-2 18l1 7l1 6q12 -9 19 -26l10 -33l1 -6l7 -25l12 -22h4l9 37l6 39l2 25l1 26q0 35 -6 73.5t-18 73.5z
M513 654l16 -15l11 20l11 23q5 20 7 39l-3 23l-14 26l-13 25l-3 20q0 18 13 34q14 14 36 14q24 0 45 -24q10 -12 15 -27t5 -35q0 -43 -33 -91l-22 -34q-13 -24 -29 -36l12 -15l3 -4l-4 3l-2 4z" />
    <glyph glyph-name="oslash" unicode="&#xf8;" horiz-adv-x="587" 
d="M117 653l3 -8l4 -7l2 -4l13 -29q5 -13 5 -33v-7l1 -77l1 -36l1 -38v-50v-23l2 -27v-25v-24l-1 -47l-1 -46q17 -12 47 -16l54 -2h8h6h16l15 -1l18 3q15 0 19 2l5 1h6l42 9q21 6 34 25l-1 55v55l-1 42l-1 43v83l3 100l9 103q1 2 3.5 5t5.5 6l15 3l10 -1l10 -3l8 -5l9 -5
q10 -6 21 -13t22 -16q20 -14 30 -37q0 -44 -10 -78l-18 -74l-1 -3l-10 -38l-8 -38l1 -67l-1 -68v-35v-34l1 -80l6 -74l-1 -4l-1 -3l-2 -7l-6 -5q-19 3 -37.5 17t-33.5 33l-4 11l-1 12l-1 3l-3 19q0 5 -13 11q-21 -44 -60.5 -56.5t-83.5 -12.5l-20 -1l-18 1h-17h-16
q-34 0 -73 21q-33 21 -57 48q-12 22 -22 56l-6 28l-5 40l-2 23v23v19l1 18l3 90l1 92l-1 85l-3 83l-3 4l-2 4l-6 8l1 11l8 4l10 1q10 0 12 -2q10 0 12 -2l4 -2l4 -1l8 -3l8 -2zM328 -108l4 -24q0 -25 -12.5 -42.5t-37.5 -27.5l-24 -4q-24 0 -42.5 12.5t-27.5 37.5l-4 24
q0 23 12 42t38 28l24 4q24 0 42 -12t28 -38z" />
    <glyph glyph-name="ugrave" unicode="&#xf9;" horiz-adv-x="587" 
d="M117 653l3 -8l4 -7l2 -4l13 -29q5 -13 5 -33v-7l1 -77l1 -36l1 -38v-50v-23l2 -27v-25v-24l-1 -47l-1 -46q17 -12 47 -16l54 -2h8h6h16l15 -1l18 3q15 0 19 2l5 1h6l42 9q21 6 34 25l-1 55v55l-1 42l-1 43v83l3 100l9 103q1 2 3.5 5t5.5 6l15 3l10 -1l10 -3l8 -5l9 -5
q10 -6 21 -13t22 -16q20 -14 30 -37q0 -44 -10 -78l-18 -74l-1 -3l-10 -38l-8 -38l1 -67l-1 -68v-35v-34l1 -80l6 -74l-1 -4l-1 -3l-2 -7l-6 -5q-19 3 -37.5 17t-33.5 33l-4 11l-1 12l-1 3l-3 19q0 5 -13 11q-21 -44 -60.5 -56.5t-83.5 -12.5l-20 -1l-18 1h-17h-16
q-34 0 -73 21q-33 21 -57 48q-12 22 -22 56l-6 28l-5 40l-2 23v23v19l1 18l3 90l1 92l-1 85l-3 83l-3 4l-2 4l-6 8l1 11l8 4l10 1q10 0 12 -2q10 0 12 -2l4 -2l4 -1l8 -3l8 -2zM285 781l-15 -20l-151 84q-56 30 -56 54q0 13 13 27.5t26 15.5q23 0 64 -41z" />
    <glyph glyph-name="uacute" unicode="&#xfa;" horiz-adv-x="587" 
d="M117 653l3 -8l4 -7l2 -4l13 -29q5 -13 5 -33v-7l1 -77l1 -36l1 -38v-50v-23l2 -27v-25v-24l-1 -47l-1 -46q17 -12 47 -16l54 -2h8h6h16l15 -1l18 3q15 0 19 2l5 1h6l42 9q21 6 34 25l-1 55v55l-1 42l-1 43v83l3 100l9 103q1 2 3.5 5t5.5 6l15 3l10 -1l10 -3l8 -5l9 -5
q10 -6 21 -13t22 -16q20 -14 30 -37q0 -44 -10 -78l-18 -74l-1 -3l-10 -38l-8 -38l1 -67l-1 -68v-35v-34l1 -80l6 -74l-1 -4l-1 -3l-2 -7l-6 -5q-19 3 -37.5 17t-33.5 33l-4 11l-1 12l-1 3l-3 19q0 5 -13 11q-21 -44 -60.5 -56.5t-83.5 -12.5l-20 -1l-18 1h-17h-16
q-34 0 -73 21q-33 21 -57 48q-12 22 -22 56l-6 28l-5 40l-2 23v23v19l1 18l3 90l1 92l-1 85l-3 83l-3 4l-2 4l-6 8l1 11l8 4l10 1q10 0 12 -2q10 0 12 -2l4 -2l4 -1l8 -3l8 -2zM238 784l65 136h116l-108 -136h-73z" />
    <glyph glyph-name="ucircumflex" unicode="&#xfb;" horiz-adv-x="587" 
d="M117 653l3 -8l4 -7l2 -4l13 -29q5 -13 5 -33v-7l1 -77l1 -36l1 -38v-50v-23l2 -27v-25v-24l-1 -47l-1 -46q17 -12 47 -16l54 -2h8h6h16l15 -1l18 3q15 0 19 2l5 1h6l42 9q21 6 34 25l-1 55v55l-1 42l-1 43v83l3 100l9 103q1 2 3.5 5t5.5 6l15 3l10 -1l10 -3l8 -5l9 -5
q10 -6 21 -13t22 -16q20 -14 30 -37q0 -44 -10 -78l-18 -74l-1 -3l-10 -38l-8 -38l1 -67l-1 -68v-35v-34l1 -80l6 -74l-1 -4l-1 -3l-2 -7l-6 -5q-19 3 -37.5 17t-33.5 33l-4 11l-1 12l-1 3l-3 19q0 5 -13 11q-21 -44 -60.5 -56.5t-83.5 -12.5l-20 -1l-18 1h-17h-16
q-34 0 -73 21q-33 21 -57 48q-12 22 -22 56l-6 28l-5 40l-2 23v23v19l1 18l3 90l1 92l-1 85l-3 83l-3 4l-2 4l-6 8l1 11l8 4l10 1q10 0 12 -2q10 0 12 -2l4 -2l4 -1l8 -3l8 -2zM375 921l2 -10l1 -14q0 -18 -7 -29q-15 -24 -38 -33q-14 -3 -21 -19q-8 -14 -8 -32l-37 -1
l-2 16q0 25 11 42l12 16l14 20l4 17v6q-3 19 -35 19q-10 0 -28 -6l-12 -3l-8 -1q-22 0 -22 31l1 11l1 7q30 30 57 30q39 0 68 -15q25 -12 47 -52zM576 586h-43l-3 3z" />
    <glyph glyph-name="udieresis" unicode="&#xfc;" horiz-adv-x="587" 
d="M117 653l3 -8l4 -7l2 -4l13 -29q5 -13 5 -33v-7l1 -77l1 -36l1 -38v-50v-23l2 -27v-25v-24l-1 -47l-1 -46q17 -12 47 -16l54 -2h8h6h16l15 -1l18 3q15 0 19 2l5 1h6l42 9q21 6 34 25l-1 55v55l-1 42l-1 43v83l3 100l9 103q1 2 3.5 5t5.5 6l15 3l10 -1l10 -3l8 -5l9 -5
q10 -6 21 -13t22 -16q20 -14 30 -37q0 -44 -10 -78l-18 -74l-1 -3l-10 -38l-8 -38l1 -67l-1 -68v-35v-34l1 -80l6 -74l-1 -4l-1 -3l-2 -7l-6 -5q-19 3 -37.5 17t-33.5 33l-4 11l-1 12l-1 3l-3 19q0 5 -13 11q-21 -44 -60.5 -56.5t-83.5 -12.5l-20 -1l-18 1h-17h-16
q-34 0 -73 21q-33 21 -57 48q-12 22 -22 56l-6 28l-5 40l-2 23v23v19l1 18l3 90l1 92l-1 85l-3 83l-3 4l-2 4l-6 8l1 11l8 4l10 1q10 0 12 -2q10 0 12 -2l4 -2l4 -1l8 -3l8 -2zM100 900q26 -6 42 -27t16 -45l-2 -16q-6 -25 -27 -41.5t-45 -16.5l-16 2q-26 6 -42 27t-16 45
l2 16q6 26 27 42t45 16zM532 896q28 -22 28 -56q0 -22 -14 -42q-22 -28 -56 -28q-22 0 -42 14q-28 22 -28 56q0 22 14 42q22 28 56 28q22 0 42 -14z" />
    <glyph glyph-name="yacute" unicode="&#xfd;" horiz-adv-x="734" 
d="M626 696h6h5h14l20 -4q15 -3 30 -15v-5v-4q0 -79 -43 -145t-107 -113l-6 -14l-6 -15q-31 -68 -67.5 -134.5t-88.5 -121.5l3 -13l9 -2l29 3h11l19 2h27l37 5q8 0 20 4t23 11v-15l-15 -19l-16 -21l-39 -41q-15 -14 -44 -29l-90 -7l-91 -3l-49 1l-21 1l-26 4l-8 2l-7 3
q-15 5 -25.5 14.5t-10.5 26.5q2 15 5 18l5 20l8 29l7 30q9 0 13 -5l5 -11l5 -12l9 -7l12 -3l13 -4l10 -3q7 0 11 -2l8 -2h8q10 0 14 2l14 8l9 16l9 17l7 12l7 13l21 39l17 42l-9 2l-9 1l-10 -1l-9 -1l-10 -2h-10h-5l-4 1l-10 3l-8 5q-36 47 -57 89l-46 95l-3 6l-3 8l-38 79
q-18 40 -43 76l-4 1l-7 -1h-4l-5 -2h-4l-5 1l9 23l15 26l7 11l6 11l15 8l17 3l4 -1h5q9 0 20 -4l19 -6q32 -36 53.5 -82t40.5 -96l16 -45l19 -43l15 -19l14 -20l25 -35q9 -11 29 -26q18 3 25.5 17t11.5 29l1 3l1 4l3 9l3 9l18 39l18 42l4 10l4 11l28 61q5 11 13.5 26.5
t20.5 33.5q36 57 109 88h4zM630 560l-18 -36l-16 -32l-18 -26l3 -3l6 4l6 5q23 23 42.5 54.5t19.5 64.5q-15 -12 -25 -31zM485 893l4 -24q0 -18 -7 -29q-15 -24 -39 -33q-13 -3 -21 -20l-7 -31l-37 -1l-2 16q0 25 11 42l12 16l14 20l4 17v6q-3 19 -35 19q-10 0 -28 -6
l-10 -2l-10 -2q-22 0 -22 31l1 11l1 7q29 30 57 30q39 0 68 -15q27 -12 46 -52z" />
    <glyph glyph-name="thorn" unicode="&#xfe;" horiz-adv-x="722" 
d="M609 683l14 -26l7 -28l-1 -6l-1 -4q0 -12 -10 -21l-21 -13l-5 -2h-4l-326 -115q21 14 45 24l52 21l11 4l12 5l57 24q27 12 52 31l-1 5l-7 8l-10 4l-40 -3l-41 -3l-85 -6l-85 -3l-2 -4v-7v-9l1 -5l2 -8l2 -8l3 -14l2 -15l-2 -11l-3 -11v-4q0 -6 4 -13l12 -5l-2 -4l-3 -5
l-3 -5l-1 -4l-2 -4v-4l2 -7l9 -5h20h17l17 2l55 4h6l7 1l61 3l62 2l48 -1l25 -1q13 0 22 -3.5t13 -11.5l2 -15l2 -14q0 -6 5 -10q-28 -28 -70 -43l-82 -16l-3 -1l-63 -12q-25 -6 -55 -21l-18 -9l-20 -6q-21 -3 -35 -13q-16 -6 -24 -26l1 -8v-8l-1 -12v-11l-1 -12v-12l3 -28
q3 -13 13 -21h9h8h27h24l14 2q19 0 29 2l35 7q75 11 127 25l82 17l82 13l3 -6l1 -6l-1 -7l-3 -6l-3 -6l-3 -5l-6 -8l-3 -7q-24 -62 -82 -86q-49 -14 -122 -25l-5 -1h-4l-52 -7q-28 -3 -49 -10q-25 0 -32 -2q-25 0 -31 -2l-56 -4l-55 -2h-27l-26 3l-27 3l-26 5q-16 9 -24 22
q-6 7 -14 31l-4 13l-1 13q0 27 15.5 45.5t34.5 33.5l3 2l22 20l19 24q0 15 -2 19v21q0 36 -5 51q-3 20 -27 35q-13 2 -21 10l-10 22q0 17 10 27l22 19l4 3l14 10l10 12l-6 125l-14 10l-15 5l-18 6q-1 1 -2 1q-6 4 -12 11q0 12 -2 15l-3 17l-2 3l-3 16l-1 13q0 12 2 15l9 13
l38 -11l12 -1h13h12h13l44 1l45 1l89 5h18h15l17 2l50 3l46 1l46 1h16l18 -1l16 -1h17zM131 159q0 8 -7 14l-15 6l-13 -3q-7 -3 -9 -8l-2 -5l-2 -7l-2 -2l-2 -9l-1 -6l2 -8l10 -5l7 -2l8 -1q9 0 17 5q6 6 9 19v4l-1 4zM333 320l-9 -1l-15 1l-14 2h-4l-14 1l-12 1
q-15 0 -25.5 -7t-10.5 -26l1 -4v-5l6 -7l6 -4l3 -1q9 0 17 4l16 10l4 2l4 3l9 5l10 3l8 5l10 3h4l13 3q2 8 2 14zM150 804q0 48 27.5 79.5t72.5 31.5q14 0 34 -7q16 -4 23.5 -7.5t25.5 -12.5q28 -14 45 -14q16 0 24 8.5t12 34.5h63q0 -26 -6 -46l-10 -23l-12 -15
q-28 -28 -68 -28q-31 0 -81 28q-26 14 -48 17q-12 0 -24.5 -11.5t-12.5 -34.5h-65z" />
    <glyph glyph-name="ydieresis" unicode="&#xff;" horiz-adv-x="734" 
d="M626 696h6h5h14l20 -4q15 -3 30 -15v-5v-4q0 -79 -43 -145t-107 -113l-6 -14l-6 -15q-31 -68 -67.5 -134.5t-88.5 -121.5l3 -13l9 -2l29 3h11l19 2h27l37 5q8 0 20 4t23 11v-15l-15 -19l-16 -21l-39 -41q-15 -14 -44 -29l-90 -7l-91 -3l-49 1l-21 1l-26 4l-8 2l-7 3
q-15 5 -25.5 14.5t-10.5 26.5q2 15 5 18l5 20l8 29l7 30q9 0 13 -5l5 -11l5 -12l9 -7l12 -3l13 -4l10 -3q7 0 11 -2l8 -2h8q10 0 14 2l14 8l9 16l9 17l7 12l7 13l21 39l17 42l-9 2l-9 1l-10 -1l-9 -1l-10 -2h-10h-5l-4 1l-10 3l-8 5q-36 47 -57 89l-46 95l-3 6l-3 8l-38 79
q-18 40 -43 76l-4 1l-7 -1h-4l-5 -2h-4l-5 1l9 23l15 26l7 11l6 11l15 8l17 3l4 -1h5q9 0 20 -4l19 -6q32 -36 53.5 -82t40.5 -96l16 -45l19 -43l15 -19l14 -20l25 -35q9 -11 29 -26q18 3 25.5 17t11.5 29l1 3l1 4l3 9l3 9l18 39l18 42l4 10l4 11l28 61q5 11 13.5 26.5
t20.5 33.5q36 57 109 88h4zM630 560l-18 -36l-16 -32l-18 -26l3 -3l6 4l6 5q23 23 42.5 54.5t19.5 64.5q-15 -12 -25 -31zM421 777l-15 -20l-151 84q-56 30 -56 54q0 13 13 27.5t26 15.5q23 0 64 -41z" />
  </font>
</defs>
</svg>
